<?xml version="1.0" encoding="UTF-8"?><svg id="Layer_2" xmlns="http://www.w3.org/2000/svg" width="627.2" height="541.8" viewBox="0 0 627.2 541.8"><defs><style>.cls-1{fill:#fff;}.cls-2{fill:#d50172;}.cls-3{fill:#0a0b09;}</style></defs><g id="Layer_1-2"><g id="Calque_1"><polygon id="Path-2" class="cls-1" points="449.5 30.2 349.8 21.8 14.9 16.8 14.9 532.2 372.4 532.2 491.6 499.8 572.7 429.5 612.3 318.9 612.3 191.1 553 88.5 449.5 30.2"/><path id="Fill-4" class="cls-3" d="M25.5,25.5v490.9h298.2c180.1,0,278.1-83.9,278.1-246.1,0-166.7-106.2-244.8-278.1-244.8H25.5ZM323.7,0c264.1,0,303.5,169.4,303.5,270.3,0,175.1-107.8,271.5-303.5,271.5H0V0c6.4,0,323.7,0,323.7,0Z"/><path id="Fill-7" class="cls-2" d="M209.5,194.2v55.4h17c11.8,0,22.7-3.4,22.7-28.1,0-24.2-12.1-27.3-22.7-27.3h-17ZM493.1,166.6h27.5v82.9h40.8c-11.2-150.5-129.6-183-237.1-183h-114.8v100.1h17c31,0,50.2,21,50.2,54.8,0,34.8-18.8,55.6-50.2,55.6h-17v200.3h114.7c174.9,0,235.8-81.2,237.9-200.3h-69v-110.4h0ZM416.5,228.2h19.8l-9.1-31.2h-1.7l-9,31.2h0ZM373.5,277.1l33.3-110.5h39.1l33.4,110.5h-28.6l-6.2-21.4h-36l-6.3,21.4h-28.7ZM360.3,249.5v27.5h-68v-110.4h65.8v27.5h-38.3v12.8h36.3v27.5h-36.3v15.1c15.3,0,40.5,0,40.5,0h0Z"/><path id="Fill-6" d="M173.5,221.8c0,32.8-26.6,59.3-59.3,59.3-32.8,0-59.3-26.6-59.3-59.3s26.6-59.3,59.3-59.3,59.3,26.5,59.3,59.3M66.6,477.3h95.5v-170h-95.5v170Z"/></g></g></svg>