<?xml version="1.0" encoding="utf-8"?>
<!-- Generator: Adobe Illustrator 27.8.0, SVG Export Plug-In . SVG Version: 6.00 Build 0)  -->
<svg version="1.1" xmlns="http://www.w3.org/2000/svg" xmlns:xlink="http://www.w3.org/1999/xlink" x="0px" y="0px"
	 viewBox="0 0 100 50" style="enable-background:new 0 0 100 50;" xml:space="preserve">
<style type="text/css">
	.st0{fill:#46BEAA;}
	.st1{fill:#1B1C1E;}
	.st2{fill:#FFFFFF;}
</style>
<g id="Previous">
</g>
<g id="By">
	<g>
		<g>
			<g>
				<path class="st0" d="M87.5,30c-0.2,0.2-0.4,0.4-0.6,0.6c0.9,0.9,1.6,2.3,1.8,3.9h0.9c-0.2-1.4-0.7-2.7-1.4-3.8
					C88,30.5,87.8,30.2,87.5,30z"/>
				<path class="st0" d="M86.5,31.2c-0.2,0.3-0.3,0.5-0.4,0.8c0.5,0.6,0.9,1.5,1.1,2.5H88c-0.2-1.1-0.5-2-1.1-2.8
					C86.7,31.5,86.6,31.4,86.5,31.2z"/>
				<path class="st0" d="M85.5,34.5h0.9c-0.1-0.6-0.3-1.2-0.7-1.6C85.6,33.4,85.5,34,85.5,34.5z"/>
				<path class="st0" d="M95,29.6c-0.1-0.1-0.2-0.2-0.3-0.2c-0.1,0.1-0.1,0.1-0.2,0.2c-0.7,0.8-1.5,2-1.9,3.6
					c-0.1-0.7-0.3-1.3-0.5-1.9c0.5-1,1-1.8,1.5-2.4c-0.1-0.1-0.3-0.1-0.4-0.1c-0.4,0.5-0.9,1.2-1.3,2c-0.3-0.7-0.6-1.3-1.1-1.9
					c-0.1-0.1-0.1-0.2-0.2-0.3c-0.3,0-0.6,0.1-0.9,0.2c0.7,0.8,1.3,1.9,1.7,3.1c-0.1,0.4-0.3,0.9-0.4,1.4c-0.3-1.3-0.8-2.5-1.5-3.5
					c-0.2-0.3-0.4-0.5-0.6-0.7c-0.3,0.1-0.5,0.3-0.8,0.4c1.1,1.2,1.9,2.9,2.2,5h0.9c0.1-0.7,0.2-1.3,0.4-1.9
					c0.2,0.6,0.3,1.2,0.3,1.9h0.9c0.3-2.2,1.2-3.7,2-4.7C94.9,29.8,94.9,29.7,95,29.6z"/>
				<path class="st0" d="M96.1,30.7c-0.1-0.1-0.2-0.2-0.3-0.3c-0.9,0.9-1.7,2.3-1.9,4.1h0.4c0.2-1.7,1-2.9,1.7-3.7
					C96,30.8,96.1,30.8,96.1,30.7z"/>
				<path class="st0" d="M95.5,34.5h0.4c0.2-1.1,0.6-1.9,1.1-2.4c-0.1-0.1-0.1-0.3-0.2-0.4C96.2,32.4,95.7,33.3,95.5,34.5z"/>
				<path class="st0" d="M97.4,33.5c-0.1,0.3-0.3,0.6-0.3,1h0.4C97.5,34.2,97.5,33.9,97.4,33.5z"/>
			</g>
			<g>
				<polygon class="st0" points="59.5,28.7 58.2,28.7 58.2,34.5 61.8,34.5 61.8,33.4 59.5,33.4 				"/>
				<polygon class="st0" points="68.9,28.7 68.5,28.7 68.5,34.5 71.6,34.5 71.6,34.1 68.9,34.1 				"/>
				<rect x="72.1" y="28.7" class="st0" width="0.5" height="5.8"/>
				<polygon class="st0" points="80.2,34.1 80.2,31.8 82.7,31.8 82.7,31.4 80.2,31.4 80.2,29.2 82.9,29.2 82.9,28.7 79.7,28.7 
					79.7,34.5 83,34.5 83,34.1 				"/>
				<polygon class="st0" points="78.1,34.1 78,34.1 74.7,28.7 73.9,28.7 73.9,34.5 74.3,34.5 74.3,29.2 74.4,29.2 77.8,34.5 
					78.6,34.5 78.6,28.7 78.1,28.7 				"/>
				<polygon class="st0" points="43.5,33.4 43.4,33.4 42.4,28.9 41.1,28.9 40.2,33.4 40.1,33.4 38.9,28.7 37.6,28.7 39,34.5 
					41,34.5 41.7,31 42.5,34.5 44.5,34.5 45.8,28.7 44.5,28.7 				"/>
				<path class="st0" d="M66.8,29.6c-0.6-0.6-1.4-0.9-2.3-0.9l-2.1,0v5.9h2.1c0.5,0,1-0.1,1.4-0.2c0.7-0.3,1.3-0.9,1.6-1.6
					c0.2-0.4,0.2-0.8,0.2-1.2C67.6,30.8,67.3,30.1,66.8,29.6z M66.1,32.4c-0.2,0.4-0.5,0.7-0.9,0.9c-0.2,0.1-0.5,0.1-0.7,0.1h-0.9
					v-3.6h0.9c0.3,0,0.5,0,0.7,0.1c0.4,0.1,0.7,0.4,0.9,0.9C66.3,31.3,66.3,31.9,66.1,32.4z"/>
				<path class="st0" d="M50.2,28.8c-0.7-0.3-1.9-0.3-2.7,0c-0.7,0.3-1.3,0.9-1.6,1.6c-0.2,0.4-0.2,0.8-0.2,1.2
					c0,1.1,0.7,2.2,1.7,2.7c0.7,0.4,2,0.4,2.7,0c1-0.5,1.7-1.6,1.7-2.7c0-0.8-0.2-1.6-0.8-2.2C50.9,29.2,50.6,29,50.2,28.8z
					 M48.9,33.5c-1.1,0-1.7-0.9-1.7-1.9c0-1,0.6-1.9,1.7-1.9c1,0,1.7,0.7,1.7,1.9C50.6,32.6,50,33.5,48.9,33.5z"/>
				<path class="st0" d="M57,31.8c0.2-0.3,0.3-0.7,0.3-1.2c0-0.4-0.1-0.8-0.3-1.1c-0.4-0.7-1.2-0.9-2.1-0.9l-2.3,0v5.8H54v-1.8
					c0,0,1,0,1,0l1.2,1.8h1.5l-1.5-2.1C56.5,32.3,56.8,32.1,57,31.8z M55.8,31.2c-0.2,0.3-0.5,0.4-0.8,0.4h-1v-1.8h1
					c0.2,0,0.4,0,0.5,0.1c0.1,0.1,0.2,0.2,0.3,0.3C56,30.5,56,30.9,55.8,31.2z"/>
			</g>
		</g>
		<path class="st1" d="M8.2,18.7c-0.3-0.2-0.6-0.3-0.9-0.3v-0.1c0.4-0.1,0.8-0.3,1.1-0.6c0.3-0.3,0.5-0.7,0.5-1.3
			c0-0.7-0.2-1.2-0.7-1.7C7.7,14.3,6.9,14,6,14H2.5v9.1h3.7c0.7,0,1.3-0.1,1.7-0.3c0.5-0.2,0.8-0.5,1-0.9c0.2-0.4,0.3-0.8,0.3-1.3
			c0-0.5-0.1-0.8-0.3-1.2C8.8,19.1,8.5,18.9,8.2,18.7z M4.1,15.4h1.7c0.5,0,0.8,0.1,1.1,0.3c0.2,0.2,0.4,0.5,0.4,0.9
			c0,0.4-0.1,0.7-0.4,0.9c-0.3,0.2-0.6,0.3-1.1,0.3H4.1V15.4z M7.2,21.4c-0.3,0.2-0.7,0.3-1.3,0.3H4.1v-2.7h1.8
			c0.5,0,0.9,0.1,1.2,0.4c0.3,0.3,0.4,0.6,0.4,1C7.6,20.9,7.5,21.2,7.2,21.4z"/>
		<path class="st1" d="M12.7,14l-3.2,9.1h1.8l0.7-2.2h3.4l0.8,2.2h1.8L14.7,14H12.7z M12.5,19.5l1.2-3.6h0.1l1.2,3.6H12.5z"/>
		<polygon class="st1" points="24.6,20.2 24.5,20.2 20.2,14 18.8,14 18.8,23.1 20.4,23.1 20.4,16.9 20.5,16.9 24.7,23.1 26.2,23.1 
			26.2,14 24.6,14 		"/>
		<polygon class="st1" points="34.6,14 32.6,14 29.1,18.2 29,18.2 29,14 27.3,14 27.3,23.1 29,23.1 29,20.4 30,19.2 32.7,23.1 
			34.7,23.1 31.1,18.1 		"/>
		<polygon class="st1" points="37.6,15 40.4,15 40.4,23.1 41.5,23.1 41.5,15 44.4,15 44.4,14 37.6,14 		"/>
		<path class="st1" d="M50.1,19.2c0.5-0.2,0.8-0.6,1-1c0.2-0.4,0.3-0.9,0.3-1.4s-0.1-1-0.3-1.4c-0.2-0.4-0.6-0.7-1-1
			c-0.5-0.2-1-0.4-1.7-0.4h-3.1v9.1h1.1v-3.5h2c0.1,0,0.2,0,0.2,0l1.9,3.5h1.3l-2-3.7C49.9,19.3,50,19.2,50.1,19.2z M48.3,18.5h-1.9
			V15h1.9c0.5,0,0.9,0.1,1.2,0.2c0.3,0.1,0.5,0.4,0.6,0.6c0.1,0.3,0.2,0.6,0.2,1c0,0.4-0.1,0.7-0.2,0.9c-0.1,0.3-0.3,0.5-0.6,0.6
			C49.2,18.5,48.8,18.5,48.3,18.5z"/>
		<path class="st1" d="M56,14l-3.3,9.1h1.1l0.9-2.6h3.7l0.9,2.6h1.1L57.1,14H56z M55.1,19.5l1.4-4.1h0.1l1.4,4.1H55.1z"/>
		<polygon class="st1" points="67.5,21.1 67.4,21.1 62.4,14 61.4,14 61.4,23.1 62.5,23.1 62.5,16 62.5,16 67.5,23.1 68.5,23.1 
			68.5,14 67.5,14 		"/>
		<path class="st1" d="M75.1,18.8c-0.3-0.2-0.5-0.3-0.8-0.4c-0.3-0.1-0.6-0.2-0.8-0.3l-0.9-0.2c-0.2,0-0.4-0.1-0.6-0.2
			c-0.2-0.1-0.4-0.2-0.6-0.3c-0.2-0.1-0.3-0.3-0.4-0.4c-0.1-0.2-0.2-0.4-0.2-0.6c0-0.3,0.1-0.5,0.2-0.8c0.2-0.2,0.4-0.4,0.7-0.5
			c0.3-0.1,0.6-0.2,1.1-0.2c0.5,0,1,0.1,1.4,0.4c0.4,0.2,0.6,0.6,0.6,1h1.1c0-0.5-0.2-0.9-0.4-1.2c-0.3-0.4-0.6-0.6-1.1-0.9
			c-0.5-0.2-1-0.3-1.6-0.3c-0.6,0-1.1,0.1-1.6,0.3c-0.5,0.2-0.8,0.5-1.1,0.9c-0.3,0.4-0.4,0.8-0.4,1.3c0,0.6,0.2,1.1,0.6,1.5
			c0.4,0.4,1,0.7,1.7,0.9l1.1,0.3c0.3,0.1,0.6,0.2,0.9,0.3c0.3,0.1,0.5,0.3,0.7,0.5c0.2,0.2,0.3,0.4,0.3,0.7c0,0.3-0.1,0.6-0.3,0.9
			c-0.2,0.2-0.5,0.4-0.8,0.6c-0.3,0.1-0.7,0.2-1.1,0.2c-0.4,0-0.7-0.1-1-0.2c-0.3-0.1-0.6-0.3-0.8-0.5c-0.2-0.2-0.3-0.5-0.3-0.8
			h-1.1c0,0.5,0.2,0.9,0.5,1.3c0.3,0.4,0.6,0.7,1.1,0.9c0.5,0.2,1,0.3,1.7,0.3c0.7,0,1.3-0.1,1.8-0.3c0.5-0.2,0.9-0.5,1.1-0.9
			c0.3-0.4,0.4-0.8,0.4-1.3c0-0.4-0.1-0.8-0.3-1.1S75.4,19,75.1,18.8z"/>
		<polygon class="st1" points="77.4,23.1 78.5,23.1 78.5,19 82.4,19 82.4,18.1 78.5,18.1 78.5,15 82.8,15 82.8,14 77.4,14 		"/>
		<polygon class="st1" points="85.2,19 89.3,19 89.3,18.1 85.2,18.1 85.2,15 89.6,15 89.6,14 84.1,14 84.1,23.1 89.7,23.1 
			89.7,22.1 85.2,22.1 		"/>
		<path class="st1" d="M95.5,19.3c0.1,0,0.2-0.1,0.4-0.2c0.5-0.2,0.8-0.6,1-1c0.2-0.4,0.3-0.9,0.3-1.4s-0.1-1-0.3-1.4
			c-0.2-0.4-0.6-0.7-1-1c-0.5-0.2-1-0.4-1.7-0.4H91v9.1h1.1v-3.5h2c0.1,0,0.2,0,0.2,0l1.9,3.5h1.3L95.5,19.3z M94.1,18.5h-1.9V15H94
			c0.5,0,0.9,0.1,1.2,0.2c0.3,0.1,0.5,0.4,0.6,0.6c0.1,0.3,0.2,0.6,0.2,1c0,0.4-0.1,0.7-0.2,0.9c-0.1,0.3-0.3,0.5-0.6,0.6
			C94.9,18.5,94.5,18.5,94.1,18.5z"/>
		<path class="st1" d="M29.3,30.4c-0.3-0.2-0.6-0.3-1-0.3c-0.3,0-0.5,0-0.7,0.1c-0.2,0.1-0.3,0.2-0.4,0.3c-0.1,0.1-0.2,0.2-0.2,0.3
			H27v-2.1h-0.7v5.8H27v-0.7h0.1c0,0.1,0.1,0.2,0.2,0.3c0.1,0.1,0.2,0.2,0.4,0.3c0.2,0.1,0.4,0.1,0.7,0.1c0.4,0,0.7-0.1,1-0.3
			c0.3-0.2,0.5-0.4,0.6-0.8c0.2-0.3,0.2-0.7,0.2-1.2c0-0.5-0.1-0.8-0.2-1.2C29.8,30.8,29.6,30.6,29.3,30.4z M29.4,33.2
			c-0.1,0.3-0.2,0.4-0.4,0.6c-0.2,0.1-0.4,0.2-0.7,0.2c-0.3,0-0.5-0.1-0.7-0.2c-0.2-0.1-0.3-0.3-0.4-0.6c-0.1-0.2-0.1-0.5-0.1-0.9
			c0-0.3,0-0.6,0.1-0.8c0.1-0.2,0.2-0.4,0.4-0.6c0.2-0.1,0.4-0.2,0.7-0.2c0.3,0,0.5,0.1,0.7,0.2c0.2,0.1,0.3,0.3,0.4,0.6
			c0.1,0.2,0.1,0.5,0.1,0.8C29.5,32.6,29.5,32.9,29.4,33.2z"/>
		<path class="st1" d="M32.6,33.6L32.6,33.6l-1.2-3.4h-0.7l1.6,4.3l-0.1,0.3c-0.1,0.2-0.2,0.4-0.3,0.5c-0.1,0.1-0.2,0.2-0.3,0.2
			c-0.1,0-0.3,0-0.4,0L31,36c0,0,0.1,0,0.2,0.1c0.1,0,0.2,0,0.3,0c0.2,0,0.4,0,0.5-0.1c0.2-0.1,0.3-0.2,0.4-0.3
			c0.1-0.1,0.2-0.3,0.3-0.6l1.8-5h-0.7L32.6,33.6z"/>
	</g>
</g>
</svg>
