<?xml version="1.0" encoding="UTF-8"?><svg id="Layer_2" xmlns="http://www.w3.org/2000/svg" width="902.0999" height="572.9" viewBox="0 0 902.0999 572.9"><g id="pm"><path d="M821.4,0h9.2c2.6,0,5.2.1,7.8.1,5.7.2,11.4.5,17,1.5s11,2.7,16.1,5.3c10.2,5.2,18.5,13.4,23.7,23.5,2.6,5,4.4,10.4,5.3,16,1,5.6,1.3,11.2,1.5,16.8.1,2.6.1,5.1.1,7.7v431.1c0,2.6,0,5.2-.1,7.7-.2,5.6-.5,11.3-1.5,16.8-1,5.6-2.7,10.9-5.3,16-5.2,10.1-13.5,18.4-23.7,23.5-5.1,2.5-10.5,4.3-16.1,5.3s-11.3,1.3-17,1.5c-2.6.1-5.2.1-7.8.1H71.5c-2.6,0-5.2,0-7.8-.1-5.7-.2-11.4-.5-17-1.5-5.7-1-11-2.7-16.1-5.3s-9.7-5.9-13.7-9.9-7.4-8.6-10-13.6-4.4-10.4-5.3-16c-1-5.5-1.3-11.2-1.5-16.8-.1-2.6-.1-5.2-.1-7.7V71c0-2.6.1-5.2.1-7.7.2-5.6.5-11.3,1.5-16.8,1-5.6,2.7-11,5.3-16,5.2-10.1,13.5-18.4,23.7-23.5,5.1-2.5,10.5-4.3,16.1-5.3S58,.4,63.7.2c2.6-.1,5.2-.1,7.8-.1h749.9v-.1ZM821.4,19.1H71.7c-2.5,0-4.9,0-7.4.1-4.3.1-9.4.4-14.1,1.2-3.8.6-7.4,1.8-10.8,3.5-3.3,1.6-6.3,3.8-8.8,6.4-2.6,2.6-4.8,5.5-6.4,8.8-1.7,3.4-2.9,7-3.5,10.7-.9,4.7-1.1,9.7-1.2,14-.1,2.4-.1,4.9-.1,7.3v430.8c0,2.4,0,4.9.1,7.3.1,4.3.3,9.3,1.2,13.9.6,3.7,1.8,7.4,3.5,10.7,1.7,3.2,3.8,6.2,6.4,8.8s5.6,4.7,8.8,6.4c3.4,1.7,7.1,2.9,10.8,3.5,4.8.8,10,1.1,14.1,1.2,2.5.1,4.9.1,7.4.1h758.6999c2.5,0,5,0,7.5-.1,4-.1,9.2-.3,14-1.2,4-.7,7.5-1.8,10.7-3.5,6.6-3.3,11.9-8.6,15.3-15.2,1.7-3.4,2.9-7,3.5-10.7.9-4.7,1.1-9.7,1.2-14,.1-2.4.1-4.9.1-7.3V71.2c0-2.5,0-4.9-.1-7.4-.1-4.3-.3-9.3-1.2-14-.7-4.1-1.8-7.5-3.5-10.7-3.4-6.6-8.7-11.9-15.3-15.2-3.3-1.7-6.7-2.8-10.8-3.5-4.7-.8-9.8-1.1-14.1-1.2-2.5-.1-4.9-.1-7.4-.1h-8.9ZM237.2,193.4c-7.9,9.2-20.5,16.5-33,15.5-1.6-12.5,4.7-25.8,11.8-33.9,7.9-9.5,21.6-16.3,32.8-16.8,1.2,13-4,25.7-11.6,35.2h0ZM248.5,211.3h0c7.1.5,27.5,2.7,40.6,21.9-1.1.8-24.2,14.1-24,41.9.3,33.3,29.4,44.3,29.7,44.6-.3.8-4.6,15.7-15.2,31.1-9.3,13.5-18.8,26.8-34,27-14.7.3-19.6-8.7-36.5-8.7s-22.3,8.4-36.2,8.9c-14.7.5-25.9-14.3-35.1-27.8-19.1-27.3-33.5-77-13.9-110.6,9.5-16.8,27-27.3,45.8-27.6,14.4-.3,27.8,9.5,36.5,9.5,8.5.1,24-11.3,42.3-10.2h0ZM430.5,173.6c39.7,0,67.3,27.1,67.3,66.6,0,39.6-28.2,66.9-68.3,66.9h-43.9v69.3h-31.7v-202.8h76.6ZM385.6,280.7h36.4c27.6,0,43.3-14.8,43.3-40.3,0-25.6-15.7-40.2-43.2-40.2h-36.5v80.5ZM505.6,334.4c0-26,20-40.9,56.8-43.1l39.5-2.4v-11.2c0-16.4-10.9-25.4-30.3-25.4-16,0-27.6,8.1-30,20.7h-28.6c.9-26.3,25.8-45.4,59.5-45.4,36.3,0,59.9,18.8,59.9,48.1v100.9h-29.3v-24.3h-.7c-8.4,15.9-26.8,25.9-46.8,25.9-29.4-.2001-50-17.6-50-43.8h0ZM602,321.4v-11.4l-35.3,2.2c-19.8,1.3-30.2,8.6-30.2,21.4,0,12.4,10.8,20.4,27.6,20.4,21.6,0,37.9-13.7,37.9-32.6h0ZM659.4,430.7v-24.3c2,.3,6.8.6,9.3.6,14,0,22-5.9,26.8-21.1l2.8-9-53.7-147.6h33.1l37.4,119.7h.7l37.4-119.7h32.3l-55.7,155c-12.8,35.6-27.3,47.2-58.2,47.2-2.2999.1-10.0999-.2-12.2-.8h0Z"/></g></svg>