<?xml version="1.0" encoding="UTF-8"?><svg id="Layer_2" xmlns="http://www.w3.org/2000/svg" width="399.5897" height="202.8925" viewBox="0 0 399.5897 202.8925"><defs><style>.cls-1{fill:#050400;}.cls-2{fill:#f9c700;}.cls-3{fill:#030300;}.cls-4{fill:#060500;}.cls-5{fill:#070500;}</style></defs><g id="Layer_3"><rect class="cls-2" width="399.5897" height="202.8925" rx="44.1347" ry="44.1347"/></g><g id="Layer_2-2"><path class="cls-3" d="M38.0888,142.0566c-.1022-2.0967-.0407-4.1575.2549-6.248,2.7774-19.6401,10.2204-55.2141,16.0691-73.9761.2744-.8803.305-1.8466.8101-2.6452l1.3295-.1963c24.7865-.4283,54.6951-3.6225,51.5772,30.6057-2.1069,23.1295-27.7727,28.4226-46.9415,26.5621l-6.5992,25.8978h-16.5ZM65.0842,101.0598c9.9042.6193,21.469.2403,24.3171-11.1858,3.6923-14.8128-6.9673-16.9934-19.2168-15.7193l-5.1003,26.9051Z"/><polygon class="cls-1" points="170.0888 59.0566 167.1559 74.6238 138.0976 75.065 135.0888 94.0566 161.0888 94.0566 158.1559 109.6237 131.2228 110.1872 124.0888 142.0566 106.0888 142.0566 123.0888 59.0566 170.0888 59.0566"/><path class="cls-1" d="M204.2228,109.1872l-6.5923,31.9111-13.5463.9614,16.1035-82.9013c16.3305-.2906,44.018-3.2544,45.9378,19.3543,2.1494,25.3118-20.8167,32.4655-41.9027,30.6745ZM206.0872,98.052c13.8574.5996,28.7462-1.8437,25.9394-19.4389-1.2952-8.1195-14.2306-9.1816-20.8375-8.4536l-5.1019,27.8924Z"/><path class="cls-5" d="M324.0888,81.0566l5.0113,44.9939,22.4751-44.0075c1.6351-1.4557,9.5229-1.3407,12.0358-.9893,1.3816.1932,1.7165-.5565,1.4881,1.4984l-38.1964,69.8184c-8.1946,11.6325-16.1179,16.0527-30.8179,12.6788l2.0508-10.9425c10.7648,1.7962,18.1267-3.1996,21.0236-13.5669l-9.0704-59.4833h14Z"/><path class="cls-4" d="M286.0888,103.0566c1.8258-19.2005-18.2602-14.0453-29.9947-10.005-.2276-11.2256,3.0217-13.0514,13.5111-13.9794,45.1884-3.9976,23.0735,35.9365,22.4884,61.9895l-11.0085-.0065.5036-9.0088c-4.276,7.6864-11.4537,10.4461-20.0424,10.0523-19.6979-.9031-22.5612-25.5923-6.3916-34.4763,2.9145-1.6013,12.4864-4.5659,15.4341-4.5659h15.5ZM272.8833,112.3514c-8.4847.8459-19.9389,4.0911-17.7755,15.1798,2.9181,14.9573,33.0175-.7948,28.5605-14.5386-1.2859-1.7793-8.4217-.8768-10.7849-.6412Z"/></g></svg>