<?xml version="1.0" encoding="UTF-8"?>
<svg version="1.1" xmlns="http://www.w3.org/2000/svg" width="400" height="267">
<path d="M0 0 C132 0 264 0 400 0 C400 88.11 400 176.22 400 267 C268 267 136 267 0 267 C0 178.89 0 90.78 0 0 Z " fill="#FEFEFE" transform="translate(0,0)"/>
<path d="M0 0 C2.71364447 2.14051219 3.88305796 3.29206055 4.45410156 6.74902344 C4.42268066 8.28864746 4.42268066 8.28864746 4.390625 9.859375 C4.37128906 11.53193359 4.37128906 11.53193359 4.3515625 13.23828125 C4.31804687 14.39714844 4.28453125 15.55601562 4.25 16.75 C4.23195313 17.92433594 4.21390625 19.09867188 4.1953125 20.30859375 C4.1481912 23.2065534 4.08241305 26.10286418 4 29 C4.6705542 28.98952637 5.3411084 28.97905273 6.03198242 28.96826172 C9.08378316 28.92656829 12.13552384 28.90063147 15.1875 28.875 C16.24259766 28.85824219 17.29769531 28.84148437 18.38476562 28.82421875 C19.40634766 28.81777344 20.42792969 28.81132812 21.48046875 28.8046875 C22.41785889 28.79421387 23.35524902 28.78374023 24.32104492 28.77294922 C27.25318293 29.02145814 29.37510929 29.68278632 32 31 C34.13999677 35.27999354 33.09321611 40.49048355 32 45 C28.37850418 46.20716527 25.03386348 46.18120284 21.26171875 46.203125 C20.50333206 46.20882507 19.74494537 46.21452515 18.96357727 46.22039795 C17.35895173 46.22983856 15.75430688 46.23637821 14.1496582 46.24023438 C11.70684545 46.24992327 9.26488039 46.2809474 6.82226562 46.3125 C5.26042164 46.31903227 3.69857166 46.32428186 2.13671875 46.328125 C1.41151535 46.3404718 0.68631195 46.3528186 -0.06086731 46.36553955 C-4.93450906 46.34436016 -9.41446775 45.58553225 -13 42 C-13.12585226 39.39218867 -13.18866032 36.81232026 -13.203125 34.203125 C-13.20882507 33.4173407 -13.21452515 32.6315564 -13.22039795 31.82196045 C-13.22986429 30.15410718 -13.23638839 28.48623507 -13.24023438 26.81835938 C-13.24990721 24.27440291 -13.28090043 21.73126549 -13.3125 19.1875 C-13.31903318 17.56771314 -13.32428241 15.94792048 -13.328125 14.328125 C-13.3404718 13.56961243 -13.3528186 12.81109985 -13.36553955 12.02960205 C-13.34661563 7.50754608 -12.81777821 4.58610726 -10 1 C-6.87057535 -0.56471233 -3.38917777 -0.69701958 0 0 Z " fill="#FDC23F" transform="translate(96,122)"/>
<path d="M0 0 C0.80469223 -0.00241196 1.60938446 -0.00482391 2.4384613 -0.00730896 C4.13374782 -0.00633247 5.829067 0.00701417 7.52416992 0.03198242 C10.11682434 0.06634966 12.70607882 0.05261987 15.29882812 0.03320312 C16.94923323 0.04010054 18.59962956 0.04977199 20.25 0.0625 C21.40949913 0.0550602 21.40949913 0.0550602 22.59242249 0.04747009 C25.90372697 0.11986682 28.19636632 0.40903445 31.04907227 2.140625 C33.20019486 5.68651558 33.09372227 8.98478219 33.01953125 13.0078125 C33.01815659 14.22053078 33.01815659 14.22053078 33.01675415 15.45774841 C33.01072321 17.16321704 32.99499228 18.86867532 32.97021484 20.57397461 C32.93367246 23.18578043 32.92919582 25.79616817 32.9296875 28.40820312 C32.91985715 30.06641852 32.90820051 31.72462431 32.89453125 33.3828125 C32.8923056 34.16411026 32.89007996 34.94540802 32.88778687 35.75038147 C32.82099808 39.55905521 32.72060756 41.38588553 30.55859375 44.62890625 C26.05522428 47.27794712 22.47682954 46.75768168 17.55859375 45.62890625 C15.32364836 42.52615052 15.32349013 39.72864686 15.36328125 35.98828125 C15.36972656 34.91835937 15.37617188 33.8484375 15.3828125 32.74609375 C15.39957031 31.63492188 15.41632813 30.52375 15.43359375 29.37890625 C15.44261719 28.25226563 15.45164063 27.125625 15.4609375 25.96484375 C15.48448717 23.1859826 15.51737695 20.40755235 15.55859375 17.62890625 C14.88803955 17.6446167 14.21748535 17.66032715 13.52661133 17.67651367 C10.47485865 17.73905283 7.42324107 17.77795688 4.37109375 17.81640625 C2.78844727 17.85411133 2.78844727 17.85411133 1.17382812 17.89257812 C-0.35854492 17.90708008 -0.35854492 17.90708008 -1.921875 17.921875 C-2.85926514 17.93758545 -3.79665527 17.9532959 -4.76245117 17.96948242 C-7.97396978 17.56120133 -9.83519256 16.51721323 -12.44140625 14.62890625 C-14.01076219 11.49019437 -13.79341728 9.09034803 -13.44140625 5.62890625 C-9.61174469 0.46507025 -6.10712062 -0.10502216 0 0 Z " fill="#FBC346" transform="translate(118.44140625,99.37109375)"/>
<path d="M0 0 C3.20654833 2.26789273 5.33949072 4.0212239 6.6875 7.8125 C7.34255194 12.7544108 7.26934547 16.57898761 5.125 21.125 C1.22815585 25.42152047 -2.32496328 29.03952951 -8.375 29.375 C-12.841444 28.73693657 -14.85074289 27.65883362 -18.3125 24.8125 C-19.26125 24.173125 -20.21 23.53375 -21.1875 22.875 C-24.65448272 17.87846608 -24.33747814 12.68086078 -23.3125 6.8125 C-21.31710235 2.86795565 -18.67285295 0.63587152 -14.9375 -1.625 C-9.13369879 -2.86867169 -5.1395107 -3.00434633 0 0 Z " fill="#203F57" transform="translate(310.3125,108.1875)"/>
<path d="M0 0 C0.66 0 1.32 0 2 0 C2 8.25 2 16.5 2 25 C9.34426744 24.92114154 9.34426744 24.92114154 16.68823242 24.81982422 C18.0703894 24.81233154 18.0703894 24.81233154 19.48046875 24.8046875 C20.41785889 24.79421387 21.35524902 24.78374023 22.32104492 24.77294922 C25.25318293 25.02145814 27.37510929 25.68278632 30 27 C32.13999677 31.27999354 31.09321611 36.49048355 30 41 C26.30459598 42.23180134 22.89696622 42.12412112 19.05078125 42.09765625 C18.27816452 42.0962413 17.50554779 42.09482635 16.70951843 42.09336853 C14.24380611 42.08777466 11.77818485 42.07522333 9.3125 42.0625 C7.63997527 42.05748421 5.96744912 42.05292144 4.29492188 42.04882812 C0.19657954 42.03780724 -3.90169479 42.02054684 -8 42 C-8 41.67 -8 41.34 -8 41 C-6.02 41 -4.04 41 -2 41 C0.03219488 37.59648662 0.36891039 34.6767073 0.625 30.75 C0.69976562 29.67234375 0.77453125 28.5946875 0.8515625 27.484375 C0.90054688 26.66453125 0.94953125 25.8446875 1 25 C0.34 25 -0.32 25 -1 25 C-0.67 16.75 -0.34 8.5 0 0 Z " fill="#FDC64F" transform="translate(98,126)"/>
<path d="M0 0 C0.80943558 -0.00004028 1.61887115 -0.00008057 2.45283508 -0.00012207 C4.15654301 0.00522196 5.86025124 0.0227571 7.5637207 0.05175781 C10.17800622 0.09378577 12.78972898 0.09281084 15.40429688 0.0859375 C17.06121589 0.09642452 18.71812161 0.10936 20.375 0.125 C21.15832199 0.12520142 21.94164398 0.12540283 22.748703 0.12561035 C24.9440918 0.17382812 24.9440918 0.17382812 28.48828125 0.59375 C29.14828125 1.58375 29.80828125 2.57375 30.48828125 3.59375 C26.19828125 2.93375 21.90828125 2.27375 17.48828125 1.59375 C17.46357656 7.09301424 17.44541902 12.59224622 17.43334961 18.09155273 C17.42831846 19.96265221 17.4214929 21.83374775 17.4128418 23.70483398 C17.40072296 26.39307628 17.39504078 29.08126664 17.390625 31.76953125 C17.38546371 32.60712479 17.38030243 33.44471832 17.37498474 34.30769348 C17.37466061 37.65750742 17.4214361 40.39321456 18.48828125 43.59375 C20.48844591 44.80257096 20.48844591 44.80257096 22.48828125 45.59375 C21.49828125 46.08875 21.49828125 46.08875 20.48828125 46.59375 C18.42578125 45.84375 18.42578125 45.84375 16.48828125 44.59375 C15.44880375 41.4753175 15.37333287 39.31899414 15.390625 36.05078125 C15.39384766 34.97763672 15.39707031 33.90449219 15.40039062 32.79882812 C15.40876953 31.67927734 15.41714844 30.55972656 15.42578125 29.40625 C15.43029297 28.27509766 15.43480469 27.14394531 15.43945312 25.97851562 C15.45124627 23.18354073 15.46770475 20.3886718 15.48828125 17.59375 C14.81772705 17.60946045 14.14717285 17.6251709 13.45629883 17.64135742 C10.40454615 17.70389658 7.35292857 17.74280063 4.30078125 17.78125 C2.71813477 17.81895508 2.71813477 17.81895508 1.10351562 17.85742188 C-0.42885742 17.87192383 -0.42885742 17.87192383 -1.9921875 17.88671875 C-2.92957764 17.9024292 -3.86696777 17.91813965 -4.83276367 17.93432617 C-8.04428228 17.52604508 -9.90550506 16.48205698 -12.51171875 14.59375 C-14.08107469 11.45503812 -13.86372978 9.05519178 -13.51171875 5.59375 C-9.66750633 0.39461411 -6.13289313 -0.12936699 0 0 Z " fill="#FDC64D" transform="translate(118.51171875,99.40625)"/>
<path d="M0 0 C4.8673206 2.4336603 7.4768576 5.21030595 10 10 C10.47021922 13.47631491 10.37980056 16.87537732 10.25 20.375 C10.23195312 21.30183594 10.21390625 22.22867188 10.1953125 23.18359375 C10.14844197 25.45681435 10.08285525 27.72785407 10 30 C8.02 30 6.04 30 4 30 C3.98598145 29.11477661 3.98598145 29.11477661 3.97167969 28.21166992 C3.91797343 25.53609795 3.83433148 22.86227447 3.75 20.1875 C3.73582031 19.25873047 3.72164062 18.32996094 3.70703125 17.37304688 C3.67480469 16.48037109 3.64257812 15.58769531 3.609375 14.66796875 C3.58842773 13.84578857 3.56748047 13.0236084 3.54589844 12.17651367 C3.16179173 9.85078501 3.16179173 9.85078501 1.18847656 8.20043945 C-2.12587449 6.38242694 -4.43341102 7.07532878 -8 8 C-10.05127844 11.07691766 -10.27260872 11.93644999 -10.4140625 15.44921875 C-10.45273438 16.29677734 -10.49140625 17.14433594 -10.53125 18.01757812 C-10.57765625 19.33918945 -10.57765625 19.33918945 -10.625 20.6875 C-10.66367188 21.58017578 -10.70234375 22.47285156 -10.7421875 23.39257812 C-10.83640218 25.5948462 -10.92201588 27.79710722 -11 30 C-12.98 30 -14.96 30 -17 30 C-17.11698258 26.79197767 -17.18750607 23.58450975 -17.25 20.375 C-17.28351563 19.47136719 -17.31703125 18.56773438 -17.3515625 17.63671875 C-17.45633276 10.45995572 -15.73578795 6.88777617 -10.75 1.625 C-7.13133645 -0.51330119 -4.05014592 -0.77979234 0 0 Z " fill="#1A3952" transform="translate(240,106)"/>
<path d="M0 0 C3.1875 -0.5 3.1875 -0.5 7 0 C9.15024236 2.42700622 10.59103494 5.09116891 12 8 C14.12038635 5.38485683 16.13091744 2.80362384 18 0 C21.625 -0.1875 21.625 -0.1875 25 0 C24.2368139 1.60781893 23.46412942 3.21113138 22.6875 4.8125 C22.25824219 5.70582031 21.82898438 6.59914063 21.38671875 7.51953125 C20.10421225 9.81359217 18.85263527 11.18888037 17 13 C16.67 13.99 16.34 14.98 16 16 C16.66 16 17.32 16 18 16 C19.7265625 18.08203125 19.7265625 18.08203125 21.625 20.8125 C22.25664062 21.70582031 22.88828125 22.59914062 23.5390625 23.51953125 C25 26 25 26 25 29 C22.3125 29.4375 22.3125 29.4375 19 29 C16.89292415 26.92559199 15.34439148 24.62929661 14 22 C14 21.34 14 20.68 14 20 C11.03595495 22.80804268 8.55500981 25.18315774 7 29 C4.69 29 2.38 29 0 29 C1.10669149 25.67992553 2.50625625 23.30914161 4.6875 20.625 C6.67072896 17.89215771 6.99427888 17.10488728 7.1875 13.5625 C5.84493708 9.53481123 3.97522646 6.93033004 1.27734375 3.69921875 C0 2 0 2 0 0 Z " fill="#123453" transform="translate(257,107)"/>
<path d="M0 0 C1.98 0 3.96 0 6 0 C6 10.89 6 21.78 6 33 C11.94 33 17.88 33 24 33 C24 34.98 24 36.96 24 39 C16.08 39 8.16 39 0 39 C0 26.13 0 13.26 0 0 Z " fill="#0B2E4C" transform="translate(176,97)"/>
<path d="M0 0 C3.4375 1.9375 3.4375 1.9375 6 5 C6.99979267 9.28918686 6.77260669 12.71232218 4.5 16.5 C1.07702955 18.55378227 -1.99214384 19.50098202 -6 19 C-8.9375 16.625 -8.9375 16.625 -11 14 C-11.33 13.67 -11.66 13.34 -12 13 C-12.43360507 9.94618141 -12.46397717 7.05051655 -12 4 C-8.56466286 -0.26814615 -5.30731047 -0.83799639 0 0 Z " fill="#F2F7F9" transform="translate(305,112)"/>
<path d="M0 0 C8.78723404 -0.29787234 8.78723404 -0.29787234 13 2 C14.16343227 4.32686453 14.19895988 5.84721413 14.25 8.4375 C14.28867188 9.61119141 14.28867188 9.61119141 14.328125 10.80859375 C14 13 14 13 12.87109375 14.7734375 C10.15597946 16.55328277 8.02124971 16.29100806 4.8125 16.1875 C3.72582031 16.16042969 2.63914063 16.13335937 1.51953125 16.10546875 C0.27236328 16.05326172 0.27236328 16.05326172 -1 16 C-1.02701408 13.89590361 -1.04640223 11.79170822 -1.0625 9.6875 C-1.07410156 8.51574219 -1.08570313 7.34398438 -1.09765625 6.13671875 C-1 3 -1 3 0 0 Z " fill="#FCB416" transform="translate(136,101)"/>
<path d="M0 0 C0.99386719 0.02707031 1.98773438 0.05414063 3.01171875 0.08203125 C4.15060547 0.13423828 4.15060547 0.13423828 5.3125 0.1875 C5.39383791 2.10345968 5.45184367 4.02041932 5.5 5.9375 C5.53480469 7.00484375 5.56960937 8.0721875 5.60546875 9.171875 C5.27808334 12.54176215 4.76457736 13.87869008 2.3125 16.1875 C0.375 16.68359375 0.375 16.68359375 -1.6875 16.625 C-2.7084375 16.62306641 -2.7084375 16.62306641 -3.75 16.62109375 C-6.29559319 16.05141463 -7.17552363 15.30704969 -8.6875 13.1875 C-9.0859375 10.8125 -9.0859375 10.8125 -9.0625 8.1875 C-9.07023437 7.32125 -9.07796875 6.455 -9.0859375 5.5625 C-8.6875 3.1875 -8.6875 3.1875 -7.51953125 1.38671875 C-4.9457603 -0.2980311 -3.04484138 -0.10746499 0 0 Z " fill="#FBB317" transform="translate(93.6875,150.8125)"/>
<path d="M0 0 C2.31 0 4.62 0 7 0 C7 9.57 7 19.14 7 29 C4.69 29 2.38 29 0 29 C0 19.43 0 9.86 0 0 Z " fill="#304D66" transform="translate(208,107)"/>
<path d="M0 0 C2.4375 1.5625 2.4375 1.5625 4 4 C4.72468526 8.42863214 4.49454049 10.28066838 1.9375 14 C-1 16 -1 16 -4.625 16.0625 C-8 15 -8 15 -9.9375 13.375 C-11.43699866 10.02317947 -11.45377473 7.63019782 -11 4 C-8.11188513 -0.5054592 -5.11821063 -0.73117295 0 0 Z " fill="#2B4156" transform="translate(209,157)"/>
<path d="M0 0 C0.80943558 -0.00004028 1.61887115 -0.00008057 2.45283508 -0.00012207 C4.15654301 0.00522196 5.86025124 0.0227571 7.5637207 0.05175781 C10.17800622 0.09378577 12.78972898 0.09281084 15.40429688 0.0859375 C17.06121589 0.09642452 18.71812161 0.10936 20.375 0.125 C21.15832199 0.12520142 21.94164398 0.12540283 22.748703 0.12561035 C24.9440918 0.17382812 24.9440918 0.17382812 28.48828125 0.59375 C29.14828125 1.58375 29.80828125 2.57375 30.48828125 3.59375 C29.81772705 3.43527588 29.14717285 3.27680176 28.45629883 3.11352539 C24.94683237 2.49892852 21.56200974 2.37668267 18 2.27734375 C16.94520195 2.2461721 16.94520195 2.2461721 15.86909485 2.21437073 C13.63808308 2.14934885 11.40696056 2.09021224 9.17578125 2.03125 C7.65688991 1.98801964 6.13800948 1.94440395 4.61914062 1.90039062 C0.90897005 1.79371666 -2.80132296 1.69231779 -6.51171875 1.59375 C-6.51171875 2.25375 -6.51171875 2.91375 -6.51171875 3.59375 C-8.49171875 4.58375 -8.49171875 4.58375 -10.51171875 5.59375 C-10.58599713 8.93627724 -10.57718828 11.3973414 -9.51171875 14.59375 C-1.26171875 14.59375 6.98828125 14.59375 15.48828125 14.59375 C16.76414111 17.14546972 16.68094326 19.07969411 16.76953125 21.93359375 C16.80691406 22.99642578 16.84429687 24.05925781 16.8828125 25.15429688 C16.93501953 26.82588867 16.93501953 26.82588867 16.98828125 28.53125 C17.05712877 30.72799589 17.12986878 32.92462421 17.20703125 35.12109375 C17.23732422 36.09812256 17.26761719 37.07515137 17.29882812 38.08178711 C17.39515062 40.72099944 17.39515062 40.72099944 18.48828125 43.59375 C20.48844591 44.80257096 20.48844591 44.80257096 22.48828125 45.59375 C21.49828125 46.08875 21.49828125 46.08875 20.48828125 46.59375 C18.42578125 45.84375 18.42578125 45.84375 16.48828125 44.59375 C15.44880375 41.4753175 15.37333287 39.31899414 15.390625 36.05078125 C15.39384766 34.97763672 15.39707031 33.90449219 15.40039062 32.79882812 C15.40876953 31.67927734 15.41714844 30.55972656 15.42578125 29.40625 C15.43029297 28.27509766 15.43480469 27.14394531 15.43945312 25.97851562 C15.45124627 23.18354073 15.46770475 20.3886718 15.48828125 17.59375 C14.81772705 17.60946045 14.14717285 17.6251709 13.45629883 17.64135742 C10.40454615 17.70389658 7.35292857 17.74280063 4.30078125 17.78125 C2.71813477 17.81895508 2.71813477 17.81895508 1.10351562 17.85742188 C-0.42885742 17.87192383 -0.42885742 17.87192383 -1.9921875 17.88671875 C-2.92957764 17.9024292 -3.86696777 17.91813965 -4.83276367 17.93432617 C-8.04428228 17.52604508 -9.90550506 16.48205698 -12.51171875 14.59375 C-14.08107469 11.45503812 -13.86372978 9.05519178 -13.51171875 5.59375 C-9.66750633 0.39461411 -6.13289313 -0.12936699 0 0 Z " fill="#F8D480" transform="translate(118.51171875,99.40625)"/>
<path d="M0 0 C5.44412075 -0.19832862 10.88612446 -0.34318442 16.33300781 -0.43945312 C18.18396644 -0.47959284 20.03467282 -0.53412078 21.88476562 -0.60351562 C37.21988059 -1.16415424 37.21988059 -1.16415424 41.61621094 1.7109375 C43.28975642 3.82488969 44.33477366 5.38944288 45 8 C44.67 8.99 44.34 9.98 44 11 C43.88363684 13.20117315 43.8214133 15.40536569 43.7890625 17.609375 C43.74652344 19.57777344 43.74652344 19.57777344 43.703125 21.5859375 C43.66201933 23.66373148 43.62511084 25.74130128 43.59863281 27.81933594 C43.57078666 29.83290089 43.52383927 31.84617254 43.4765625 33.859375 C43.45674316 35.06045898 43.43692383 36.26154297 43.41650391 37.49902344 C42.9418104 41.48912008 41.95863608 46.04136392 39 49 C37.35659133 49.09854655 35.7088539 49.12972411 34.0625 49.125 C33.16660156 49.12757813 32.27070313 49.13015625 31.34765625 49.1328125 C29 49 29 49 27 48 C27 47.34 27 46.68 27 46 C28.051875 46.04125 29.10375 46.0825 30.1875 46.125 C33.75906093 46.00789964 35.87804309 45.65280072 39 44 C40.59871569 40.80256861 40.18421681 37.32940884 40.203125 33.81640625 C40.21167511 32.59944313 40.21167511 32.59944313 40.22039795 31.3578949 C40.22984986 29.64054673 40.23638269 27.92318041 40.24023438 26.20581055 C40.24994887 23.57633951 40.28097318 20.94764717 40.3125 18.31835938 C40.31902918 16.65104632 40.32427998 14.98372766 40.328125 13.31640625 C40.3404718 12.52883438 40.3528186 11.74126251 40.36553955 10.92982483 C40.35374354 8.04445228 40.31188242 5.62223639 39.00366211 3.01220703 C35.69736115 1.34193485 32.23922844 1.51746767 28.61328125 1.48828125 C27.79627243 1.47033005 26.97926361 1.45237885 26.13749695 1.43388367 C23.52921706 1.37972212 20.92112075 1.34586692 18.3125 1.3125 C16.54359421 1.27933201 14.77471267 1.24484283 13.00585938 1.20898438 C8.67070527 1.12399254 4.33560616 1.05720965 0 1 C0 0.67 0 0.34 0 0 Z " fill="#FEF4D1" transform="translate(110,99)"/>
<path d="M0 0 C2.19584353 2.19584353 2.49221686 3.02352649 3 6 C2.99470575 7.47974393 2.95183314 8.95974264 2.875 10.4375 C2.81487093 14.5129148 3.59757964 16.6366115 6 20 C6.33 21.32 6.66 22.64 7 24 C9.64 24.66 12.28 25.32 15 26 C15 26.33 15 26.66 15 27 C8.86468736 27.42312501 5.92205244 27.0470209 1 23 C0.05125 22.360625 -0.8975 21.72125 -1.875 21.0625 C-5.24589293 16.20444842 -5.02762973 10.72637806 -4 5 C-1.96484375 2.09375 -1.96484375 2.09375 0 0 Z " fill="#1D3C53" transform="translate(291,110)"/>
<path d="M0 0 C1.32 0 2.64 0 4 0 C6.25 3 6.25 3 8 6 C8.33 4.02 8.66 2.04 9 0 C10.32 0 11.64 0 13 0 C13 5.28 13 10.56 13 16 C11.68 16 10.36 16 9 16 C7.35 13.03 5.7 10.06 4 7 C3.67 9.64 3.34 12.28 3 15 C2.01 15 1.02 15 0 15 C0 10.05 0 5.1 0 0 Z " fill="#354C5E" transform="translate(221,157)"/>
<path d="M0 0 C0.33 0 0.66 0 1 0 C1 12.54 1 25.08 1 38 C3.475 37.505 3.475 37.505 6 37 C6 35.68 6 34.36 6 33 C11.94 33 17.88 33 24 33 C24 34.98 24 36.96 24 39 C16.08 39 8.16 39 0 39 C0 26.13 0 13.26 0 0 Z " fill="#2B4A64" transform="translate(176,97)"/>
<path d="M0 0 C1.32 0 2.64 0 4 0 C5.32 2.31 6.64 4.62 8 7 C8.33 4.69 8.66 2.38 9 0 C9.99 0 10.98 0 12 0 C12 4.95 12 9.9 12 15 C10.68 15 9.36 15 8 15 C6.68 12.36 5.36 9.72 4 7 C3.67 9.64 3.34 12.28 3 15 C2.01 15 1.02 15 0 15 C0 10.05 0 5.1 0 0 Z " fill="#1E3A4C" transform="translate(243,157)"/>
<path d="M0 0 C3.63 0 7.26 0 11 0 C11 0.99 11 1.98 11 3 C8.69 3 6.38 3 4 3 C4 3.99 4 4.98 4 6 C6.31 6 8.62 6 11 6 C11 6.99 11 7.98 11 9 C8.69 9 6.38 9 4 9 C4 9.99 4 10.98 4 12 C6.31 12 8.62 12 11 12 C11 12.99 11 13.98 11 15 C7.37 15 3.74 15 0 15 C0 10.05 0 5.1 0 0 Z " fill="#3E5567" transform="translate(264,157)"/>
<path d="M0 0 C0.66 1.32 1.32 2.64 2 4 C0.68 4.33 -0.64 4.66 -2 5 C-2 4.34 -2 3.68 -2 3 C-3.98 3.33 -5.96 3.66 -8 4 C-8 6.31 -8 8.62 -8 11 C-5.08517222 11.80967438 -3.53886783 12.21845993 -0.6875 11.0625 C-0.130625 10.711875 0.42625 10.36125 1 10 C1.33 10.66 1.66 11.32 2 12 C0.9375 14 0.9375 14 -1 16 C-5.38290313 16.73048385 -7.27797254 16.50695545 -10.9375 13.9375 C-13.52001338 10.25937488 -13.72125695 8.40768137 -13 4 C-9.93472556 -1.19763927 -5.39221271 -0.41478559 0 0 Z " fill="#3D5467" transform="translate(295,157)"/>
<path d="M0 0 C1.32 0 2.64 0 4 0 C6.26598448 3.39897673 6.23742654 4.56319173 6.1953125 8.54296875 C6.18886719 9.61611328 6.18242188 10.68925781 6.17578125 11.79492188 C6.15902344 12.91447266 6.14226562 14.03402344 6.125 15.1875 C6.11597656 16.31865234 6.10695313 17.44980469 6.09765625 18.61523438 C6.07406862 21.41036828 6.041153 24.20507845 6 27 C6.68626465 26.99476318 7.3725293 26.98952637 8.07958984 26.98413086 C11.17805064 26.96339044 14.27649686 26.95034924 17.375 26.9375 C18.45523438 26.92912109 19.53546875 26.92074219 20.6484375 26.91210938 C22.1953125 26.90727539 22.1953125 26.90727539 23.7734375 26.90234375 C24.72653809 26.89710693 25.67963867 26.89187012 26.66162109 26.88647461 C29 27 29 27 31 28 C30.67 28.99 30.34 29.98 30 31 C29.01 30.67 28.02 30.34 27 30 C25.22833025 29.85164052 23.45232388 29.75229982 21.67578125 29.68359375 C20.74934814 29.64548584 19.82291504 29.60737793 18.8684082 29.56811523 C17.6949585 29.52501221 16.52150879 29.48190918 15.3125 29.4375 C9.7128125 29.2209375 9.7128125 29.2209375 4 29 C4 20.75 4 12.5 4 4 C2.68 3.34 1.36 2.68 0 2 C0 1.34 0 0.68 0 0 Z " fill="#FEF3CA" transform="translate(96,122)"/>
<path d="M0 0 C0.99 0.66 1.98 1.32 3 2 C3 2.99 3 3.98 3 5 C2.01 5 1.02 5 0 5 C0 4.34 0 3.68 0 3 C-2.31 3.66 -4.62 4.32 -7 5 C-7 6.98 -7 8.96 -7 11 C-4.03 11.495 -4.03 11.495 -1 12 C-0.67 11.34 -0.34 10.68 0 10 C0.99 10 1.98 10 3 10 C2.42655063 12.86724686 2.1385485 13.8614515 0 16 C-4.01298073 16.62424145 -5.54095495 16.32931492 -8.875 13.9375 C-11.52580508 10.27315181 -11.64496629 8.43414325 -11 4 C-8.2730382 -0.9345023 -5.23446983 -1.4394792 0 0 Z " fill="#223648" transform="translate(188,157)"/>
<path d="M0 0 C0 0.33 0 0.66 0 1 C-1.093125 1.226875 -2.18625 1.45375 -3.3125 1.6875 C-7.00345171 2.64804926 -7.00345171 2.64804926 -8.7121582 5.05932617 C-10.37865443 8.8646242 -10.37578702 12.28945725 -10.29296875 16.36328125 C-10.28872391 17.15526413 -10.28447906 17.94724701 -10.28010559 18.76322937 C-10.26338163 21.28000627 -10.22574225 23.79596724 -10.1875 26.3125 C-10.17244499 28.02407693 -10.15875801 29.73566649 -10.14648438 31.44726562 C-10.11349885 35.63182233 -10.06176098 39.81577307 -10 44 C-10.99 43.34 -11.98 42.68 -13 42 C-13.30452383 39.29165313 -13.42005327 36.81584594 -13.3984375 34.10546875 C-13.40130768 33.3210994 -13.40417786 32.53673004 -13.40713501 31.72859192 C-13.40917847 30.06669393 -13.40362892 28.40477204 -13.39111328 26.74291992 C-13.37512685 24.20761693 -13.39091803 21.67392368 -13.41015625 19.13867188 C-13.40817261 17.52343399 -13.40432642 15.90819711 -13.3984375 14.29296875 C-13.40451019 13.53759323 -13.41058289 12.78221771 -13.4168396 12.00395203 C-13.35723292 7.50396497 -12.79619961 4.57225806 -10 1 C-6.78548731 -0.60725635 -3.56387464 -0.05748185 0 0 Z " fill="#F6CD69" transform="translate(96,122)"/>
<path d="M0 0 C3.96 0 7.92 0 12 0 C12 0.33 12 0.66 12 1 C11.30132812 1.09796875 10.60265625 1.1959375 9.8828125 1.296875 C8.97273438 1.44640625 8.06265625 1.5959375 7.125 1.75 C6.22007813 1.88921875 5.31515625 2.0284375 4.3828125 2.171875 C1.94879144 2.76474014 1.94879144 2.76474014 0.87695312 4.53515625 C-0.38092817 8.07067117 -0.35817142 11.55537367 -0.4140625 15.265625 C-0.43342865 16.05902283 -0.4527948 16.85242065 -0.4727478 17.66986084 C-0.53238361 20.19646557 -0.57886443 22.72311625 -0.625 25.25 C-0.66319455 26.96616537 -0.70224715 28.68231187 -0.7421875 30.3984375 C-0.83807186 34.59880456 -0.92216167 38.79926134 -1 43 C-1.33 43 -1.66 43 -2 43 C-2.80599673 33.88935842 -3.10787476 24.83309376 -3.125 15.6875 C-3.12951172 14.66712646 -3.13402344 13.64675293 -3.13867188 12.59545898 C-3.13673828 11.63969971 -3.13480469 10.68394043 -3.1328125 9.69921875 C-3.13168457 8.84158936 -3.13055664 7.98395996 -3.12939453 7.1003418 C-3 5 -3 5 -2 3 C-1.34 3 -0.68 3 0 3 C0 2.01 0 1.02 0 0 Z " fill="#FEF7D6" transform="translate(84,121)"/>
<path d="M0 0 C3.875 1.75 3.875 1.75 5 4 C5.08400529 5.59447464 5.10727467 7.19240545 5.09765625 8.7890625 C5.09282227 10.20058594 5.09282227 10.20058594 5.08789062 11.640625 C5.07951172 12.62546875 5.07113281 13.6103125 5.0625 14.625 C5.05798828 15.61757812 5.05347656 16.61015625 5.04882812 17.6328125 C5.03702145 20.0886016 5.020554 22.54427104 5 25 C3.68 25 2.36 25 1 25 C0.9729797 22.24993392 0.95315117 19.50013454 0.9375 16.75 C0.92912109 15.97269531 0.92074219 15.19539063 0.91210938 14.39453125 C0.90888672 13.64042969 0.90566406 12.88632813 0.90234375 12.109375 C0.89710693 11.41811523 0.89187012 10.72685547 0.88647461 10.01464844 C1.00573165 7.89828487 1.45948991 6.04448008 2 4 C2 3.34 2 2.68 2 2 C1.34 2 0.68 2 0 2 C0 1.34 0 0.68 0 0 Z " fill="#0C2D49" transform="translate(244,110)"/>
<path d="M0 0 C0 1.65 0 3.3 0 5 C-3.69540402 6.23180134 -7.10303378 6.12412112 -10.94921875 6.09765625 C-11.72183548 6.0962413 -12.49445221 6.09482635 -13.29048157 6.09336853 C-15.75619389 6.08777466 -18.22181515 6.07522333 -20.6875 6.0625 C-22.36002473 6.05748421 -24.03255088 6.05292144 -25.70507812 6.04882812 C-29.80342046 6.03780724 -33.90169479 6.02054684 -38 6 C-38 5.67 -38 5.34 -38 5 C-37.10168457 4.9498877 -36.20336914 4.89977539 -35.27783203 4.84814453 C-31.94886224 4.65800392 -28.62060798 4.45953673 -25.29248047 4.25537109 C-23.85127201 4.1686843 -22.40985893 4.0853329 -20.96826172 4.00537109 C-18.89748432 3.88993202 -16.82773632 3.76256197 -14.7578125 3.6328125 C-13.5114502 3.55949707 -12.26508789 3.48618164 -10.98095703 3.41064453 C-7.88763249 3.29029559 -7.88763249 3.29029559 -6 1 C-1.9 0 -1.9 0 0 0 Z " fill="#F7D376" transform="translate(128,162)"/>
<path d="M0 0 C0.99 0.495 0.99 0.495 2 1 C2 10.9 2 20.8 2 31 C7.28 31.33 12.56 31.66 18 32 C18 32.33 18 32.66 18 33 C12.06 33 6.12 33 0 33 C0 22.11 0 11.22 0 0 Z " fill="#D3E2EB" transform="translate(182,97)"/>
<path d="M0 0 C4.29 0 8.58 0 13 0 C13 0.99 13 1.98 13 3 C11.35 3 9.7 3 8 3 C8 7.29 8 11.58 8 16 C7.01 16 6.02 16 5 16 C5 11.71 5 7.42 5 3 C3.35 3 1.7 3 0 3 C0 2.01 0 1.02 0 0 Z " fill="#31495B" transform="translate(303,157)"/>
<path d="M0 0 C3.125 -0.625 3.125 -0.625 7 0 C9.49515761 3.08511895 11.26536376 6.44177181 13 10 C12.34 10.66 11.68 11.32 11 12 C10.34 12 9.68 12 9 12 C8.67 13.32 8.34 14.64 8 16 C7.75765625 15.40832031 7.5153125 14.81664063 7.265625 14.20703125 C5.29701264 9.56564904 3.287113 5.87409746 0 2 C0 1.34 0 0.68 0 0 Z " fill="#12304A" transform="translate(257,107)"/>
<path d="M0 0 C0.66 0 1.32 0 2 0 C2 5.28 2 10.56 2 16 C0.35 16 -1.3 16 -3 16 C-3 16.66 -3 17.32 -3 18 C-7.455 17.01 -7.455 17.01 -12 16 C-11.01 15.67 -10.02 15.34 -9 15 C-9 12.03 -9 9.06 -9 6 C-5.96130589 7.51934706 -5.35589694 9.98004772 -4 13 C-4 13.66 -4 14.32 -4 15 C-2.68 15 -1.36 15 0 15 C0 10.05 0 5.1 0 0 Z " fill="#D0DAE4" transform="translate(255,157)"/>
<path d="M0 0 C2.5 0.25 2.5 0.25 4.5 2.25 C4.125 5.875 4.125 5.875 3.5 9.25 C1.52 9.58 -0.46 9.91 -2.5 10.25 C-4.64915785 7.02626323 -4.88286803 5.98296326 -4.5 2.25 C-2.5 0.25 -2.5 0.25 0 0 Z " fill="#D7E5ED" transform="translate(205.5,159.75)"/>
<path d="M0 0 C5.61 0 11.22 0 17 0 C15 4 15 4 12 6 C5.05055811 6.55154301 5.05055811 6.55154301 1.5 4.6875 C0 3 0 3 0 0 Z " fill="#092E4E" transform="translate(296,130)"/>
<path d="M0 0 C0.33 0 0.66 0 1 0 C1.12541806 4.51505017 1.12541806 4.51505017 0.53125 6.8125 C-0.11100478 9.4570785 -0.33657952 12.03895424 -0.5625 14.75 C-0.64628906 15.73484375 -0.73007813 16.7196875 -0.81640625 17.734375 C-0.87699219 18.48203125 -0.93757812 19.2296875 -1 20 C-0.34 20 0.32 20 1 20 C1.33 19.01 1.66 18.02 2 17 C2.33 19.64 2.66 22.28 3 25 C1.02 25 -0.96 25 -3 25 C-3.0875127 21.77100574 -3.14056146 18.54231884 -3.1875 15.3125 C-3.21263672 14.40048828 -3.23777344 13.48847656 -3.26367188 12.54882812 C-3.31798713 7.56992966 -3.34955169 4.00765 0 0 Z " fill="#2C4961" transform="translate(226,111)"/>
<path d="M0 0 C0.94875 0.04125 1.8975 0.0825 2.875 0.125 C2.689375 1.053125 2.50375 1.98125 2.3125 2.9375 C1.63376119 6.13843771 1.63376119 6.13843771 2.875 9.125 C0.5625 9.75 0.5625 9.75 -2.125 10.125 C-3.115 9.465 -4.105 8.805 -5.125 8.125 C-5.4375 5.125 -5.4375 5.125 -5.125 2.125 C-3.125 0.125 -3.125 0.125 0 0 Z " fill="#E6F0F3" transform="translate(185.125,159.875)"/>
<path d="M0 0 C2.97 0 5.94 0 9 0 C9 0.99 9 1.98 9 3 C6.69 3 4.38 3 2 3 C2 3.99 2 4.98 2 6 C4.31 6 6.62 6 9 6 C9 6.99 9 7.98 9 9 C6.03 9 3.06 9 0 9 C0 6.03 0 3.06 0 0 Z " fill="#334757" transform="translate(266,163)"/>
<path d="M0 0 C1.32 0 2.64 0 4 0 C6 3 6 3 6 6 C5.01 6 4.02 6 3 6 C3 8.97 3 11.94 3 15 C2.01 15 1.02 15 0 15 C0 10.05 0 5.1 0 0 Z " fill="#243C4F" transform="translate(221,157)"/>
<path d="M0 0 C0.66 1.32 1.32 2.64 2 4 C0.68 4.33 -0.64 4.66 -2 5 C-2 4.34 -2 3.68 -2 3 C-3.98 3.33 -5.96 3.66 -8 4 C-8.33 5.98 -8.66 7.96 -9 10 C-9.66 8.68 -10.32 7.36 -11 6 C-11.33 7.65 -11.66 9.3 -12 11 C-12.33 11 -12.66 11 -13 11 C-13.47633136 4.80769231 -13.47633136 4.80769231 -11.5625 1.5625 C-7.78993176 -0.73784649 -4.30933841 -0.33148757 0 0 Z " fill="#5A6F7F" transform="translate(295,157)"/>
<path d="M0 0 C3.72910066 -0.0582462 7.45808364 -0.09367917 11.1875 -0.125 C12.24259766 -0.14175781 13.29769531 -0.15851563 14.38476562 -0.17578125 C15.91713867 -0.18544922 15.91713867 -0.18544922 17.48046875 -0.1953125 C18.41785889 -0.20578613 19.35524902 -0.21625977 20.32104492 -0.22705078 C23.21630812 0.01833287 25.37062697 0.79478381 28 2 C28 2.66 28 3.32 28 4 C27.2783667 3.83628906 26.5567334 3.67257813 25.81323242 3.50390625 C23.1177017 3.02108273 20.72046945 2.89980381 17.98828125 2.9375 C17.06595703 2.94523438 16.14363281 2.95296875 15.19335938 2.9609375 C14.24267578 2.97382813 13.29199219 2.98671875 12.3125 3 C10.41281663 3.02544787 8.5130677 3.0465018 6.61328125 3.0625 C5.77579346 3.07410156 4.93830566 3.08570313 4.07543945 3.09765625 C2 3 2 3 0 2 C0 1.34 0 0.68 0 0 Z " fill="#F1CA67" transform="translate(100,151)"/>
<path d="M0 0 C0.66 0 1.32 0 2 0 C2 8.25 2 16.5 2 25 C1.01 25 0.02 25 -1 25 C-0.67 16.75 -0.34 8.5 0 0 Z " fill="#F6C95A" transform="translate(98,126)"/>
<path d="M0 0 C6.25 -0.48076923 6.25 -0.48076923 9.4375 1.5625 C11.56667558 4.88401391 11.42255137 7.12661246 11 11 C10.01 12.485 10.01 12.485 9 14 C8.01 13.67 7.02 13.34 6 13 C6.390625 10.02148438 6.390625 10.02148438 6.78125 7.04296875 C7.053233 4.84528294 7.053233 4.84528294 7 2 C4.69 2 2.38 2 0 2 C0 1.34 0 0.68 0 0 Z " fill="#1F3549" transform="translate(202,157)"/>
<path d="M0 0 C1.5778125 0.2475 1.5778125 0.2475 3.1875 0.5 C1.5375 3.8 -0.1125 7.1 -1.8125 10.5 C-2.1425 10.5 -2.4725 10.5 -2.8125 10.5 C-3.1425 8.85 -3.4725 7.2 -3.8125 5.5 C-4.4725 6.82 -5.1325 8.14 -5.8125 9.5 C-6.8025 9.17 -7.7925 8.84 -8.8125 8.5 C-5.01381291 0.65754923 -5.01381291 0.65754923 0 0 Z " fill="#27415B" transform="translate(278.8125,106.5)"/>
<path d="M0 0 C5.23271569 -0.07403712 10.46512801 -0.12854783 15.69824219 -0.16479492 C17.47922067 -0.17990173 19.26016184 -0.20038835 21.04101562 -0.22631836 C23.59774978 -0.26261943 26.1539931 -0.27970688 28.7109375 -0.29296875 C29.90944839 -0.31619453 29.90944839 -0.31619453 31.13217163 -0.33988953 C33.37646484 -0.34057617 33.37646484 -0.34057617 37 0 C37.66 0.99 38.32 1.98 39 3 C38.3294458 2.84152588 37.6588916 2.68305176 36.96801758 2.51977539 C33.45855112 1.90517852 30.07372849 1.78293267 26.51171875 1.68359375 C25.4569207 1.6524221 25.4569207 1.6524221 24.3808136 1.62062073 C22.14980183 1.55559885 19.91867931 1.49646224 17.6875 1.4375 C16.16860866 1.39426964 14.64972823 1.35065395 13.13085938 1.30664062 C9.4206888 1.19996666 5.71039579 1.09856779 2 1 C2 1.66 2 2.32 2 3 C0.68 3.33 -0.64 3.66 -2 4 C-1.34 2.68 -0.68 1.36 0 0 Z " fill="#F3C760" transform="translate(110,100)"/>
<path d="M0 0 C0.99 0.33 1.98 0.66 3 1 C2.27490234 1.98226562 2.27490234 1.98226562 1.53515625 2.984375 C-0.37846917 6.74345597 -0.48456171 10.12298216 -0.5625 14.25 C-0.624522 16.85951832 -0.76512657 19.39558069 -1 22 C-1.66 22.33 -2.32 22.66 -3 23 C-3.08733513 19.91684615 -3.14050127 16.83401173 -3.1875 13.75 C-3.21263672 12.87730469 -3.23777344 12.00460938 -3.26367188 11.10546875 C-3.33834499 4.58401668 -3.33834499 4.58401668 -1.48828125 1.390625 C-0.99714844 0.93171875 -0.50601563 0.4728125 0 0 Z " fill="#C6D5E0" transform="translate(232,113)"/>
<path d="M0 0 C3.73487777 0.4979837 5.81237635 0.87491756 9 3 C9 3.66 9 4.32 9 5 C5.65747276 5.07427838 3.1964086 5.06546953 0 4 C-2.07647876 4.30806453 -2.07647876 4.30806453 -4.1875 4.9375 C-5.445625 5.288125 -6.70375 5.63875 -8 6 C-8.33 5.01 -8.66 4.02 -9 3 C-5.92382812 2.70703125 -5.92382812 2.70703125 -2.84765625 2.4140625 C-2.23792969 2.27742188 -1.62820313 2.14078125 -1 2 C-0.67 1.34 -0.34 0.68 0 0 Z " fill="#113450" transform="translate(304,107)"/>
<path d="M0 0 C0.66 0.99 1.32 1.98 2 3 C1.67 3.66 1.34 4.32 1 5 C0.67 4.67 0.34 4.34 0 4 C0.185625 4.94875 0.37125 5.8975 0.5625 6.875 C1 10 1 10 0 12 C-2.31 12 -4.62 12 -7 12 C-5.44298069 7.32894208 -2.91552627 3.91294315 0 0 Z " fill="#26425B" transform="translate(264,124)"/>
<path d="M0 0 C0.33 0 0.66 0 1 0 C1.33 1.98 1.66 3.96 2 6 C2.66 5.67 3.32 5.34 4 5 C4.6875 7.3125 4.6875 7.3125 5 10 C3.8125 11.65625 3.8125 11.65625 2 13 C-0.26171875 13.29296875 -0.26171875 13.29296875 -2.6875 13.1875 C-3.89986328 13.14689453 -3.89986328 13.14689453 -5.13671875 13.10546875 C-5.75160156 13.07066406 -6.36648438 13.03585938 -7 13 C-6.195625 12.360625 -5.39125 11.72125 -4.5625 11.0625 C-1.28309034 8.42297515 -0.89018318 8.0116486 -0.4375 3.9375 C-0.293125 2.638125 -0.14875 1.33875 0 0 Z " fill="#21435E" transform="translate(311,118)"/>
<path d="M0 0 C12.87 0 25.74 0 39 0 C39.66 1.65 40.32 3.3 41 5 C40.51499023 4.5155542 40.02998047 4.0311084 39.53027344 3.53198242 C35.96785411 1.3750757 32.56386674 1.5210801 28.515625 1.48828125 C27.70003113 1.47033005 26.88443726 1.45237885 26.04412842 1.43388367 C23.44613777 1.3798198 20.84833042 1.34589818 18.25 1.3125 C16.4856516 1.27932339 14.72132737 1.24483341 12.95703125 1.20898438 C8.63815317 1.1240958 4.31932908 1.05726623 0 1 C0 0.67 0 0.34 0 0 Z " fill="#FFE8BD" transform="translate(110,99)"/>
<path d="M0 0 C2.00720923 0.28674418 4.0085944 0.61866701 6 1 C6.125 3.375 6.125 3.375 6 6 C5.34 6.66 4.68 7.32 4 8 C0.46428571 7.46428571 0.46428571 7.46428571 -1 6 C-1.125 3.5 -1.125 3.5 -1 1 C-0.67 0.67 -0.34 0.34 0 0 Z " fill="#203E56" transform="translate(209,95)"/>
<path d="M0 0 C0.66153076 0.15847412 1.32306152 0.31694824 2.00463867 0.48022461 C5.64652612 1.11218959 9.24026707 1.23060885 12.92578125 1.31640625 C13.67337204 1.33718735 14.42096283 1.35796844 15.19120789 1.37937927 C17.56488396 1.44444189 19.93866487 1.5035571 22.3125 1.5625 C23.92774495 1.60572646 25.54297953 1.64934204 27.15820312 1.69335938 C31.10536299 1.80007851 35.05262767 1.90146619 39 2 C39 2.33 39 2.66 39 3 C33.76725612 3.02467917 28.53454597 3.04285003 23.30175781 3.05493164 C21.52082733 3.05996711 19.739901 3.06679581 17.95898438 3.07543945 C15.40233335 3.08753942 12.84573688 3.09323609 10.2890625 3.09765625 C9.49005524 3.10281754 8.69104797 3.10797882 7.86782837 3.11329651 C2.22774341 3.11387171 2.22774341 3.11387171 0 2 C0 1.34 0 0.68 0 0 Z " fill="#FFF9D8" transform="translate(85,166)"/>
<path d="M0 0 C1.32 0 2.64 0 4 0 C3.91253716 1.43861294 3.80434652 2.87597508 3.6875 4.3125 C3.62949219 5.11300781 3.57148438 5.91351563 3.51171875 6.73828125 C2.91793306 9.36272334 2.04219706 10.30820672 0 12 C-1 11 -1 11 -1.1328125 8.75 C-1.13023437 7.8425 -1.12765625 6.935 -1.125 6 C-1.12757813 5.0925 -1.13015625 4.185 -1.1328125 3.25 C-1 1 -1 1 0 0 Z " fill="#072E4E" transform="translate(289,116)"/>
<path d="M0 0 C2.375 0.8125 2.375 0.8125 5.375 2.8125 C5.375 3.8025 5.375 4.7925 5.375 5.8125 C4.385 5.8125 3.395 5.8125 2.375 5.8125 C2.375 5.1525 2.375 4.4925 2.375 3.8125 C0.7353125 4.121875 0.7353125 4.121875 -0.9375 4.4375 C-4.625 4.8125 -4.625 4.8125 -7.625 2.8125 C-3.35227273 -0.23944805 -3.35227273 -0.23944805 0 0 Z " fill="#3D556B" transform="translate(185.625,156.1875)"/>
<path d="M0 0 C5.61 0 11.22 0 17 0 C17 1.32 17 2.64 17 4 C15.35 4 13.7 4 12 4 C12 3.34 12 2.68 12 2 C8.04 2 4.08 2 0 2 C0 1.34 0 0.68 0 0 Z " fill="#0A2B47" transform="translate(183,131)"/>
<path d="M0 0 C2.1385485 2.1385485 2.42655063 3.13275314 3 6 C1.35 6.33 -0.3 6.66 -2 7 C-2 10.96 -2 14.92 -2 19 C-2.66 18.67 -3.32 18.34 -4 18 C-4.10864945 15.93867858 -4.18588321 13.87568679 -4.25 11.8125 C-4.29640625 10.66394531 -4.3428125 9.51539062 -4.390625 8.33203125 C-3.92924572 4.39646601 -2.70028512 2.82254213 0 0 Z " fill="#38556C" transform="translate(291,110)"/>
<path d="M0 0 C0.66 0.33 1.32 0.66 2 1 C2 2.65 2 4.3 2 6 C3.32 6.33 4.64 6.66 6 7 C5.67 7.99 5.34 8.98 5 10 C0.125 9.125 0.125 9.125 -1 8 C-1.125 4.5 -1.125 4.5 -1 1 C-0.67 0.67 -0.34 0.34 0 0 Z " fill="#DFEEF4" transform="translate(287,160)"/>
<path d="M0 0 C0 0.33 0 0.66 0 1 C-1.65 1.33 -3.3 1.66 -5 2 C-5 2.66 -5 3.32 -5 4 C-5.99 4 -6.98 4 -8 4 C-8 4.66 -8 5.32 -8 6 C-8.99 6.495 -8.99 6.495 -10 7 C-10.65772428 10.02934491 -10.65772428 10.02934491 -11 13 C-11.33 13 -11.66 13 -12 13 C-12.77303488 4.96043727 -12.77303488 4.96043727 -9.9375 1.4375 C-6.4026107 -0.29233945 -3.88817732 -0.30495508 0 0 Z " fill="#C6D5DF" transform="translate(305,112)"/>
<path d="M0 0 C1.65 0 3.3 0 5 0 C5 0.66 5 1.32 5 2 C5.99 2.33 6.98 2.66 8 3 C7.34 4.65 6.68 6.3 6 8 C3.5625 7.375 3.5625 7.375 1 6 C0.1875 2.875 0.1875 2.875 0 0 Z " fill="#F6F9F8" transform="translate(288,160)"/>
<path d="M0 0 C0.33 0 0.66 0 1 0 C1 4.29 1 8.58 1 13 C0.01 13.495 0.01 13.495 -1 14 C-2.32 11.36 -3.64 8.72 -5 6 C-4.01 5.67 -3.02 5.34 -2 5 C-1.67 5.33 -1.34 5.66 -1 6 C-0.67 4.02 -0.34 2.04 0 0 Z " fill="#415C71" transform="translate(230,157)"/>
<path d="M0 0 C1.2065625 0.0309375 1.2065625 0.0309375 2.4375 0.0625 C2.4375 2.0425 2.4375 4.0225 2.4375 6.0625 C0.4575 6.0625 -1.5225 6.0625 -3.5625 6.0625 C-3.605221 4.39638095 -3.60313832 2.72867115 -3.5625 1.0625 C-2.5625 0.0625 -2.5625 0.0625 0 0 Z " fill="#F6FAFA" transform="translate(205.5625,159.9375)"/>
<path d="M0 0 C-3 2 -3 2 -7 2 C-7 4.64 -7 7.28 -7 10 C-8.32 8.35 -9.64 6.7 -11 5 C-8.028376 -0.51873028 -6.10563207 -1.48515375 0 0 Z " fill="#E8F6FB" transform="translate(237,155)"/>
<path d="M0 0 C3.2542015 2.83430453 4.5206753 4.68607774 5 9 C7.64 9.66 10.28 10.32 13 11 C13 11.33 13 11.66 13 12 C7.60550707 12.27429625 4.48074195 12.36055646 0 9 C0.66 8.67 1.32 8.34 2 8 C2 7.01 2 6.02 2 5 C1.34 4.67 0.68 4.34 0 4 C0 2.68 0 1.36 0 0 Z " fill="#435E73" transform="translate(293,125)"/>
<path d="M0 0 C0.66 1.32 1.32 2.64 2 4 C3.92540409 6.10591073 5.44447095 7.72223547 8 9 C7.67 9.99 7.34 10.98 7 12 C4 12 4 12 0 10 C0 6.7 0 3.4 0 0 Z " fill="#E7F0F5" transform="translate(176,164)"/>
<path d="M0 0 C0.99 0 1.98 0 3 0 C2.42655063 2.86724686 2.1385485 3.8614515 0 6 C-3.125 6.125 -3.125 6.125 -6 6 C-5.67 4.68 -5.34 3.36 -5 2 C-3.68 2 -2.36 2 -1 2 C-0.67 1.34 -0.34 0.68 0 0 Z " fill="#354958" transform="translate(188,167)"/>
<path d="M0 0 C2.7476687 2.7476687 2.74284983 5.02966792 3.11328125 8.80078125 C3 11 3 11 1.0625 13.5625 C0.381875 14.036875 -0.29875 14.51125 -1 15 C-1.66 14.67 -2.32 14.34 -3 14 C-2.34 13.34 -1.68 12.68 -1 12 C-0.53603307 9.10776497 -0.53603307 9.10776497 -0.375 5.875 C-0.30023438 4.77929688 -0.22546875 3.68359375 -0.1484375 2.5546875 C-0.09945312 1.71164063 -0.05046875 0.86859375 0 0 Z " fill="#FCBF31" transform="translate(99,151)"/>
<path d="M0 0 C2.61527381 2.36620011 4.26440562 4.942048 6 8 C5.34 8.66 4.68 9.32 4 10 C3.34 10 2.68 10 2 10 C1.67 11.32 1.34 12.64 1 14 C0.34 11.69 -0.32 9.38 -1 7 C-0.34 7 0.32 7 1 7 C0.67 4.69 0.34 2.38 0 0 Z " fill="#2C4A65" transform="translate(264,109)"/>
<path d="M0 0 C0.7425 0.45375 1.485 0.9075 2.25 1.375 C4.46930578 2.68640796 6.67967822 3.88280803 9 5 C9 6.65 9 8.3 9 10 C8.484375 9.360625 7.96875 8.72125 7.4375 8.0625 C4.34064377 5.44208319 1.97932377 5.30610183 -2 5 C-1.34 3.35 -0.68 1.7 0 0 Z " fill="#E4EDF3" transform="translate(183,152)"/>
<path d="M0 0 C0.66 0 1.32 0 2 0 C1.67 4.95 1.34 9.9 1 15 C0.34 13.68 -0.32 12.36 -1 11 C-1.66 11 -2.32 11 -3 11 C-2.11223998 7.30099992 -1.05418136 3.65449539 0 0 Z " fill="#FEC337" transform="translate(134,101)"/>
<path d="M0 0 C2.97 0.33 5.94 0.66 9 1 C8.67 1.66 8.34 2.32 8 3 C7.21625 2.938125 6.4325 2.87625 5.625 2.8125 C4.325625 2.9053125 4.325625 2.9053125 3 3 C2.01 4.485 2.01 4.485 1 6 C0.34 6 -0.32 6 -1 6 C-1.33 7.32 -1.66 8.64 -2 10 C-2.25 3.375 -2.25 3.375 0 0 Z " fill="#34495D" transform="translate(200,158)"/>
<path d="M0 0 C0.99 0 1.98 0 3 0 C3.125 7.75 3.125 7.75 2 10 C1.01 9.67 0.02 9.34 -1 9 C-0.67 6.03 -0.34 3.06 0 0 Z " fill="#284255" transform="translate(252,157)"/>
<path d="M0 0 C1.65 0.33 3.3 0.66 5 1 C4.01 1.33 3.02 1.66 2 2 C2 4.97 2 7.94 2 11 C-0.125 8.875 -0.125 8.875 -2 6 C-1.25 2.6875 -1.25 2.6875 0 0 Z " fill="#DFF0F6" transform="translate(250,155)"/>
<path d="M0 0 C1.85772162 0.08984301 3.71247985 0.24611861 5.5625 0.4375 C7.08037109 0.59025391 7.08037109 0.59025391 8.62890625 0.74609375 C9.80259766 0.87177734 9.80259766 0.87177734 11 1 C11 1.66 11 2.32 11 3 C9.37536158 3.05395478 7.75021459 3.09277195 6.125 3.125 C5.22007812 3.14820312 4.31515625 3.17140625 3.3828125 3.1953125 C1 3 1 3 -1 1 C-0.67 0.67 -0.34 0.34 0 0 Z " fill="#062B49" transform="translate(231,108)"/>
<path d="M0 0 C0.66 0.33 1.32 0.66 2 1 C1.67 1.66 1.34 2.32 1 3 C0.84651357 6.53018797 0.95854754 9.61527952 2 13 C1.01 12.67 0.02 12.34 -1 12 C-2.50934217 8.98131566 -2.17510672 6.32702771 -2 3 C-1.34 2.01 -0.68 1.02 0 0 Z " fill="#F3D183" transform="translate(107,102)"/>
<path d="M0 0 C1.98 0.99 1.98 0.99 4 2 C4 3.98 4 5.96 4 8 C2.02 8.99 2.02 8.99 0 10 C0 6.7 0 3.4 0 0 Z " fill="#FDF2D1" transform="translate(128,154)"/>
<path d="M0 0 C1.65 0 3.3 0 5 0 C3.63016497 3.16115776 3.0109362 3.9927092 0 6 C-2.1875 5.625 -2.1875 5.625 -4 5 C-3.01 4.67 -2.02 4.34 -1 4 C-0.26676204 1.98491642 -0.26676204 1.98491642 0 0 Z " fill="#163751" transform="translate(308,130)"/>
<path d="M0 0 C7.38461538 -0.36923077 7.38461538 -0.36923077 10.5 1.5 C10.995 1.995 11.49 2.49 12 3 C9.18515955 4.40742022 7.43063887 3.66652164 4.375 3.0625 C3.37210938 2.86785156 2.36921875 2.67320313 1.3359375 2.47265625 C0.56507813 2.31667969 -0.20578125 2.16070312 -1 2 C-0.67 1.34 -0.34 0.68 0 0 Z " fill="#375064" transform="translate(232,106)"/>
<path d="M0 0 C0.33 0 0.66 0 1 0 C1 2.31 1 4.62 1 7 C-0.32 7 -1.64 7 -3 7 C-3.33 5.02 -3.66 3.04 -4 1 C-2.68 1.33 -1.36 1.66 0 2 C0 1.34 0 0.68 0 0 Z " fill="#193A4D" transform="translate(254,165)"/>
<path d="M0 0 C1.98 0 3.96 0 6 0 C5.67 0.66 5.34 1.32 5 2 C4.34 2 3.68 2 3 2 C2.34 5.3 1.68 8.6 1 12 C0.67 12 0.34 12 0 12 C0 8.04 0 4.08 0 0 Z " fill="#FEF4CE" transform="translate(104,100)"/>
<path d="M0 0 C0.66 0.33 1.32 0.66 2 1 C1.67 4.63 1.34 8.26 1 12 C0.34 12 -0.32 12 -1 12 C-1.02687279 10.18757948 -1.04633715 8.37504767 -1.0625 6.5625 C-1.07410156 5.55316406 -1.08570313 4.54382813 -1.09765625 3.50390625 C-1 1 -1 1 0 0 Z " fill="#102E48" transform="translate(223,160)"/>
<path d="M0 0 C1.134375 0.020625 2.26875 0.04125 3.4375 0.0625 C3.4375 1.0525 3.4375 2.0425 3.4375 3.0625 C-1.0175 3.5575 -1.0175 3.5575 -5.5625 4.0625 C-4.23308824 0.07426471 -4.23308824 0.07426471 0 0 Z " fill="#D9E6ED" transform="translate(205.5625,153.9375)"/>
<path d="M0 0 C0.33 0 0.66 0 1 0 C1.12375 1.0725 1.2475 2.145 1.375 3.25 C1.89643936 6.37863615 2.40088254 8.33480424 4 11 C0.125 10.125 0.125 10.125 -1 9 C-0.91062197 7.47480724 -0.75462854 5.95318071 -0.5625 4.4375 C-0.46066406 3.61121094 -0.35882813 2.78492188 -0.25390625 1.93359375 C-0.17011719 1.29550781 -0.08632813 0.65742188 0 0 Z " fill="#1F3445" transform="translate(284,160)"/>
<path d="M0 0 C0 0.66 0 1.32 0 2 C1.32 1.67 2.64 1.34 4 1 C3.67 1.99 3.34 2.98 3 4 C1.7625 3.5359375 1.7625 3.5359375 0.5 3.0625 C-3.39126155 1.88122417 -6.96166953 1.41775832 -11 1 C-11 0.67 -11 0.34 -11 0 C-3.57142857 -1.28571429 -3.57142857 -1.28571429 0 0 Z " fill="#D1DEE8" transform="translate(309,105)"/>
<path d="M0 0 C1.57499749 3.14999498 0.70833498 5.63540882 0 9 C-1.5625 10.9375 -1.5625 10.9375 -3 12 C-2.42415568 9.61435923 -1.77772405 7.33317216 -1 5 C-1.66 5 -2.32 5 -3 5 C-3.33 4.01 -3.66 3.02 -4 2 C-2.68 1.34 -1.36 0.68 0 0 Z " fill="#E9F1F5" transform="translate(192,162)"/>
<path d="M0 0 C2.31 0 4.62 0 7 0 C7 0.99 7 1.98 7 3 C4.69 3 2.38 3 0 3 C0 2.01 0 1.02 0 0 Z " fill="#E7F9FE" transform="translate(268,166)"/>
<path d="M0 0 C3.125 -0.1875 3.125 -0.1875 6 0 C6 0.99 6 1.98 6 3 C3.36 3 0.72 3 -2 3 C-1.34 2.01 -0.68 1.02 0 0 Z " fill="#F8C839" transform="translate(90,123)"/>
<path d="M0 0 C1.32 1.65 2.64 3.3 4 5 C3.34 6.32 2.68 7.64 2 9 C-1.07692308 4.56923077 -1.07692308 4.56923077 -0.6875 1.6875 C-0.460625 1.130625 -0.23375 0.57375 0 0 Z " fill="#33455E" transform="translate(247,159)"/>
<path d="M0 0 C1.32 0 2.64 0 4 0 C4 0.66 4 1.32 4 2 C3.01 2.495 3.01 2.495 2 3 C1.26924352 5.3140622 0.59861742 7.64828869 0 10 C-0.33 10 -0.66 10 -1 10 C-1.125 3.375 -1.125 3.375 0 0 Z " fill="#F9B71E" transform="translate(136,101)"/>
<path d="M0 0 C0.66 0.66 1.32 1.32 2 2 C1.625 5.625 1.625 5.625 1 9 C1.66 9.33 2.32 9.66 3 10 C2.67 10.66 2.34 11.32 2 12 C1.34 12 0.68 12 0 12 C0 11.34 0 10.68 0 10 C-0.99 9.67 -1.98 9.34 -3 9 C-2.01 9 -1.02 9 0 9 C0 6.03 0 3.06 0 0 Z " fill="#C5D0D8" transform="translate(224,163)"/>
<path d="M0 0 C2.0625 0.4375 2.0625 0.4375 4 1 C3.34 1 2.68 1 2 1 C1.67 1.66 1.34 2.32 1 3 C-1.75694758 4.18154896 -2.86770391 4.04510094 -5.75 3.0625 C-6.4925 2.711875 -7.235 2.36125 -8 2 C-8 1.67 -8 1.34 -8 1 C-6.865625 1.020625 -5.73125 1.04125 -4.5625 1.0625 C-1.18424326 1.41577477 -1.18424326 1.41577477 0 0 Z " fill="#EFF8FA" transform="translate(211,172)"/>
<path d="M0 0 C3.96 0 7.92 0 12 0 C12 0.33 12 0.66 12 1 C11.30132812 1.12117188 10.60265625 1.24234375 9.8828125 1.3671875 C8.51769531 1.61855469 8.51769531 1.61855469 7.125 1.875 C6.22007813 2.03742188 5.31515625 2.19984375 4.3828125 2.3671875 C1.83494012 2.83044703 1.83494012 2.83044703 0 5 C0 3.35 0 1.7 0 0 Z " fill="#FDECBE" transform="translate(84,121)"/>
<path d="M0 0 C1.32 0.66 2.64 1.32 4 2 C4 2.66 4 3.32 4 4 C4.66 4.66 5.32 5.32 6 6 C4.02 6 2.04 6 0 6 C-1.125 2.25 -1.125 2.25 0 0 Z " fill="#E0EBF0" transform="translate(208,101)"/>
<path d="M0 0 C1.98 0 3.96 0 6 0 C6.33 0.99 6.66 1.98 7 3 C4.69 3 2.38 3 0 3 C0 2.01 0 1.02 0 0 Z " fill="#E9F5FB" transform="translate(268,160)"/>
<path d="M0 0 C2.475 0.495 2.475 0.495 5 1 C5.33 2.32 5.66 3.64 6 5 C5.01 5 4.02 5 3 5 C3 4.34 3 3.68 3 3 C2.01 2.67 1.02 2.34 0 2 C0 1.34 0 0.68 0 0 Z " fill="#283C4F" transform="translate(185,157)"/>
<path d="M0 0 C2.64 0 5.28 0 8 0 C8 0.66 8 1.32 8 2 C5.36 2.33 2.72 2.66 0 3 C0 2.01 0 1.02 0 0 Z " fill="#163148" transform="translate(286,157)"/>
<path d="M0 0 C-0.33 1.32 -0.66 2.64 -1 4 C-1.33 3.01 -1.66 2.02 -2 1 C-4.64 1.33 -7.28 1.66 -10 2 C-10 1.34 -10 0.68 -10 0 C-3.375 -1.125 -3.375 -1.125 0 0 Z " fill="#CDD9E3" transform="translate(266,106)"/>
<path d="M0 0 C1.32 0 2.64 0 4 0 C4 0.66 4 1.32 4 2 C3.34 2 2.68 2 2 2 C2 2.66 2 3.32 2 4 C2.99 4.33 3.98 4.66 5 5 C3.35 5 1.7 5 0 5 C0 3.35 0 1.7 0 0 Z " fill="#19344C" transform="translate(209,131)"/>
<path d="M0 0 C0.66 0 1.32 0 2 0 C2.66 2.31 3.32 4.62 4 7 C3.01 7.66 2.02 8.32 1 9 C0.67 6.03 0.34 3.06 0 0 Z " fill="#082C49" transform="translate(311,116)"/>
<path d="M0 0 C2.31 0 4.62 0 7 0 C6.67 0.66 6.34 1.32 6 2 C5.34 1.67 4.68 1.34 4 1 C3.34 2.32 2.68 3.64 2 5 C1.34 3.35 0.68 1.7 0 0 Z " fill="#2E455A" transform="translate(257,107)"/>
</svg>
