<?xml version="1.0" encoding="UTF-8"?><svg id="Layer_2" xmlns="http://www.w3.org/2000/svg" width="902.0999" height="572.9" viewBox="0 0 902.0999 572.9"><defs><style>.cls-1{fill:#4285f4;}.cls-2{fill:#34a853;}.cls-3{fill:#fbbc04;}.cls-4{fill:#ea4335;}.cls-5{fill:#5f6368;}</style></defs><g id="Layer_1-2"><g id="Calque_1"><path d="M821.4,0h9.2c2.6,0,5.2.1,7.8.1,5.7.2,11.4.5,17,1.5s11,2.7,16.1,5.3c10.2,5.2,18.5,13.4,23.7,23.5,2.6,5,4.4,10.4,5.3,16,1,5.6,1.3,11.2,1.5,16.8.1,2.6.1,5.1.1,7.7v431.1c0,2.6,0,5.2-.1,7.7-.2,5.6-.5,11.3-1.5,16.8-1,5.6-2.7,10.9-5.3,16-5.2,10.1-13.5,18.4-23.7,23.5-5.1,2.5-10.5,4.3-16.1,5.3s-11.3,1.3-17,1.5c-2.6.1-5.2.1-7.8.1H71.5c-2.6,0-5.2,0-7.8-.1-5.7-.2-11.4-.5-17-1.5-5.7-1-11-2.7-16.1-5.3s-9.7-5.9-13.7-9.9-7.4-8.6-10-13.6-4.4-10.4-5.3-16c-1-5.5-1.3-11.2-1.5-16.8-.1-2.6-.1-5.2-.1-7.7V71c0-2.6.1-5.2.1-7.7.2-5.6.5-11.3,1.5-16.8,1-5.6,2.7-11,5.3-16,5.2-10.1,13.5-18.4,23.7-23.5,5.1-2.5,10.5-4.3,16.1-5.3S58,.4,63.7.2c2.6-.1,5.2-.1,7.8-.1h749.9v-.1ZM821.4,19.1H71.7c-2.5,0-4.9,0-7.4.1-4.3.1-9.4.4-14.1,1.2-3.8.6-7.4,1.8-10.8,3.5-3.3,1.6-6.3,3.8-8.8,6.4-2.6,2.6-4.8,5.5-6.4,8.8-1.7,3.4-2.9,7-3.5,10.7-.9,4.7-1.1,9.7-1.2,14-.1,2.4-.1,4.9-.1,7.3v430.8c0,2.4,0,4.9.1,7.3.1,4.3.3,9.3,1.2,13.9.6,3.7,1.8,7.4,3.5,10.7,1.7,3.2,3.8,6.2,6.4,8.8s5.6,4.7,8.8,6.4c3.4,1.7,7.1,2.9,10.8,3.5,4.8.8,10,1.1,14.1,1.2,2.5.1,4.9.1,7.4.1h758.6999c2.5,0,5,0,7.5-.1,4-.1,9.2-.3,14-1.2,4-.7,7.5-1.8,10.7-3.5,6.6-3.3,11.9-8.6,15.3-15.2,1.7-3.4,2.9-7,3.5-10.7.9-4.7,1.1-9.7,1.2-14,.1-2.4.1-4.9.1-7.3V71.2c0-2.5,0-4.9-.1-7.4-.1-4.3-.3-9.3-1.2-14-.7-4.1-1.8-7.5-3.5-10.7-3.4-6.6-8.7-11.9-15.3-15.2-3.3-1.7-6.7-2.8-10.8-3.5-4.7-.8-9.8-1.1-14.1-1.2-2.5-.1-4.9-.1-7.4-.1h-8.9Z"/></g><g id="Calque_2"><path class="cls-5" d="M434,288.9v77.6h-24.6v-191.7h65.3c15.7-.3,31,5.6,42.3,16.6,11.5,10.3,17.9,25.1,17.7,40.5.3,15.5-6.1,30.4-17.7,40.7-11.4,10.9-25.5,16.3-42.3,16.3h-40.7ZM434,198.4v67h41.3c9.2.3,18-3.3,24.4-9.9,12.9-12.6,13.2-33.3.7-46.2-.2-.2-.4-.4-.7-.7-6.3-6.7-15.2-10.4-24.4-10.2h-41.3Z"/><path class="cls-5" d="M591.5,231.1c18.2,0,32.6,4.9,43.1,14.6s15.8,23.1,15.8,40v80.8h-23.6v-18.1h-1.1c-10.2,15-23.8,22.5-40.7,22.5-14.5,0-26.5-4.3-36.3-12.9-9.5-8-14.8-19.8-14.6-32.1,0-13.6,5.1-24.4,15.4-32.4,10.3-8,24-12,41.1-12.1,14.6,0,26.7,2.7,36.1,8v-5.6c.1-8.4-3.7-16.4-10.2-21.8-6.5-5.9-15-9.1-23.8-9-13.8,0-24.6,5.8-32.7,17.4l-21.7-13.7c12.1-17,29.8-25.6,53.2-25.6ZM559.6,326.4c0,6.4,3,12.3,8.2,16.1,5.4,4.3,12.2,6.6,19.1,6.4,10.4,0,20.4-4.2,27.7-11.5,8.2-7.7,12.2-16.7,12.2-27-7.7-6.1-18.4-9.2-32.1-9.2-10,0-18.3,2.4-25,7.2-6.8,4.9-10.1,10.9-10.1,18h0Z"/><path class="cls-5" d="M785.6,235.4l-82.2,189h-25.4l30.5-66.1-54.1-122.9h26.7l39.1,94.2h.5l38-94.2h26.9Z"/><path class="cls-1" d="M334.5,272.2c0-7.5-.6-15-1.9-22.4h-103.8v42.4h59.5c-2.5,13.7-10.4,25.8-22,33.5v27.5h35.5c20.7-19.1,32.7-47.5,32.7-81Z"/><path class="cls-2" d="M228.8,379.8c29.7,0,54.8-9.8,73-26.6l-35.5-27.5c-9.9,6.7-22.6,10.5-37.5,10.5-28.7,0-53.1-19.4-61.8-45.5h-36.6v28.4c18.6,37.2,56.7,60.7,98.4,60.7Z"/><path class="cls-3" d="M166.9,290.8c-4.6-13.7-4.6-28.5,0-42.2v-28.4h-36.6c-15.6,31.1-15.6,67.8,0,98.9l36.6-28.3Z"/><path class="cls-4" d="M228.8,203.1c15.7-.3,30.9,5.7,42.3,16.5h0l31.4-31.4c-19.9-18.7-46.3-29-73.7-28.7-41.6,0-79.7,23.5-98.4,60.7l36.6,28.4c8.6-26.1,33-45.5,61.8-45.5Z"/></g></g></svg>