<?xml version="1.0" encoding="UTF-8"?><svg id="Layer_2" xmlns="http://www.w3.org/2000/svg" width="22.8116" height="11.6117" viewBox="0 0 22.8116 11.6117"><defs><style>.cls-1{fill:#007b7c;}</style></defs><g id="Layer_2-2"><path class="cls-1" d="M7.7724,11.6095c-.333-2.7689-1.2561-5.3273-2.6828-7.3671-.3751-.5382-.7777-1.0264-1.2013-1.4669-.411.3711-.7945.7703-1.1486,1.1978,1.7197,1.7772,2.961,4.4919,3.3783,7.6362h1.6544Z"/><path class="cls-1" d="M4.7292,11.6096c-.314-2.068-1.0369-3.9732-2.118-5.5161-.2339-.3342-.4826-.6467-.7397-.9353-.3182.4969-.6006,1.0199-.843,1.5667.9842,1.2651,1.7092,2.9599,2.0401,4.8846h1.6607-.0001Z"/><path class="cls-1" d="M.4299,8.4023c-.2803,1.0199-.4299,2.0962-.4299,3.2072h1.6649c-.2403-1.174-.6575-2.2633-1.235-3.2072Z"/><path class="cls-1" d="M13.8314,11.6095c.489-4.379,2.3014-7.328,3.8568-9.1074.1286-.1454.2571-.2864.3857-.4232-.215-.1606-.4384-.3125-.6639-.4579-.1033.1107-.2065.2235-.3056.3385-1.3277,1.5146-2.8283,3.8344-3.6249,7.098-.2445-1.3172-.5859-2.5888-1.0222-3.7996.8641-1.9899,1.9368-3.5262,2.9231-4.6633-.2655-.102-.5374-.1931-.8114-.2756-.8493,1.0155-1.7408,2.3089-2.51,3.9103-.5543-1.328-1.2287-2.5692-2.0127-3.6933-.1286-.1823-.2571-.3624-.3899-.536-.607.0955-1.1971.243-1.7682.4318,1.3699,1.6318,2.4848,3.6976,3.2498,6.0564-.2824.8311-.5248,1.723-.7166,2.6821-.5395-2.5302-1.5068-4.8521-2.8535-6.7834-.3456-.4948-.7081-.9548-1.0875-1.3779-.5079.2517-.9969.5403-1.4605.8637,2.1644,2.2546,3.6966,5.7309,4.1307,9.7345h1.7134c.1286-1.3562.3625-2.5996.6744-3.7345.3035,1.1891.5184,2.4391.6365,3.7345h1.6565v.0022h0Z"/><path class="cls-1" d="M16.8052,11.6096c.4699-3.4199,1.9114-5.7439,3.1591-7.1675.0864-.0976.1727-.1931.2592-.2843-.1686-.2105-.3436-.4166-.5269-.6141-1.7577,1.8532-3.2287,4.5439-3.686,8.068h.7945v-.0022h.0001Z"/><path class="cls-1" d="M19.7957,11.6096c.3773-2.1201,1.2245-3.6738,2.0486-4.7458-.1181-.2734-.2445-.5403-.3816-.8029-1.1443,1.3779-2.0822,3.2268-2.4657,5.5486h.7987Z"/><path class="cls-1" d="M22.664,9.7108c-.2719.5729-.4974,1.2065-.6554,1.8987h.8029c.0021-.6467-.0484-1.2803-.1475-1.8987Z"/></g></svg>