<svg width="140" height="90" version="1.1" xmlns="http://www.w3.org/2000/svg" desc="Created with imagetracer.js version 1.2.6" ><path fill="rgb(245,247,251)" stroke="rgb(245,247,251)" stroke-width="1" opacity="1" d="M 95.5 25 L 97.5 28 L 95.5 25 Z " /><path fill="rgb(245,247,251)" stroke="rgb(245,247,251)" stroke-width="1" opacity="1" d="M 49.5 29 L 48.5 31 L 49.5 29 Z " /><path fill="rgb(245,247,251)" stroke="rgb(245,247,251)" stroke-width="1" opacity="1" d="M 14.5 31 L 15 36.5 L 14 36.5 L 14.5 31 Z " /><path fill="rgb(245,247,251)" stroke="rgb(245,247,251)" stroke-width="1" opacity="1" d="M 26.5 31 L 29 31.5 L 26.5 32 L 26.5 31 Z " /><path fill="rgb(245,247,251)" stroke="rgb(245,247,251)" stroke-width="1" opacity="1" d="M 98.5 43 L 99 44.5 Q 95.9 46.3 97.5 48 Q 94.3 46.3 98 44.5 L 98.5 43 Z " /><path fill="rgb(245,247,251)" stroke="rgb(245,247,251)" stroke-width="1" opacity="1" d="M 15.5 45 L 23 45.5 L 15 46 L 14.5 50 L 14 46.5 L 15.5 45 Z " /><path fill="rgb(245,247,251)" stroke="rgb(245,247,251)" stroke-width="1" opacity="1" d="M 56.5 47 L 63 47.5 L 56.5 48 L 56.5 47 Z " /><path fill="rgb(245,247,251)" stroke="rgb(245,247,251)" stroke-width="1" opacity="1" d="M 69.5 47 L 71 47.5 L 68.5 49 L 69.5 47 Z " /><path fill="rgb(245,247,251)" stroke="rgb(245,247,251)" stroke-width="1" opacity="1" d="M 89.5 48 L 92 48.5 L 89.5 49 L 89.5 48 Z " /><path fill="rgb(245,247,251)" stroke="rgb(245,247,251)" stroke-width="1" opacity="1" d="M 48.5 50 L 51.5 54 L 48.5 50 Z " /><path fill="rgb(245,247,251)" stroke="rgb(245,247,251)" stroke-width="1" opacity="1" d="M 106.5 51 L 116 51.5 L 106.5 52 L 105.5 53 L 106.5 51 Z " /><path fill="rgb(245,247,251)" stroke="rgb(245,247,251)" stroke-width="1" opacity="1" d="M 39.5 53 L 38.5 55 L 39.5 53 Z " /><path fill="rgb(245,247,251)" stroke="rgb(245,247,251)" stroke-width="1" opacity="1" d="M 70.5 53 L 69.5 55 L 70.5 53 Z " /><path fill="rgb(245,247,251)" stroke="rgb(245,247,251)" stroke-width="1" opacity="1" d="M 20.5 58 L 21 60.5 L 21 62.5 Q 22.1 65.8 19.5 65 L 20 63.5 L 19 61.5 L 20.5 58 Z " /><path fill="rgb(245,247,251)" stroke="rgb(245,247,251)" stroke-width="1" opacity="1" d="M 22.5 58 L 23 64.5 L 22 64.5 L 22.5 58 Z " /><path fill="rgb(245,247,251)" stroke="rgb(245,247,251)" stroke-width="1" opacity="1" d="M 51.5 60 L 52 62.5 L 51 62.5 L 51.5 60 Z " /><path fill="rgb(245,247,251)" stroke="rgb(245,247,251)" stroke-width="1" opacity="1" d="M 53.5 60 L 54 64.5 L 53 64.5 L 53.5 60 Z " /><path fill="rgb(245,247,251)" stroke="rgb(245,247,251)" stroke-width="1" opacity="1" d="M 70.5 60 L 71 63 L 69 62.5 L 70.5 60 Z " /><path fill="rgb(245,247,251)" stroke="rgb(245,247,251)" stroke-width="1" opacity="1" d="M 91.5 60 Q 94.9 59.1 93 64.5 L 92 64.5 L 91.5 60 Z " /><path fill="rgb(245,247,251)" stroke="rgb(245,247,251)" stroke-width="1" opacity="1" d="M 35.5 61 L 36 63.5 L 35 63.5 L 35.5 61 Z " /><path fill="rgb(245,247,251)" stroke="rgb(245,247,251)" stroke-width="1" opacity="1" d="M 126.5 61 L 127 64.5 L 126 64.5 L 126.5 61 Z " /><path fill="rgb(245,247,251)" stroke="rgb(245,247,251)" stroke-width="1" opacity="1" d="M 45.5 62 L 48 62.5 L 45.5 63 L 45.5 62 Z " /><path fill="rgb(245,247,251)" stroke="rgb(245,247,251)" stroke-width="1" opacity="1" d="M 94.5 62 L 95 64.5 L 94 64.5 L 94.5 62 Z " /><path fill="rgb(254,255,255)" stroke="rgb(254,255,255)" stroke-width="1" opacity="0.996078431372549" d="M 2.5 0 L 5 0.5 L 1 2.5 L 0.5 5 L 0 2.5 L 2.5 0 Z " /><path fill="rgb(254,255,255)" stroke="rgb(254,255,255)" stroke-width="1" opacity="0.996078431372549" d="M 135.5 0 Q 139.5 -0.5 140 2.5 L 139.5 5 L 137.5 1 Q 134.5 1.5 135.5 0 Z " /><path fill="rgb(254,255,255)" stroke="rgb(254,255,255)" stroke-width="1" opacity="0.996078431372549" d="M 72.5 24 L 73 28 L 71 27.5 L 72.5 24 Z " /><path fill="rgb(254,255,255)" stroke="rgb(254,255,255)" stroke-width="1" opacity="0.996078431372549" d="M 72.5 32 L 73 56.5 L 72 56.5 L 72.5 32 Z " /><path fill="rgb(254,255,255)" stroke="rgb(254,255,255)" stroke-width="1" opacity="0.996078431372549" d="M 99.5 34 L 100 36.5 L 99 36.5 L 99.5 34 Z " /><path fill="rgb(254,255,255)" stroke="rgb(254,255,255)" stroke-width="1" opacity="0.996078431372549" d="M 110.5 34 L 111.5 36 L 110.5 34 Z " /><path fill="rgb(254,255,255)" stroke="rgb(254,255,255)" stroke-width="1" opacity="0.996078431372549" d="M 48.5 58 L 49 59.5 L 47 60.5 L 48.5 58 Z " /><path fill="rgb(254,255,255)" stroke="rgb(254,255,255)" stroke-width="1" opacity="0.996078431372549" d="M 0.5 85 L 2.5 89 L 5 89.5 L 2.5 90 Q -1.2 88.8 0.5 85 Z " /><path fill="rgb(254,255,255)" stroke="rgb(254,255,255)" stroke-width="1" opacity="0.996078431372549" d="M 139.5 85 L 140 87.5 Q 139.5 90.5 135.5 90 L 135.5 89 L 139 87.5 L 139.5 85 Z " /><path fill="rgb(255,255,255)" stroke="rgb(255,255,255)" stroke-width="1" opacity="1" d="M 5.5 0 L 134.5 0 L 139 2.5 L 140 5.5 L 140 84.5 L 137.5 89 L 134.5 90 L 5.5 90 L 1 87.5 L 0 84.5 L 0 5.5 L 2.5 1 L 5.5 0 Z M 21 24 L 16 26 L 14 32 Q 13 39 16 42 L 21 44 L 29 44 L 30 45 Q 34 44 32 49 L 25 49 L 23 48 L 23 45 L 14 45 Q 13 52 16 55 L 21 57 Q 31 59 38 56 L 41 52 Q 39 45 47 48 L 48 51 Q 51 55 58 57 Q 66 58 70 55 Q 73 53 71 47 L 64 51 Q 58 52 56 49 L 64 48 Q 67 46 67 41 L 52 41 L 68 40 L 71 33 L 73 32 L 72 33 L 72 57 L 82 57 L 82 49 Q 92 51 97 47 L 98 47 L 95 57 L 105 57 L 105 54 L 107 52 L 116 52 L 117 55 L 118 57 L 127 57 L 118 27 L 118 24 L 104 24 L 101 36 L 98 28 L 94 24 L 73 24 L 72 27 L 66 24 Q 57 23 53 26 L 47 33 L 44 34 L 41 40 L 45 41 L 43 41 L 42 45 L 40 39 L 30 36 Q 22 38 24 32 L 31 32 L 31 35 L 40 35 L 40 29 L 35 24 L 21 24 Z M 15 58 L 14 64 L 17 65 L 19 65 L 25 65 L 25 63 L 26 63 L 26 65 Q 29 64 28 67 L 33 67 L 33 65 L 36 64 L 39 66 L 40 64 L 40 62 L 40 60 L 36 60 L 36 58 Q 32 57 33 60 L 24 60 L 23 58 L 20 59 L 15 58 Z M 43 58 L 43 65 L 50 65 L 51 66 L 56 65 L 57 62 L 57 65 L 60 66 L 63 64 L 62 60 L 50 60 L 49 63 L 48 63 L 49 60 L 49 58 L 43 58 Z M 65 58 L 65 65 Q 68 66 67 63 L 70 63 Q 69 66 72 65 L 74 65 Q 76 66 75 63 L 76 63 L 75 66 Q 74 68 78 67 L 80 63 L 80 65 Q 83 66 82 63 L 83 63 Q 82 67 87 65 Q 88 63 90 66 L 91 65 L 97 65 L 98 62 L 98 65 Q 99 67 101 65 L 103 66 L 105 65 L 105 60 L 100 60 L 100 58 Q 97 57 98 60 L 89 60 L 87 60 L 79 60 L 78 61 Q 76 59 72 60 L 70 58 L 65 58 Z M 109 58 L 107 64 L 108 66 L 112 64 Q 113 68 115 65 Q 117 66 116 63 L 117 63 Q 116 66 119 65 L 121 65 L 124 66 L 126 65 L 127 66 Q 128 61 126 60 L 122 61 L 121 60 L 114 60 L 114 63 L 112 60 Q 113 57 109 58 Z " /><path fill="rgb(255,255,255)" stroke="rgb(255,255,255)" stroke-width="1" opacity="1" d="M 59.5 30 Q 67.1 28.9 69 33.5 L 54.5 34 L 55.5 32 L 59.5 30 Z " /><path fill="rgb(255,255,255)" stroke="rgb(255,255,255)" stroke-width="1" opacity="1" d="M 82 32 Q 88.1 30.2 90 33.5 Q 91.3 38.8 88.5 40 L 82 40 L 82 32 Z " /><path fill="rgb(255,255,255)" stroke="rgb(255,255,255)" stroke-width="1" opacity="1" d="M 110.5 35 L 114 43.5 L 108 44 L 110.5 35 Z " /><path fill="rgb(255,255,255)" stroke="rgb(255,255,255)" stroke-width="1" opacity="1" d="M 99.5 37 L 100 39.5 L 99 39.5 L 99.5 37 Z " /><path fill="rgb(204,209,229)" stroke="rgb(204,209,229)" stroke-width="1" opacity="1" d="M 21.5 24 L 25 24.5 L 21.5 25 L 21.5 24 Z " /><path fill="rgb(204,209,229)" stroke="rgb(204,209,229)" stroke-width="1" opacity="1" d="M 31.5 24 L 34 24.5 L 31.5 25 L 31.5 24 Z " /><path fill="rgb(204,209,229)" stroke="rgb(204,209,229)" stroke-width="1" opacity="1" d="M 69.5 26 L 70.5 28 L 69.5 26 Z " /><path fill="rgb(204,209,229)" stroke="rgb(204,209,229)" stroke-width="1" opacity="1" d="M 24.5 31 L 26 31.5 L 23.5 33 L 24.5 31 Z " /><path fill="rgb(204,209,229)" stroke="rgb(204,209,229)" stroke-width="1" opacity="1" d="M 29.5 31 L 32 32.5 L 30.5 32 L 29.5 31 Z " /><path fill="rgb(204,209,229)" stroke="rgb(204,209,229)" stroke-width="1" opacity="1" d="M 55.5 31 L 54.5 34 L 68 34.5 L 54.5 35 Q 51 33 55.5 31 Z " /><path fill="rgb(204,209,229)" stroke="rgb(204,209,229)" stroke-width="1" opacity="1" d="M 81.5 32 L 82 40 L 88 40.5 L 82.5 41 L 81 39.5 L 81.5 32 Z " /><path fill="rgb(204,209,229)" stroke="rgb(204,209,229)" stroke-width="1" opacity="1" d="M 110.5 32 L 112 34.5 L 110 33.5 L 110.5 32 Z " /><path fill="rgb(204,209,229)" stroke="rgb(204,209,229)" stroke-width="1" opacity="1" d="M 43.5 34 L 46 34.5 L 43.5 35 L 43.5 34 Z " /><path fill="rgb(204,209,229)" stroke="rgb(204,209,229)" stroke-width="1" opacity="1" d="M 23.5 35 L 28 36.5 L 24.5 37 L 23.5 35 Z " /><path fill="rgb(204,209,229)" stroke="rgb(204,209,229)" stroke-width="1" opacity="1" d="M 41.5 38 L 46 39.5 L 41 40 L 41.5 38 Z " /><path fill="rgb(204,209,229)" stroke="rgb(204,209,229)" stroke-width="1" opacity="1" d="M 52.5 39 L 68 39.5 L 52.5 40 L 52.5 39 Z " /><path fill="rgb(204,209,229)" stroke="rgb(204,209,229)" stroke-width="1" opacity="1" d="M 51.5 41 L 65.5 41 L 67 42.5 L 65.5 42 L 51.5 42 L 51.5 41 Z " /><path fill="rgb(204,209,229)" stroke="rgb(204,209,229)" stroke-width="1" opacity="1" d="M 99.5 41 L 98.5 43 L 99.5 41 Z " /><path fill="rgb(204,209,229)" stroke="rgb(204,209,229)" stroke-width="1" opacity="1" d="M 21.5 43 L 24 43.5 L 21.5 44 L 21.5 43 Z " /><path fill="rgb(204,209,229)" stroke="rgb(204,209,229)" stroke-width="1" opacity="1" d="M 108.5 44 L 114 44.5 L 108.5 45 L 108.5 44 Z " /><path fill="rgb(204,209,229)" stroke="rgb(204,209,229)" stroke-width="1" opacity="1" d="M 47.5 48 L 48.5 50 L 47.5 48 Z " /><path fill="rgb(204,209,229)" stroke="rgb(204,209,229)" stroke-width="1" opacity="1" d="M 70.5 48 L 71 52.5 L 70 52.5 L 70.5 48 Z " /><path fill="rgb(204,209,229)" stroke="rgb(204,209,229)" stroke-width="1" opacity="1" d="M 82.5 48 L 89 48.5 L 82 49 L 81.5 57 L 81 49.5 L 82.5 48 Z " /><path fill="rgb(204,209,229)" stroke="rgb(204,209,229)" stroke-width="1" opacity="1" d="M 24.5 49 L 31 49.5 L 24.5 50 L 24.5 49 Z " /><path fill="rgb(204,209,229)" stroke="rgb(204,209,229)" stroke-width="1" opacity="1" d="M 60.5 51 L 63 51.5 L 60.5 52 L 60.5 51 Z " /><path fill="rgb(204,209,229)" stroke="rgb(204,209,229)" stroke-width="1" opacity="1" d="M 22.5 56 L 26 56.5 L 22.5 57 L 22.5 56 Z " /><path fill="rgb(204,209,229)" stroke="rgb(204,209,229)" stroke-width="1" opacity="1" d="M 31.5 56 L 34 56.5 L 31.5 57 L 31.5 56 Z " /><path fill="rgb(204,209,229)" stroke="rgb(204,209,229)" stroke-width="1" opacity="1" d="M 58.5 56 L 64 56.5 L 58.5 57 L 58.5 56 Z " /><path fill="rgb(204,209,229)" stroke="rgb(204,209,229)" stroke-width="1" opacity="1" d="M 18.5 58 L 21 61.5 L 19.5 61 L 18 60.5 L 18.5 58 Z " /><path fill="rgb(204,209,229)" stroke="rgb(204,209,229)" stroke-width="1" opacity="1" d="M 34.5 58 L 34 59.5 Q 35.3 64.8 32.5 66 L 33 64.5 L 32 60.5 L 34.5 58 Z " /><path fill="rgb(204,209,229)" stroke="rgb(204,209,229)" stroke-width="1" opacity="1" d="M 110.5 58 L 109.5 60 L 110.5 58 Z " /><path fill="rgb(204,209,229)" stroke="rgb(204,209,229)" stroke-width="1" opacity="1" d="M 50.5 60 L 52 63.5 L 50 62.5 L 50.5 60 Z " /><path fill="rgb(204,209,229)" stroke="rgb(204,209,229)" stroke-width="1" opacity="1" d="M 71.5 60 L 72.5 62 L 71.5 60 Z " /><path fill="rgb(204,209,229)" stroke="rgb(204,209,229)" stroke-width="1" opacity="1" d="M 74.5 60 Q 76.8 59.3 76 61.5 L 74.5 60 Z " /><path fill="rgb(204,209,229)" stroke="rgb(204,209,229)" stroke-width="1" opacity="1" d="M 80.5 60 L 79.5 62 L 80.5 60 Z " /><path fill="rgb(204,209,229)" stroke="rgb(204,209,229)" stroke-width="1" opacity="1" d="M 122.5 60 L 123 63 Q 120.3 64.1 121 61.5 L 122.5 60 Z " /><path fill="rgb(204,209,229)" stroke="rgb(204,209,229)" stroke-width="1" opacity="1" d="M 27.5 61 L 28 64.5 L 27 64.5 L 27.5 61 Z " /><path fill="rgb(204,209,229)" stroke="rgb(204,209,229)" stroke-width="1" opacity="1" d="M 59.5 61 Q 62.5 62.5 59.5 64 L 59.5 61 Z " /><path fill="rgb(204,209,229)" stroke="rgb(204,209,229)" stroke-width="1" opacity="1" d="M 100.5 61 L 101 63.5 L 100.5 65 L 99 62.5 L 100.5 61 Z " /><path fill="rgb(204,209,229)" stroke="rgb(204,209,229)" stroke-width="1" opacity="1" d="M 84 62 Q 87.3 60.9 86 65 Q 82.7 66.1 84 62 Z " /><path fill="rgb(204,209,229)" stroke="rgb(204,209,229)" stroke-width="1" opacity="1" d="M 45.5 63 L 48 63.5 L 45.5 64 L 45.5 63 Z " /><path fill="rgb(204,209,229)" stroke="rgb(204,209,229)" stroke-width="1" opacity="1" d="M 89.5 63 L 88.5 65 L 89.5 63 Z " /><path fill="rgb(253,189,0)" stroke="rgb(253,189,0)" stroke-width="1" opacity="1" d="M 59.5 25 Q 67.8 24.8 71 29.5 L 69.5 32 Q 67.1 27.4 59.5 28 L 52 33.5 L 52.5 35 L 67.5 35 L 68 36.5 L 67 39 L 50.5 39 L 50 41.5 L 51.5 43 L 65 43.5 L 64 46 L 52 46.5 L 54.5 50 Q 57.8 53.2 65.5 52 L 68.5 50 L 69 54 L 61.5 56 L 52.5 53 L 49 49.5 L 48 46 L 43 46 L 43 44.5 L 47 41.5 L 47 39 L 43 39 L 43 37.5 L 44 35 L 48 35 L 48 33.5 L 52.5 28 L 59.5 25 Z " /><path fill="rgb(131,142,184)" stroke="rgb(131,142,184)" stroke-width="1" opacity="1" d="M 25.5 24 L 31 24.5 L 25.5 25 L 25.5 24 Z " /><path fill="rgb(131,142,184)" stroke="rgb(131,142,184)" stroke-width="1" opacity="1" d="M 60.5 24 L 63 24.5 L 60.5 25 L 60.5 24 Z " /><path fill="rgb(131,142,184)" stroke="rgb(131,142,184)" stroke-width="1" opacity="1" d="M 73.5 24 L 92 24.5 L 73.5 25 L 73.5 24 Z " /><path fill="rgb(131,142,184)" stroke="rgb(131,142,184)" stroke-width="1" opacity="1" d="M 105.5 24 L 117 24.5 L 105.5 25 L 104.5 26 L 105.5 24 Z " /><path fill="rgb(131,142,184)" stroke="rgb(131,142,184)" stroke-width="1" opacity="1" d="M 17.5 26 L 16.5 28 L 17.5 26 Z " /><path fill="rgb(131,142,184)" stroke="rgb(131,142,184)" stroke-width="1" opacity="1" d="M 39.5 30 L 40 35 L 32 34.5 L 39 34 L 39.5 30 Z " /><path fill="rgb(131,142,184)" stroke="rgb(131,142,184)" stroke-width="1" opacity="1" d="M 49.5 30 L 48.5 32 L 49.5 30 Z " /><path fill="rgb(131,142,184)" stroke="rgb(131,142,184)" stroke-width="1" opacity="1" d="M 98.5 30 L 99 32.5 L 98 32.5 L 98.5 30 Z " /><path fill="rgb(131,142,184)" stroke="rgb(131,142,184)" stroke-width="1" opacity="1" d="M 68.5 31 L 71 32.5 L 69.5 33 L 68.5 31 Z " /><path fill="rgb(131,142,184)" stroke="rgb(131,142,184)" stroke-width="1" opacity="1" d="M 81.5 31 L 89 31.5 L 81.5 32 L 81.5 31 Z " /><path fill="rgb(131,142,184)" stroke="rgb(131,142,184)" stroke-width="1" opacity="1" d="M 110.5 31 L 111.5 33 L 110.5 31 Z " /><path fill="rgb(131,142,184)" stroke="rgb(131,142,184)" stroke-width="1" opacity="1" d="M 47.5 33 L 46.5 35 L 47.5 33 Z " /><path fill="rgb(131,142,184)" stroke="rgb(131,142,184)" stroke-width="1" opacity="1" d="M 90.5 33 L 91 38.5 L 90 38.5 L 90.5 33 Z " /><path fill="rgb(131,142,184)" stroke="rgb(131,142,184)" stroke-width="1" opacity="1" d="M 31.5 37 L 35 37.5 L 31.5 38 L 31.5 37 Z " /><path fill="rgb(131,142,184)" stroke="rgb(131,142,184)" stroke-width="1" opacity="1" d="M 37.5 38 L 39.5 41 L 37.5 38 Z " /><path fill="rgb(131,142,184)" stroke="rgb(131,142,184)" stroke-width="1" opacity="1" d="M 98.5 39 L 100 42.5 L 98 41.5 L 98.5 39 Z " /><path fill="rgb(131,142,184)" stroke="rgb(131,142,184)" stroke-width="1" opacity="1" d="M 16.5 40 L 17.5 42 L 16.5 40 Z " /><path fill="rgb(131,142,184)" stroke="rgb(131,142,184)" stroke-width="1" opacity="1" d="M 107.5 42 L 108 44.5 L 107 44.5 L 107.5 42 Z " /><path fill="rgb(131,142,184)" stroke="rgb(131,142,184)" stroke-width="1" opacity="1" d="M 24.5 43 L 29 43.5 L 24.5 44 L 24.5 43 Z " /><path fill="rgb(131,142,184)" stroke="rgb(131,142,184)" stroke-width="1" opacity="1" d="M 40.5 43 L 41 49.5 L 40 49.5 L 40.5 43 Z " /><path fill="rgb(131,142,184)" stroke="rgb(131,142,184)" stroke-width="1" opacity="1" d="M 97.5 44 L 99 46.5 L 98 46.5 L 97.5 45 L 95 46.5 L 97.5 44 Z " /><path fill="rgb(131,142,184)" stroke="rgb(131,142,184)" stroke-width="1" opacity="1" d="M 46.5 46 L 47.5 48 L 46.5 46 Z " /><path fill="rgb(131,142,184)" stroke="rgb(131,142,184)" stroke-width="1" opacity="1" d="M 53.5 46 L 56 49.5 L 53 47.5 L 53.5 46 Z " /><path fill="rgb(131,142,184)" stroke="rgb(131,142,184)" stroke-width="1" opacity="1" d="M 32.5 47 L 33 48.5 L 31 49.5 L 32.5 47 Z " /><path fill="rgb(131,142,184)" stroke="rgb(131,142,184)" stroke-width="1" opacity="1" d="M 51.5 52 L 52.5 54 L 51.5 52 Z " /><path fill="rgb(131,142,184)" stroke="rgb(131,142,184)" stroke-width="1" opacity="1" d="M 16.5 53 L 17.5 55 L 16.5 53 Z " /><path fill="rgb(131,142,184)" stroke="rgb(131,142,184)" stroke-width="1" opacity="1" d="M 117.5 54 L 118 56 L 126 56.5 L 118.5 57 L 117.5 54 Z " /><path fill="rgb(131,142,184)" stroke="rgb(131,142,184)" stroke-width="1" opacity="1" d="M 26.5 56 L 31 56.5 L 26.5 57 L 26.5 56 Z " /><path fill="rgb(131,142,184)" stroke="rgb(131,142,184)" stroke-width="1" opacity="1" d="M 74.5 56 L 81 56.5 L 74.5 57 L 74.5 56 Z " /><path fill="rgb(131,142,184)" stroke="rgb(131,142,184)" stroke-width="1" opacity="1" d="M 96.5 56 L 104 56.5 L 96.5 57 L 96.5 56 Z " /><path fill="rgb(131,142,184)" stroke="rgb(131,142,184)" stroke-width="1" opacity="1" d="M 16.5 58 Q 18.8 57.3 18 59.5 Q 16.5 62.5 15 59.5 L 16.5 58 Z " /><path fill="rgb(131,142,184)" stroke="rgb(131,142,184)" stroke-width="1" opacity="1" d="M 44.5 58 L 48 59.5 L 45.5 60 L 44 59.5 L 43.5 64 L 43 59.5 L 44.5 58 Z " /><path fill="rgb(131,142,184)" stroke="rgb(131,142,184)" stroke-width="1" opacity="1" d="M 66.5 58 Q 68.8 57.3 68 59.5 Q 65.7 60.8 68.5 62 L 70 61.5 L 67 63 Q 68 66 65 65 Q 63.5 59.6 66.5 58 Z " /><path fill="rgb(131,142,184)" stroke="rgb(131,142,184)" stroke-width="1" opacity="1" d="M 98.5 59 L 100 61.5 L 99 61.5 L 98.5 59 Z " /><path fill="rgb(131,142,184)" stroke="rgb(131,142,184)" stroke-width="1" opacity="1" d="M 23 60 L 27 60.5 L 24 61.5 L 25 65 L 23 65 L 23 60 Z " /><path fill="rgb(131,142,184)" stroke="rgb(131,142,184)" stroke-width="1" opacity="1" d="M 29.5 60 L 33 61.5 L 32.5 65 L 31 62.5 L 31.5 61 L 29 61.5 L 29.5 64 Q 31.8 63.3 31 65.5 L 31.5 67 L 28 65.5 L 28 63.5 L 29.5 60 Z " /><path fill="rgb(131,142,184)" stroke="rgb(131,142,184)" stroke-width="1" opacity="1" d="M 37 60 L 40 61.5 Q 41.1 65.7 37 64 L 37 60 Z " /><path fill="rgb(131,142,184)" stroke="rgb(131,142,184)" stroke-width="1" opacity="1" d="M 54 60 L 57 60.5 L 55 61.5 L 56 65 L 54 65 L 54 60 Z " /><path fill="rgb(131,142,184)" stroke="rgb(131,142,184)" stroke-width="1" opacity="1" d="M 60.5 60 L 61.5 62 Q 58.7 62.7 60.5 60 Z " /><path fill="rgb(131,142,184)" stroke="rgb(131,142,184)" stroke-width="1" opacity="1" d="M 72.5 60 L 75 61.5 Q 76.8 66.8 71.5 65 L 71.5 64 L 73 63.5 L 71 63 L 72.5 60 Z M 73 61 L 74 63 Q 75 60 73 61 Z " /><path fill="rgb(131,142,184)" stroke="rgb(131,142,184)" stroke-width="1" opacity="1" d="M 78.5 60 L 80.5 61 L 84.5 60 L 87 61 L 86.5 65 L 86 62 L 81.5 61 L 81.5 65 L 80 61 L 78.5 60 Z " /><path fill="rgb(131,142,184)" stroke="rgb(131,142,184)" stroke-width="1" opacity="1" d="M 89 60 L 92 61.5 L 90.5 65 L 89 60 Z " /><path fill="rgb(131,142,184)" stroke="rgb(131,142,184)" stroke-width="1" opacity="1" d="M 93.5 60 L 97 61 L 96.5 65 L 95.5 62 L 93.5 60 Z " /><path fill="rgb(131,142,184)" stroke="rgb(131,142,184)" stroke-width="1" opacity="1" d="M 101.5 60 Q 105.3 59 104 62 Q 101 61 102 64 L 104.5 63 L 103.5 65 Q 99.8 66.3 101 62.5 L 101.5 60 Z " /><path fill="rgb(131,142,184)" stroke="rgb(131,142,184)" stroke-width="1" opacity="1" d="M 114 60 L 117.5 61 L 119 60.5 L 118 63.5 L 118.5 65 L 117 61 L 115 61.5 L 116 65 L 114 65 L 114 60 Z " /><path fill="rgb(131,142,184)" stroke="rgb(131,142,184)" stroke-width="1" opacity="1" d="M 123 60 L 126 60.5 L 124 63.5 L 126 64.5 L 124.5 65 Q 122 63.8 123 60 Z " /><path fill="rgb(131,142,184)" stroke="rgb(131,142,184)" stroke-width="1" opacity="1" d="M 18.5 61 L 20 63.5 L 18 64.5 L 19 62.5 L 18.5 61 Z " /><path fill="rgb(131,142,184)" stroke="rgb(131,142,184)" stroke-width="1" opacity="1" d="M 77.5 62 L 78.5 64 L 76 63.5 L 77.5 62 Z " /><path fill="rgb(131,142,184)" stroke="rgb(131,142,184)" stroke-width="1" opacity="1" d="M 108.5 62 L 113 62.5 L 112.5 65 L 109.5 64 L 108 64.5 L 108.5 62 Z " /><path fill="rgb(131,142,184)" stroke="rgb(131,142,184)" stroke-width="1" opacity="1" d="M 119.5 62 Q 122.1 61.2 121 64.5 L 120 64.5 L 119.5 62 Z " /><path fill="rgb(131,142,184)" stroke="rgb(131,142,184)" stroke-width="1" opacity="1" d="M 50.5 63 L 53 64.5 L 51.5 65 L 50.5 63 Z " /><path fill="rgb(131,142,184)" stroke="rgb(131,142,184)" stroke-width="1" opacity="1" d="M 60 63 L 62 63.5 L 60 64.5 L 60 63 Z " /><path fill="rgb(131,142,184)" stroke="rgb(131,142,184)" stroke-width="1" opacity="1" d="M 99.5 63 L 98.5 65 L 99.5 63 Z " /><path fill="rgb(17,42,141)" stroke="rgb(17,42,141)" stroke-width="1" opacity="0.9921568627450981" d="M 0 0 L 2 0.5 L 0 1.5 L 0 0 Z " /><path fill="rgb(17,42,141)" stroke="rgb(17,42,141)" stroke-width="1" opacity="0.9921568627450981" d="M 138.5 0 Q 140.8 -0.8 140 1.5 L 138.5 0 Z " /><path fill="rgb(17,42,141)" stroke="rgb(17,42,141)" stroke-width="1" opacity="0.9921568627450981" d="M 20.5 25 L 34.5 25 L 39 28.5 L 39 34 L 32 34 L 30.5 31 Q 24.5 29.5 23 32.5 Q 22.3 36.3 24.5 37 L 36.5 38 L 40 41.5 Q 41.2 50.4 39 54 L 34.5 56 L 20.5 56 L 16 52.5 L 15 46 L 21.5 46 L 22 47.5 L 23 50 L 31.5 50 L 33 48.5 Q 33.8 44.8 31.5 44 L 20.5 43 L 16 39.5 L 15 31.5 L 18.5 26 L 20.5 25 Z " /><path fill="rgb(17,42,141)" stroke="rgb(17,42,141)" stroke-width="1" opacity="0.9921568627450981" d="M 73 25 L 93.5 25 L 97 27.5 L 99 33.5 L 99 38.5 L 98 43.5 L 94.5 47 L 92.5 48 L 81 48 L 81 56 L 73 56 L 73 25 Z M 81 31 L 81 41 L 89 41 Q 92 40 91 34 L 89 31 L 81 31 Z " /><path fill="rgb(17,42,141)" stroke="rgb(17,42,141)" stroke-width="1" opacity="0.9921568627450981" d="M 105.5 25 L 116.5 25 L 117 26.5 L 126 55.5 L 118 56 L 117 51 L 105.5 51 L 105 52.5 L 104 56 L 96.5 56 L 96 54.5 L 103 29.5 L 105.5 25 Z M 111 31 L 107 43 L 107 45 L 115 45 L 112 33 L 111 31 Z " /><path fill="rgb(17,42,141)" stroke="rgb(17,42,141)" stroke-width="1" opacity="0.9921568627450981" d="M 16.5 59 L 16.5 61 L 19 62.5 L 17.5 65 L 15 63.5 L 16.5 64 Q 19.1 64.7 18 62 L 15 60.5 L 16.5 59 Z " /><path fill="rgb(17,42,141)" stroke="rgb(17,42,141)" stroke-width="1" opacity="0.9921568627450981" d="M 34.5 59 L 35 63.5 L 34 63.5 L 34.5 59 Z " /><path fill="rgb(17,42,141)" stroke="rgb(17,42,141)" stroke-width="1" opacity="0.9921568627450981" d="M 44.5 59 L 45 61 L 47 61.5 L 45 62 Q 43.9 64.7 46.5 64 L 46.5 65 L 44 65 L 44.5 59 Z " /><path fill="rgb(17,42,141)" stroke="rgb(17,42,141)" stroke-width="1" opacity="0.9921568627450981" d="M 68.5 59 Q 71.5 60.5 68.5 62 L 68.5 59 Z " /><path fill="rgb(17,42,141)" stroke="rgb(17,42,141)" stroke-width="1" opacity="0.9921568627450981" d="M 110.5 59 L 113 63.5 L 111 62.5 L 110.5 61 L 108.5 64 L 109 62.5 L 110.5 59 Z " /><path fill="rgb(17,42,141)" stroke="rgb(17,42,141)" stroke-width="1" opacity="0.9921568627450981" d="M 59.5 60 L 58.5 62 L 59.5 60 Z " /><path fill="rgb(17,42,141)" stroke="rgb(17,42,141)" stroke-width="1" opacity="0.9921568627450981" d="M 98.5 60 L 100 64.5 L 98 63.5 L 98.5 60 Z " /><path fill="rgb(17,42,141)" stroke="rgb(17,42,141)" stroke-width="1" opacity="0.9921568627450981" d="M 119.5 60 L 120.5 62 L 119 61.5 L 120 64.5 L 118 63.5 L 119.5 60 Z " /><path fill="rgb(17,42,141)" stroke="rgb(17,42,141)" stroke-width="1" opacity="0.9921568627450981" d="M 21.5 61 L 22 63.5 L 21 63.5 L 21.5 61 Z " /><path fill="rgb(17,42,141)" stroke="rgb(17,42,141)" stroke-width="1" opacity="0.9921568627450981" d="M 26.5 61 L 27 63.5 L 26 63.5 L 26.5 61 Z " /><path fill="rgb(17,42,141)" stroke="rgb(17,42,141)" stroke-width="1" opacity="0.9921568627450981" d="M 36.5 61 L 37 64 L 39 64.5 L 37.5 65 Q 35 64 36.5 61 Z " /><path fill="rgb(17,42,141)" stroke="rgb(17,42,141)" stroke-width="1" opacity="0.9921568627450981" d="M 49.5 61 L 51 64.5 L 49 63.5 L 49.5 61 Z " /><path fill="rgb(17,42,141)" stroke="rgb(17,42,141)" stroke-width="1" opacity="0.9921568627450981" d="M 52.5 61 L 53 63.5 L 52 63.5 L 52.5 61 Z " /><path fill="rgb(17,42,141)" stroke="rgb(17,42,141)" stroke-width="1" opacity="0.9921568627450981" d="M 76.5 61 L 77.5 63 L 78.5 61 L 79 62.5 L 77.5 66 L 76.5 61 Z " /><path fill="rgb(17,42,141)" stroke="rgb(17,42,141)" stroke-width="1" opacity="0.9921568627450981" d="M 83.5 61 L 84 63.5 L 83 63.5 L 83.5 61 Z " /><path fill="rgb(17,42,141)" stroke="rgb(17,42,141)" stroke-width="1" opacity="0.9921568627450981" d="M 88.5 61 L 90 64.5 L 88 63.5 L 88.5 61 Z " /><path fill="rgb(17,42,141)" stroke="rgb(17,42,141)" stroke-width="1" opacity="0.9921568627450981" d="M 93.5 61 L 94 63.5 L 93 63.5 L 93.5 61 Z " /><path fill="rgb(17,42,141)" stroke="rgb(17,42,141)" stroke-width="1" opacity="0.9921568627450981" d="M 101.5 61 L 104 62 L 103.5 64 L 101.5 61 Z " /><path fill="rgb(17,42,141)" stroke="rgb(17,42,141)" stroke-width="1" opacity="0.9921568627450981" d="M 125.5 61 L 126 63.5 L 125 63.5 L 125.5 61 Z " /><path fill="rgb(17,42,141)" stroke="rgb(17,42,141)" stroke-width="1" opacity="0.9921568627450981" d="M 31.5 63 L 32 65.5 L 31 65.5 L 31.5 63 Z " /><path fill="rgb(17,42,141)" stroke="rgb(17,42,141)" stroke-width="1" opacity="0.9921568627450981" d="M 58.5 63 L 59.5 65 L 58.5 63 Z " /><path fill="rgb(17,42,141)" stroke="rgb(17,42,141)" stroke-width="1" opacity="0.9921568627450981" d="M 122.5 63 L 123.5 65 L 122.5 63 Z " /><path fill="rgb(17,42,141)" stroke="rgb(17,42,141)" stroke-width="1" opacity="0.9921568627450981" d="M 0.5 88 L 1.5 90 Q -1.3 90.7 0.5 88 Z " /><path fill="rgb(17,42,141)" stroke="rgb(17,42,141)" stroke-width="1" opacity="0.9921568627450981" d="M 139.5 88 L 140 90 L 138 89.5 L 139.5 88 Z " /><path fill="rgb(210,164,28)" stroke="rgb(210,164,28)" stroke-width="1" opacity="1" d="M 63.5 25 L 66 25.5 L 63.5 26 L 63.5 25 Z " /><path fill="rgb(210,164,28)" stroke="rgb(210,164,28)" stroke-width="1" opacity="1" d="M 54.5 26 L 56 26.5 L 53.5 28 L 54.5 26 Z " /><path fill="rgb(210,164,28)" stroke="rgb(210,164,28)" stroke-width="1" opacity="1" d="M 69.5 27 L 71.5 30 L 69.5 27 Z " /><path fill="rgb(210,164,28)" stroke="rgb(210,164,28)" stroke-width="1" opacity="1" d="M 51.5 28 L 50.5 30 L 51.5 28 Z " /><path fill="rgb(210,164,28)" stroke="rgb(210,164,28)" stroke-width="1" opacity="1" d="M 59.5 28 L 64 28.5 L 59.5 29 L 59.5 28 Z " /><path fill="rgb(210,164,28)" stroke="rgb(210,164,28)" stroke-width="1" opacity="1" d="M 65.5 29 L 68 30.5 L 66.5 30 L 65.5 29 Z " /><path fill="rgb(210,164,28)" stroke="rgb(210,164,28)" stroke-width="1" opacity="1" d="M 55.5 30 L 53 33.5 L 52.5 35 L 52 33.5 L 55.5 30 Z " /><path fill="rgb(210,164,28)" stroke="rgb(210,164,28)" stroke-width="1" opacity="1" d="M 43.5 35 L 44 36.5 L 42.5 39 L 42 37.5 L 43.5 35 Z " /><path fill="rgb(210,164,28)" stroke="rgb(210,164,28)" stroke-width="1" opacity="1" d="M 68.5 35 L 69 36.5 L 67.5 39 L 67 37.5 L 68.5 35 Z " /><path fill="rgb(210,164,28)" stroke="rgb(210,164,28)" stroke-width="1" opacity="1" d="M 46.5 39 L 47 41.5 L 43.5 44 L 44.5 42 Q 47.4 42.7 46.5 39 Z " /><path fill="rgb(210,164,28)" stroke="rgb(210,164,28)" stroke-width="1" opacity="1" d="M 50.5 39 L 51 42 L 66 42.5 L 51.5 43 Q 49 42 50.5 39 Z " /><path fill="rgb(210,164,28)" stroke="rgb(210,164,28)" stroke-width="1" opacity="1" d="M 42.5 45 L 46 46.5 L 43.5 47 L 42.5 45 Z " /><path fill="rgb(210,164,28)" stroke="rgb(210,164,28)" stroke-width="1" opacity="1" d="M 54.5 46 L 63 46.5 L 54.5 47 L 54.5 46 Z " /><path fill="rgb(210,164,28)" stroke="rgb(210,164,28)" stroke-width="1" opacity="1" d="M 53.5 48 L 54.5 50 L 53.5 48 Z " /><path fill="rgb(210,164,28)" stroke="rgb(210,164,28)" stroke-width="1" opacity="1" d="M 68.5 49 Q 71.9 48.1 70 53.5 L 69 53.5 L 68.5 50 L 67 50.5 L 68.5 49 Z " /><path fill="rgb(210,164,28)" stroke="rgb(210,164,28)" stroke-width="1" opacity="1" d="M 53.5 53 L 56 54.5 L 54.5 55 L 53.5 53 Z " /><path fill="rgb(210,164,28)" stroke="rgb(210,164,28)" stroke-width="1" opacity="1" d="M 57.5 55 L 61 55.5 L 57.5 56 L 57.5 55 Z " /><path fill="rgb(210,164,28)" stroke="rgb(210,164,28)" stroke-width="1" opacity="1" d="M 62.5 55 L 66 55.5 L 62.5 56 L 62.5 55 Z " /></svg>