<?xml version="1.0" encoding="UTF-8"?><svg id="Layer_2" xmlns="http://www.w3.org/2000/svg" width="399.5897" height="202.8925" xmlns:xlink="http://www.w3.org/1999/xlink" viewBox="0 0 399.5897 202.8925"><defs><style>.cls-1{fill:url(#radial-gradient-2);}.cls-2{fill:url(#radial-gradient);}.cls-3{fill:#fff;}</style><radialGradient id="radial-gradient" cx="-974.6034" cy="512.2493" fx="-974.6034" fy="512.2493" r=".8187" gradientTransform="translate(65967.4984 -39051.0009) scale(67.6 76.4)" gradientUnits="userSpaceOnUse"><stop offset="0" stop-color="#fc0"/><stop offset="0" stop-color="#ffc800"/><stop offset=".2" stop-color="#ffbd00"/><stop offset=".3" stop-color="#ffab00"/><stop offset=".3" stop-color="#ff9100"/><stop offset=".4" stop-color="#ff7000"/><stop offset=".5" stop-color="#ff4700"/><stop offset=".6" stop-color="#ff1800"/><stop offset=".6" stop-color="red"/><stop offset="1" stop-color="red"/></radialGradient><radialGradient id="radial-gradient-2" cx="-965.5117" cy="512.2584" fx="-965.5117" fy="512.2584" r=".9893" gradientTransform="translate(48802.5 -39048.1025) scale(50.5 76.4)" gradientUnits="userSpaceOnUse"><stop offset="0" stop-color="#00b4e6"/><stop offset=".2" stop-color="#00b0e3"/><stop offset=".4" stop-color="#01a5db"/><stop offset=".6" stop-color="#0292cd"/><stop offset=".8" stop-color="#0377ba"/><stop offset=".9" stop-color="#0455a1"/><stop offset="1" stop-color="#054696"/></radialGradient></defs><g id="Layer_3"><g id="Layer_3-2"><rect width="399.5897" height="202.8925" rx="44.1347" ry="44.1347"/></g><polygon class="cls-3" points="366.4296 82.5427 328.3248 82.5427 328.3248 91.651 341.9702 91.651 341.9702 130.6086 352.75 130.6086 352.75 91.651 366.3954 91.651 366.3954 82.5427 366.4296 82.5427"/><polygon class="cls-3" points="193.2012 82.5427 155.0624 82.5427 155.0624 91.651 168.7078 91.651 168.7078 130.6086 179.4876 130.6086 179.4876 91.651 193.133 91.651 193.2013 82.5427 193.2013 82.5427 193.2012 82.5427"/><path class="cls-3" d="M303.5243,81.0758c-11.9738,0-18.6942,7.7096-18.6942,18.7624v30.8727h10.7116v-31.0433c0-4.81,2.8314-8.5625,8.0849-8.5625s8.0167,4.4348,8.0167,8.5625v31.0433h10.6434v-30.8727c.1365-11.121-6.7886-18.7624-18.8307-18.7624h.0682Z"/><rect class="cls-3" x="263.3045" y="82.5427" width="10.6434" height="48.0659"/><polyline class="cls-3" points="227.0759 101.6462 227.383 103.7954 237.4465 130.7109 241.813 130.7109 255.4584 82.645 244.9514 82.645 238.4699 107.889 238.0605 110.6181 237.5147 107.889 228.8157 82.645 225.3362 82.645 216.6372 107.889 216.0914 110.6181 215.7844 107.889 209.3028 82.645 198.7276 82.645 212.373 130.7109 216.7396 130.7109 226.803 103.7954 227.1101 101.6462"/><path class="cls-3" d="M127.1428,128.2547c0,1.3987-.9893,3.0702-2.2174,3.7525l-42.5736,24.6299c-1.2281.6823-3.2067.6823-4.4348,0l-42.5395-24.6299c-1.2281-.6823-2.2174-2.4221-2.2174-3.7525v-49.2599c0-1.3987.9893-3.0702,2.2174-3.7525l42.5736-24.6299c1.2281-.6823,3.2067-.6823,4.4348,0l42.5736,24.6299c1.2281.6823,2.2174,2.4221,2.2174,3.7525v49.2599h-.0341Z"/><path id="Shape1" class="cls-2" d="M105.5102,103.7613l-11.8033,17.3638-6.0381-9.2448,6.9592-10.4387c1.2963-1.8421,4.0595-6.9592.8528-13.9524-2.5585-5.697-8.1872-8.3919-13.1678-8.3919s-10.3023,2.5585-13.1678,8.3919c-3.2749,6.7545-.4435,11.9397.7846,13.7136,0,0,3.9231,5.697,7.0956,10.4387l5.2535,7.6073,7.8802,12.0762c.0682.0682,1.2963,1.9786,3.4796,1.9786s3.4113-1.9104,3.5478-2.0468l18.4895-27.3931h-10.234v-.1365h.0682v.0341ZM82.2448,104.2047s-3.0702-4.7077-5.117-7.9826c-2.1492-3.4796.2047-8.7331,5.117-8.7331s7.2662,5.2535,5.117,8.7331c-1.9786,3.2749-5.117,7.9826-5.117,7.9826Z"/><path class="cls-1" d="M70.9532,120.5451l-11.5986-16.2721s-3.0702-4.7077-5.117-7.9826c-2.1491-3.4796.2047-8.7331,5.117-8.7331s1.1257.0682,1.7057.2047l4.0595-7.4709c-1.8421-.7846-3.9231-1.194-5.7652-1.194-4.9123,0-10.3023,2.5585-13.1678,8.3919-3.2749,6.7545-.4435,11.9397.7846,13.7136l20.2634,30.0881c.2047.2047,1.501,2.1491,3.616,2.1491s3.4113-1.8421,3.5478-2.0468l6.1063-9.313-5.2535-7.6755-4.3324,6.1745h0l.0341-.0341Z"/></g></svg>