<?xml version="1.0" encoding="UTF-8"?>
<svg id="Capa_1" xmlns="http://www.w3.org/2000/svg" xmlns:xlink="http://www.w3.org/1999/xlink" version="1.1" viewBox="0 0 870.7 483.3">
  <!-- Generator: Adobe Illustrator 29.3.1, SVG Export Plug-In . SVG Version: 2.1.0 Build 151)  -->
  <defs>
    <style>
      .st0 {
        fill: #0a0b09;
      }

      .st1 {
        fill: #ffb3c7;
      }
    </style>
  </defs>
  <g id="Calque_1">
    <g>
      <path class="st1" d="M83.5,0h703.7c46.2,0,83.5,37.3,83.5,83.5v316.3c0,46.2-37.3,83.5-83.5,83.5H83.5c-46.2,0-83.5-37.3-83.5-83.5V83.5C0,37.3,37.3,0,83.5,0Z"/>
      <path class="st0" d="M788.9,284.3c-10.7,0-21.3,8.9-21.3,21.3s8.9,21.3,21.3,21.3,21.3-8.9,21.3-21.3-8.9-21.3-21.3-21.3h0ZM721.4,268.3c0-16-14.2-28.4-30.2-28.4s-30.2,12.4-30.2,28.4,14.2,28.4,30.2,28.4,30.2-12.4,30.2-28.4ZM721.4,213.2h33.8v110.2h-33.8v-7.1c-8.9,7.1-21.3,10.7-32,10.7-32,0-58.6-26.7-58.6-58.6s26.7-58.6,58.6-58.6,23.1,3.6,32,10.7v-7.1h0ZM458.4,227.4v-14.2h-33.8v110.2h33.8v-51.5c0-17.8,19.5-26.7,32-26.7h0v-32c-12.4,0-24.9,5.3-32,14.2h0ZM374.9,268.3c0-16-14.2-28.4-30.2-28.4s-30.2,12.4-30.2,28.4,14.2,28.4,30.2,28.4,30.2-12.4,30.2-28.4ZM374.9,213.2h33.8v110.2h-33.8v-7.1c-8.9,7.1-21.3,10.7-32,10.7-32,0-58.6-26.7-58.6-58.6s26.7-58.6,58.6-58.6,23.1,3.6,32,10.7v-7.1h0ZM572.2,209.7c-12.4,0-24.9,3.6-33.8,16v-12.4h-32v110.2h33.8v-58.6c0-16,10.7-24.9,24.9-24.9s23.1,8.9,23.1,24.9v58.6h32v-71.1c0-24.9-21.3-42.6-48-42.6h0ZM236.3,323.4h33.8v-159.9h-33.8v159.9ZM85.3,325.2h37.3v-159.9h-37.3v159.9ZM213.2,163.5c0,35.5-14.2,67.5-37.3,90.6l49.8,69.3h-44.4l-55.1-74.6,14.2-10.7c23.1-17.8,37.3-44.4,37.3-74.6h35.5Z"/>
    </g>
  </g>
</svg>