<?xml version="1.0" encoding="UTF-8"?><svg id="Layer_2" xmlns="http://www.w3.org/2000/svg" width="22.8116" height="11.6117" viewBox="0 0 22.8116 11.6117"><defs><style>.cls-1{fill:#fff;}.cls-2{fill:#38544c;}</style></defs><g id="Layer_2-2"><rect class="cls-2" width="22.8116" height="11.6117" rx="1.2056" ry="1.2056"/><path class="cls-1" d="M16.6394,4.8273c-.2175.0914-.3648-.0918-.5693-.1614-.7372-.2509-1.5041-.4238-2.2406-.0465-1.0935.5605-.8608,2.2244.3281,2.5419.6785.1813,1.2744.0314,1.9124-.1858.2045-.0696.352-.2528.5693-.1614v3.0678c0,.2926-1.0214.4237-1.255.4405-1.8793.1349-3.7311-.4394-4.734-2.1105l-.3848-.755v2.0161c0,.4803-.8691-.2392-.9947-.35-1.9923-1.7543-1.8521-5.3751.3581-6.8895.0968-.0665.3468-.2519.4428-.2598.0676-.0056.194.111.194.1365v2.0161l.4437-.813c1.0288-1.5857,3.0741-2.2547,4.8997-1.9849.2115.0314,1.0304.1714,1.0304.4311v3.0678-.0003.0003Z"/><path class="cls-1" d="M7.459,2.7821v5.9895c0,.0215-.0883.0995-.1455.0874-.0388-.0083-.4348-.5386-.4873-.6238-.9137-1.4784-.8729-3.6196.1398-5.0402.1081-.1516.3008-.4441.493-.413Z"/></g></svg>