<?xml version="1.0" encoding="UTF-8"?><svg id="Layer_2" xmlns="http://www.w3.org/2000/svg" width="870.1067" height="313.1733" viewBox="0 0 870.1067 313.1733"><defs><style>.cls-1{fill:#fbbc09;}.cls-2{fill:#2350a9;}</style></defs><g id="Layer_1-2"><g id="Calque_1"><g id="g10"><g id="g12"><path id="path14" class="cls-2" d="M.2267,284.8533l8.92-.9067c.5333,3.0133,1.6267,5.2133,3.2667,6.6267,1.64,1.4133,3.8533,2.12,6.64,2.12,2.9467,0,5.1733-.6267,6.68-1.88,1.4933-1.2533,2.24-2.72,2.24-4.4,0-1.08-.32-1.9867-.9467-2.7467-.6267-.76-1.72-1.4133-3.2933-1.9733-1.0667-.36-3.5067-1.0267-7.32-1.9733-4.9067-1.2133-8.3467-2.7067-10.32-4.48-2.7867-2.4933-4.1733-5.5333-4.1733-9.12,0-2.3067.6533-4.4667,1.96-6.4667,1.3067-2.0133,3.2-3.5467,5.6667-4.5867,2.4667-1.0533,5.4533-1.5733,8.9333-1.5733,5.6933,0,9.9867,1.2533,12.8667,3.76s4.3867,5.8533,4.5333,10.0267l-9.1867.36c-.3867-2.3333-1.24-4.0133-2.52-5.04-1.2933-1.0267-3.2267-1.5333-5.8-1.5333-2.6667,0-4.7467.5467-6.2533,1.64-.9733.7067-1.4533,1.64-1.4533,2.8133,0,1.08.4533,1.9867,1.36,2.76,1.16.9733,3.96,1.9867,8.4133,3.0267,4.4533,1.0533,7.76,2.1333,9.8933,3.2667s3.8,2.6667,5.0133,4.6267c1.2,1.96,1.8133,4.3733,1.8133,7.2533,0,2.6133-.72,5.0533-2.1733,7.3333-1.44,2.28-3.4933,3.9733-6.1333,5.08s-5.9467,1.6667-9.8933,1.6667c-5.7467,0-10.16-1.3333-13.24-4-3.0533-2.6666-4.8933-6.5599-5.4933-11.6799"/><path id="path16" class="cls-2" d="M46.7067,299.72v-32.8933h8.7467v32.8933h-8.7467ZM46.7067,262.3333v-8.0267h8.7467v8.0267h-8.7467"/><path id="path18" class="cls-2" d="M96.24,299.72h-8.7467v-16.8267c0-3.56-.1867-5.8533-.56-6.9067-.3733-1.04-.9733-1.8667-1.8-2.44-.84-.5733-1.84-.8667-3.0133-.8667-1.5067,0-2.8533.4133-4.04,1.24-1.2.8267-2.0133,1.92-2.4533,3.2933-.44,1.36-.6667,3.88-.6667,7.5733v14.9333h-8.7467v-32.8933h8.1067v4.8267c2.8667-3.76,6.48-5.64,10.84-5.64,1.92,0,3.68.3467,5.2667,1.04s2.7867,1.5733,3.6133,2.6533c.8133,1.08,1.3867,2.2933,1.7067,3.6667.32,1.36.48,3.32.48,5.8667l.0133,20.48"/><path id="path20" class="cls-2" d="M113.92,282.5733c0,3.5067.6667,6.0667,2.0133,7.6933s3,2.44,4.96,2.44c2.1067,0,3.8933-.84,5.3467-2.5067s2.1867-4.1333,2.1867-7.4133c0-3.4133-.6933-5.9467-2.0933-7.6133-1.4-1.6533-3.16-2.48-5.28-2.48-2.0667,0-3.7733.8133-5.12,2.44-1.3467,1.6267-2.0133,4.1067-2.0133,7.44ZM106.08,301.8933l9.9067,1.08c.16,1.2267.5467,2.0667,1.1467,2.5333.8267.6533,2.1333.9867,3.92.9867,2.28,0,3.9867-.3467,5.1333-1.0267.76-.4533,1.3467-1.1867,1.7467-2.2.2667-.72.4-2.0533.4-4l.0267-4.8c-2.5733,3.5067-5.8533,5.2667-9.8133,5.2667-4.4267,0-7.9333-1.8667-10.5067-5.6133-2.0267-2.96-3.04-6.64-3.04-11.0533,0-5.52,1.3333-9.7467,3.9867-12.6667s5.96-4.3733,9.9067-4.3733c4.0667,0,7.4267,1.7867,10.08,5.36v-4.56h8.1067v29.5733c0,3.8933-.32,6.8-.96,8.72-.64,1.9333-1.5467,3.44-2.7067,4.5333-1.16,1.0933-2.7067,1.96-4.64,2.5733-1.9333.6267-4.3867.9333-7.3333.9333-5.5867,0-9.5467-.96-11.88-2.88-2.3333-1.92-3.5067-4.36-3.5067-7.32-.0133-.2934,0-.6534.0267-1.0667"/><path id="path22" class="cls-2" d="M147.5466,299.72h8.7467v-45.4267h-8.7467v45.4267Z"/><path id="path24" class="cls-2" d="M186.72,280.5333c-.0667-2.56-.72-4.5067-1.96-5.84-1.24-1.3333-2.76-2-4.5467-2-1.9067,0-3.4933.7067-4.7333,2.1067-1.2533,1.4-1.8667,3.32-1.84,5.7333h13.08ZM186.2666,289.36l8.6533,1.44c-1.12,3.1733-2.8933,5.5867-5.3067,7.24-2.4133,1.6667-5.44,2.4933-9.0667,2.4933-5.7467,0-9.9867-1.88-12.7467-5.6267-2.1733-3-3.2667-6.8-3.2667-11.3867,0-5.4667,1.4267-9.76,4.2933-12.8533,2.8533-3.1067,6.4667-4.6533,10.84-4.6533,4.9067,0,8.7867,1.6267,11.6267,4.88,2.84,3.2533,4.1867,8.24,4.0667,14.9467h-21.8933c.0667,2.5867.7733,4.6,2.12,6.04,1.36,1.44,3.04,2.16,5.0667,2.16,1.3733,0,2.5333-.3733,3.4667-1.1067.96-.7334,1.6667-1.9201,2.1467-3.5734"/><path id="path26" class="cls-2" d="M223.9733,299.72v-45.4267h33.6133v7.6667h-24.4267v10.0933h22.7067v7.6667h-22.7067v12.3467h25.32v7.6533h-34.5067"/><path id="path28" class="cls-2" d="M289.7333,299.72v-4.92c-1.2,1.76-2.7867,3.1467-4.7333,4.1867-1.96,1.0267-4.0267,1.5467-6.2,1.5467-2.2133,0-4.2-.48-5.96-1.4533-1.76-.9733-3.04-2.3333-3.8267-4.0933s-1.1733-4.1867-1.1733-7.2933v-20.8533h8.7467v15.1333c0,4.6267.16,7.4667.48,8.5067.32,1.0533.9067,1.88,1.7467,2.48.8533.6133,1.92.9067,3.2267.9067,1.4933,0,2.8267-.4,4-1.2267,1.1733-.8133,1.9867-1.8267,2.4133-3.04.4267-1.2133.6533-4.1733.6533-8.88v-13.8933h8.7467v32.8933h-8.1201"/><path id="path30" class="cls-2" d="M317.0533,299.72h-8.7467v-32.8933h8.1067v4.68c1.3867-2.2133,2.6267-3.68,3.7467-4.4,1.1067-.72,2.36-1.0933,3.7733-1.0933,1.9867,0,3.8933.5467,5.7333,1.6533l-2.6533,7.6133c-1.4667-.9467-2.84-1.4267-4.1067-1.4267-1.2267,0-2.2667.3333-3.1067,1.0133-.8533.68-1.52,1.8933-2.0133,3.64-.4933,1.76-.7333,5.44-.7333,11.04v10.1733"/><path id="path32" class="cls-2" d="M342.12,283.28c0,3.28.7733,5.7867,2.3333,7.52,1.56,1.7467,3.4667,2.6133,5.7467,2.6133s4.1867-.8667,5.7333-2.6133,2.32-4.2667,2.32-7.5867c0-3.2267-.7733-5.72-2.32-7.4667-1.5467-1.7467-3.4533-2.6133-5.7333-2.6133s-4.2.8667-5.7467,2.6133c-1.56,1.7467-2.3333,4.2667-2.3333,7.5333ZM333.2,282.8133c0-2.9067.7067-5.7067,2.1333-8.4267s3.44-4.7867,6.0533-6.2133c2.6133-1.4267,5.5333-2.1467,8.76-2.1467,4.9867,0,9.0667,1.6133,12.24,4.8667,3.1867,3.24,4.7733,7.3467,4.7733,12.3067,0,5-1.6133,9.1333-4.8267,12.4267-3.2133,3.28-7.2533,4.9333-12.1333,4.9333-3.0133,0-5.8933-.68-8.6267-2.0533-2.7333-1.3733-4.8267-3.3733-6.24-6.0133-1.4267-2.6666-2.1333-5.88-2.1333-9.68"/><path id="path34" class="cls-2" d="M404.8266,261.9733v12.9733h5c3.6,0,6.0133-.24,7.2267-.72,1.2133-.48,2.1733-1.2267,2.8533-2.2533.6933-1.0133,1.04-2.2,1.04-3.56,0-1.6667-.48-3.04-1.4533-4.12-.9733-1.08-2.2-1.76-3.68-2.0267-1.0933-.2133-3.28-.3067-6.5867-.3067h-4.4v.0133ZM395.64,299.72v-45.4267h14.72c5.5733,0,9.2133.2267,10.9067.68,2.6.68,4.7733,2.16,6.5333,4.4533,1.76,2.28,2.6267,5.2267,2.6267,8.8533,0,2.7867-.5067,5.1333-1.52,7.04-1.0133,1.8933-2.2933,3.3867-3.8533,4.48-1.56,1.0933-3.1467,1.8-4.7467,2.16-2.1867.44-5.36.6533-9.4933.6533h-5.9733v17.12h-9.2"/><path id="path36" class="cls-2" d="M457.88,283.96c-1.12.3733-2.88.8133-5.2933,1.3333-2.4133.52-3.9867,1.0267-4.72,1.52-1.1333.8133-1.6933,1.84-1.6933,3.08,0,1.2267.4533,2.28,1.36,3.1733s2.0667,1.3333,3.4667,1.3333c1.56,0,3.0533-.52,4.48-1.56,1.0533-.7867,1.7467-1.7467,2.0667-2.8933.2267-.7467.3467-2.1733.3467-4.2667l-.0134-1.72ZM446.16,276.84l-7.84-1.44c.8933-3.1867,2.4133-5.5467,4.5867-7.08,2.1733-1.5333,5.4-2.2933,9.6667-2.2933,3.88,0,6.7733.4667,8.68,1.3733,1.9067.92,3.24,2.0933,4.0133,3.5067s1.16,4.0133,1.16,7.8l-.0933,10.1733c0,2.8933.1333,5.04.4133,6.4133s.8,2.8533,1.56,4.4267h-8.6533c-.2267-.5733-.5067-1.4133-.84-2.5333-.1467-.5067-.2533-.84-.3067-1.0133-1.4933,1.4533-3.08,2.5467-4.7733,3.2667s-3.4933,1.0933-5.4133,1.0933c-3.3867,0-6.0533-.92-8-2.76s-2.92-4.1733-2.92-6.9867c0-1.8667.44-3.52,1.3333-4.9867.8933-1.4533,2.1333-2.5733,3.7333-3.36,1.6-.7733,3.92-1.4533,6.9333-2.04,4.0667-.76,6.8933-1.48,8.4667-2.1333v-.88c0-1.6933-.4133-2.9067-1.24-3.6267-.84-.72-2.4-1.08-4.7067-1.08-1.56,0-2.7733.3067-3.64.92-.8667.6267-1.5734,1.7067-2.12,3.24"/><path id="path38" class="cls-2" d="M472.72,266.84h9.28l7.8934,23.36,7.7066-23.36h9.0133l-11.5867,31.6533-2.12,5.7867c-.7733,1.92-1.4934,3.4-2.1867,4.4133-.6934,1.0133-1.4934,1.84-2.3867,2.4667-.9066.6267-2,1.1333-3.32,1.48-1.32.36-2.8.5333-4.4533.5333-1.68,0-3.32-.1733-4.9333-.5333l-.8133-6.8267c1.3733.28,2.6133.4,3.7066.4,2.04,0,3.5467-.6,4.52-1.8s1.72-2.7333,2.24-4.6l-12.56-32.9733"/><path id="path40" class="cls-2" d="M513.4266,266.84h8.0133v4.4933c2.88-3.5333,6.3066-5.3067,10.2934-5.3067,2.1066,0,3.9467.4267,5.4934,1.3067,1.56.8667,2.8267,2.1867,3.8267,3.9467,1.4533-1.76,3.0133-3.0667,4.68-3.9467,1.68-.8667,3.4667-1.3067,5.3733-1.3067,2.4267,0,4.4667.4933,6.1467,1.48,1.68.9733,2.9333,2.4267,3.76,4.3333.6,1.4.8934,3.68.8934,6.8267v21.0667h-8.7467v-18.84c0-3.2667-.2934-5.3733-.8934-6.3333-.8133-1.24-2.04-1.8667-3.72-1.8667-1.2133,0-2.3733.3733-3.44,1.12s-1.84,1.84-2.32,3.28-.72,3.7067-.72,6.8133v15.8267h-8.7467v-18.0667c0-3.2133-.1467-5.28-.4667-6.2133-.3066-.9333-.7867-1.6267-1.44-2.08-.6533-.4533-1.5333-.68-2.6533-.68-1.3467,0-2.5467.36-3.6267,1.0933-1.0667.72-1.84,1.7733-2.3066,3.1333-.4667,1.3733-.6934,3.6267-.6934,6.8v16.0133h-8.7467l.0398-32.8933"/><path id="path42" class="cls-2" d="M592.0133,280.5333c-.0667-2.56-.72-4.5067-1.9733-5.84-1.24-1.3333-2.76-2-4.5467-2-1.9066,0-3.4934.7067-4.7333,2.1067-1.2533,1.4-1.8667,3.32-1.84,5.7333h13.0933ZM591.5599,289.36l8.6533,1.44c-1.12,3.1733-2.8934,5.5867-5.3066,7.24-2.4133,1.6667-5.44,2.4933-9.0667,2.4933-5.7333,0-9.9867-1.88-12.7467-5.6267-2.1733-3-3.2667-6.8-3.2667-11.3867,0-5.4667,1.4267-9.76,4.2934-12.8533,2.8667-3.1067,6.4667-4.6533,10.84-4.6533,4.9066,0,8.7867,1.6267,11.6133,4.88,2.84,3.2533,4.2,8.24,4.0667,14.9467h-21.8934c.0667,2.5867.7733,4.6,2.1333,6.04,1.3467,1.44,3.04,2.16,5.0667,2.16,1.3733,0,2.5333-.3733,3.4667-1.1067.96-.7334,1.6667-1.9201,2.1467-3.5734"/><path id="path44" class="cls-2" d="M639.5599,299.72h-8.7467v-16.8267c0-3.56-.1867-5.8533-.56-6.9067-.3733-1.04-.9733-1.8667-1.8133-2.44-.84-.5733-1.84-.8667-3.0133-.8667-1.4934,0-2.8533.4133-4.04,1.24-1.2.8267-2.0133,1.92-2.4533,3.2933-.44,1.36-.6667,3.88-.6667,7.5733v14.9333h-8.7467v-32.8933h8.1066v4.8267c2.8667-3.76,6.48-5.64,10.84-5.64,1.92,0,3.68.3467,5.2667,1.04s2.8,1.5733,3.6133,2.6533c.8133,1.08,1.3867,2.2933,1.7066,3.6667.32,1.36.48,3.32.48,5.8667v20.48"/><path id="path46" class="cls-2" d="M665.3599,266.84v6.9333h-5.9467v13.3067c0,2.6933.0533,4.2667.1733,4.7067.1066.4533.36.8133.76,1.1067s.88.44,1.44.44c.8,0,1.9333-.28,3.44-.84l.76,6.7467c-2.0133.8667-4.2934,1.3067-6.84,1.3067-1.56,0-2.9733-.2667-4.2267-.7867-1.2533-.52-2.1733-1.2133-2.76-2.0533-.5867-.84-.9867-1.9733-1.2133-3.4-.1867-1.0133-.28-3.0667-.28-6.1467v-14.3733h-3.96v-6.9333h3.96v-6.5733l8.7467-5.1333v11.72h5.9467"/><path id="path48" class="cls-2" d="M670.2666,290.44l8.7467-1.3467c.3733,1.68,1.12,2.96,2.2533,3.8267,1.1333.88,2.72,1.3067,4.76,1.3067,2.2533,0,3.9467-.4133,5.08-1.24.76-.5867,1.1467-1.36,1.1467-2.3467,0-.6667-.2133-1.2133-.6267-1.6533-.44-.4133-1.4133-.8-2.9333-1.16-7.0667-1.56-11.5467-2.9867-13.4267-4.2667-2.6133-1.7733-3.92-4.2533-3.92-7.4267,0-2.8667,1.1333-5.2667,3.3867-7.2,2.2667-1.9467,5.7733-2.92,10.5333-2.92,4.5333,0,7.8934.7333,10.0934,2.1867s3.72,3.6133,4.5467,6.4667l-8.2,1.5333c-.36-1.28-1.0267-2.2667-2.0267-2.9467s-2.4133-1.0267-4.2533-1.0267c-2.32,0-3.9867.32-4.9867.9733-.6667.4533-1,1.04-1,1.7733,0,.6267.2934,1.16.8667,1.6.7867.5867,3.5066,1.4,8.1733,2.4667,4.6533,1.0667,7.9066,2.36,9.76,3.8933,1.8267,1.56,2.7333,3.7333,2.7333,6.5067,0,3.0267-1.2667,5.64-3.7867,7.8133-2.52,2.1867-6.2533,3.2667-11.1867,3.2667-4.48,0-8.0267-.9067-10.64-2.72-2.5734-1.7867-4.2801-4.24-5.0934-7.36"/><path id="path50" class="cls-2" d="M754.2,281.8l-6.3467-16.8533-6.1333,16.8533h12.48ZM771.0533,299.72h-9.8934l-3.9333-10.2667h-18.3066l-3.7467,10.2667h-9.7333l17.6-45.4267h9.6667l18.3467,45.4267"/><path id="path52" class="cls-2" d="M786.0666,299.72h-8.7467v-32.8933h8.1066v4.68c1.3867-2.2133,2.6267-3.68,3.7467-4.4,1.1066-.72,2.36-1.0933,3.7733-1.0933,1.9867,0,3.8934.5467,5.7333,1.6533l-2.6533,7.6133c-1.48-.9467-2.84-1.4267-4.1066-1.4267-1.2267,0-2.2667.3333-3.12,1.0133s-1.52,1.8933-2,3.64c-.4934,1.76-.7333,5.44-.7333,11.04v10.1733"/><path id="path54" class="cls-2" d="M823.9199,280.5333c-.0667-2.56-.72-4.5067-1.96-5.84-1.2533-1.3333-2.76-2-4.5467-2-1.92,0-3.4934.7067-4.7333,2.1067-1.2533,1.4-1.8667,3.32-1.84,5.7333h13.08ZM823.48,289.36l8.6533,1.44c-1.12,3.1733-2.8934,5.5867-5.3066,7.24-2.4133,1.6667-5.44,2.4933-9.0667,2.4933-5.7467,0-9.9867-1.88-12.7467-5.6267-2.1733-3-3.2667-6.8-3.2667-11.3867,0-5.4667,1.4267-9.76,4.2934-12.8533,2.8533-3.1067,6.4667-4.6533,10.84-4.6533,4.9066,0,8.7867,1.6267,11.6267,4.88,2.84,3.2533,4.1867,8.24,4.0667,14.9467h-21.8934c.0667,2.5867.7733,4.6,2.12,6.04,1.36,1.44,3.0533,2.16,5.0667,2.16,1.3733,0,2.5333-.3733,3.48-1.1067.9333-.7334,1.64-1.9201,2.1333-3.5734"/><path id="path56" class="cls-2" d="M859.6666,283.96c-1.1066.3733-2.88.8133-5.2934,1.3333s-3.9867,1.0267-4.72,1.52c-1.1333.8133-1.6934,1.84-1.6934,3.08,0,1.2267.4533,2.28,1.36,3.1733.9066.8933,2.0533,1.3333,3.4667,1.3333,1.56,0,3.0533-.52,4.48-1.56,1.0533-.7867,1.7467-1.7467,2.0667-2.8933.2267-.7467.3467-2.1733.3467-4.2667v-1.72h-.0133ZM847.9599,276.84l-7.84-1.44c.8934-3.1867,2.4133-5.5467,4.5867-7.08s5.4-2.2933,9.6667-2.2933c3.88,0,6.7733.4667,8.68,1.3733,1.9066.92,3.24,2.0933,4.0133,3.5067.7733,1.4133,1.16,4.0133,1.16,7.8l-.0934,10.1733c0,2.8933.1333,5.04.4133,6.4133s.8,2.8533,1.56,4.4267h-8.6533c-.2267-.5733-.5066-1.4133-.84-2.5333-.1467-.5067-.2533-.84-.3066-1.0133-1.4934,1.4533-3.08,2.5467-4.7733,3.2667-1.6934.72-3.4934,1.0933-5.4133,1.0933-3.3867,0-6.0533-.92-8-2.76s-2.92-4.1733-2.92-6.9867c0-1.8667.44-3.52,1.3333-4.9867.8934-1.4533,2.1333-2.5733,3.7333-3.36,1.6-.7733,3.92-1.4533,6.9333-2.04,4.0667-.76,6.8934-1.48,8.4667-2.1333v-.88c0-1.6933-.4133-2.9067-1.24-3.6267-.8267-.72-2.4-1.08-4.7066-1.08-1.56,0-2.7733.3067-3.64.92-.8802.6267-1.5869,1.7067-2.1202,3.24"/><path id="path58" class="cls-2" d="M193.2533,75.84h-59.52c0-9.7733-1.1467-16.32-3.4267-19.6533-3.5467-4.9333-13.32-7.4133-29.32-7.4133-15.5333,0-25.84,1.4267-30.8667,4.2667-5.0267,2.8533-7.5333,9.0667-7.5333,18.6267,0,8.6533,2.2267,14.3467,6.6933,17.08,3.2,1.9333,7.4267,3.08,12.6933,3.4133l12,.8533c25.72,1.7067,41.7867,2.9067,48.2,3.5867,20.3467,2.0533,35.0933,7.4667,44.24,16.2267,7.2,6.84,11.4933,15.7867,12.8667,26.8133.8,6.6,1.2,14.08,1.2,22.3867,0,19.1333-1.8267,33.1467-5.48,42.0267-6.6267,16.2933-21.52,26.5867-44.68,30.9067-9.7067,1.8267-24.5467,2.7467-44.52,2.7467-33.3333,0-56.56-1.9867-69.68-5.9733-16.0933-4.88-26.7067-14.7867-31.84-29.6933-2.8667-8.2933-4.28-22.1067-4.28-41.4533h59.52c0,2.16.0133,3.8.0133,4.9467,0,10.32,2.96,16.96,8.8933,19.92,4.1067,2.04,9.0533,3.1067,14.88,3.24h21.88c11.16,0,18.2933-.5733,21.36-1.72,5.4667-2.1467,9.0667-5.6133,10.7733-10.4133.9067-2.9467,1.36-6.7733,1.36-11.44,0-10.4667-3.8133-16.8267-11.4533-19.12-2.8533-.9067-16.12-2.16-39.8133-3.76-19.0267-1.36-32.24-2.6667-39.64-3.9333-19.48-3.64-32.4667-11.1467-38.9467-22.52C3.1333,106.12.28,91.4933.28,71.92c0-14.9067,1.5333-26.8533,4.6133-35.84s8.04-15.8133,14.8933-20.48c10.04-7.1733,22.8667-11.3733,38.4933-12.64,13-1.1333,27.4267-1.7067,43.2933-1.7067,24.9867,0,42.7867,1.44,53.4,4.28,25.8933,6.96,38.8533,26.4533,38.8533,58.48,0,2.64-.1867,6.5733-.5733,11.8267"/><path id="path60" class="cls-2" d="M518.9599,121.2h39.88c12.64-.4533,20.3333-1.4267,23.1066-2.9467,3.7867-2.08,6.32-6.24,7.5867-12.48.8133-4.16,1.2133-10.3333,1.2133-18.5333,0-10.0533-.8-17.5067-2.4133-22.3733-2.3066-6.8133-7.8133-10.9733-16.5467-12.48-1.72-.2267-5.8533-.3467-12.4-.3467h-40.4267v69.16h0ZM454.9733,237.72V.0133h119.1866c16.3467,0,28.8267,1.3333,37.4,4,19.6,6.1467,32.76,18.72,39.4934,37.72,3.48,9.9733,5.2133,25,5.2133,45.0533,0,24.1067-1.9333,41.44-5.7467,51.9867-7.64,20.8667-23.3867,32.88-47.1467,35.9867-2.8.4667-14.68.88-35.6667,1.2267l-10.6267.36h-38.1467v61.3733h-63.96"/><path id="path62" class="cls-2" d="M780.1333,150.32l-29.9734-103.04-29.0934,103.04h59.0667ZM792.8399,196.6266h-85.5333l-11.4934,41.08h-66.1866L701.0533,0h96.5066l72.2934,237.7067h-64.8l-12.2133-41.08"/><path id="path64" class="cls-1" d="M366.68,33.4533c26.3867,0,49.9333,12.16,65.4133,31.2l13.7867-29.5733c-21.5733-20.3867-50.92-32.96-83.2933-32.96-50.4133,0-93.5333,30.44-111.2267,73.5467h-26.8933l-15.88,34.04h34.6c-.2533,3.16-.4267,6.32-.4267,9.5467,0,3.9067.2,7.76.5867,11.5733h-17.3867l-15.88,34.0533h42.1067c18.2,42,60.7867,71.4933,110.4,71.4933,25,0,48.2133-7.4933,67.4267-20.2933v-41.7333c-15.4667,17.6133-38.1067,28.7467-63.3333,28.7467-29.4933,0-55.4267-15.2133-70.5333-38.2267h88.16l15.88-34.0533h-117.0133c-.6-4.0933-.92-8.28-.92-12.5467,0-2.88.1467-5.7333.4267-8.56h127.3466l15.88-34.04h-132.2133c14.6133-25.24,41.8267-42.2133,72.9867-42.2133"/><path id="path66" class="cls-2" d="M293.68,76.68h132.2133l-.92-1.4533-15.8667,34.04.92-.5867h-128.2667l-.0933.92c-.28,2.8667-.4267,5.7867-.4267,8.6533,0,4.2133.32,8.4933.9333,12.7067l.1333.8667h117.8934l-.92-1.4533-15.88,34.04.92-.5867h-90.0667l1.04,1.5733c15.8933,24.2267,42.5733,38.68,71.3867,38.68,24.4933,0,47.8533-10.5867,64.1067-29.08l-1.8-.6667v41.7333l.4533-.84c-19.76,13.1467-42.8667,20.1067-66.8533,20.1067-47.84,0-90.8133-27.8267-109.4667-70.88l-.2667-.6133h-42.7733l.9333,1.4533,15.8667-34.0533-.9333.5867h18.5066l-.1067-1.1333c-.3867-3.8533-.5867-7.7067-.5867-11.4667,0-2.8933.1467-5.9867.4267-9.4533l.0933-1.1067h-35.7067l.92,1.4533,15.88-34.0533-.92.5867h27.5733l.2533-.6267c8.7333-21.28,23.6-39.4133,42.9733-52.4667,19.8667-13.3467,43.1467-20.4133,67.3333-20.4133,30.9733,0,60.3067,11.5867,82.6,32.6667l-.2267-1.1733-13.7867,29.5733,1.72-.2133c-16.32-20.0667-40.4533-31.5733-66.2133-31.5733-30.3067,0-58.6,16.3733-73.88,42.7333l-.8933,1.5333,1.7734-.0133ZM366.68,34.4666c25.1467,0,48.6933,11.24,64.6267,30.8267l1.0267,1.2667.6933-1.48,13.7867-29.5733.3067-.6667-.5333-.5067C423.9199,12.9066,394.0799,1.1066,362.5866,1.1066c-24.6,0-48.2667,7.1867-68.4533,20.7867-19.7067,13.28-34.8267,31.7333-43.7067,53.3867l.9333-.64h-27.5466l-.28.5867-15.8667,34.04-.68,1.4533h36.2001l-1.0133-1.1067c-.2933,3.5333-.4267,6.6667-.4267,9.6267,0,3.8267.1867,7.7467.5867,11.6667l1.0267-1.12h-18.0267l-.28.5867-15.88,34.04-.6667,1.4533h43.7067l-.9333-.6133c18.9733,43.8,62.68,72.12,111.3333,72.12,24.3867,0,47.8933-7.0667,67.9866-20.4533l.4533-.3067v-44.9867l-1.7867,2.04c-15.8533,18.04-38.6533,28.3867-62.56,28.3867-28.12,0-54.1733-14.12-69.68-37.76l-.8533,1.5867h88.8133l.28-.5867,15.88-34.0533.68-1.4533h-118.6133l1.0133.8667c-.6-4.12-.92-8.2933-.92-12.4,0-2.8.1467-5.64.4267-8.4533l-1.0267.92h128.0133l.2667-.5867,15.88-34.0533.68-1.4533h-133.8267l.88,1.5333c14.8666-25.7066,42.5066-41.6933,72.0799-41.6933"/></g></g></g></g></svg>