<svg width="123" height="80" viewBox="0 0 123 80" fill="none" xmlns="http://www.w3.org/2000/svg">
<rect width="123" height="80" rx="6" fill="#FFF48D"/>
<path d="M90.4543 40.1049C90.4543 33.4815 95.2241 27.4417 103.461 27.4417C111.732 27.4417 116.502 33.4815 116.502 40.1049C116.502 46.7283 111.732 52.7681 103.461 52.7681C95.2256 52.7695 90.4543 46.7283 90.4543 40.1049ZM109.262 40.1049C109.262 36.9126 107.134 33.9621 103.462 33.9621C99.8237 33.9621 97.6627 36.9141 97.6627 40.1049C97.6627 43.2972 99.8252 46.2477 103.462 46.2477C107.134 46.2477 109.262 43.2972 109.262 40.1049Z" fill="#1D1C1C"/>
<path d="M85.3902 44.8074C88.1362 43.2628 89.7824 40.3123 89.7824 37.0514C89.7824 32.2129 86.2469 28.0939 80.7563 28.0939H69.2258V52.1173H76.364V45.9745H77.7027L81.786 52.1173H90.1943L85.3902 44.8074ZM79.316 40.4481H76.364V33.6531H79.3503C81.2726 33.6531 82.5083 35.1978 82.5083 37.0514C82.5083 38.9035 81.2382 40.4481 79.316 40.4481Z" fill="#1D1C1C"/>
<path d="M36.6394 28.0682L32.3573 42.3861L28.1782 28.0682H22.4931L18.2796 42.3861L14.0319 28.0682H6.49603L15.1274 52.0458H21.3274L25.3349 38.9951L29.3095 52.0458H35.5438L44.1752 28.0682H36.6394Z" fill="#1D1C1C"/>
<path d="M54.9764 46.1891C54.9707 46.1891 54.965 46.1891 54.9592 46.1891C52.289 46.1891 50.4169 44.5958 49.6131 42.4863H67.6639H67.754C67.8999 41.6925 67.9757 40.8801 67.9757 40.0578C67.9757 33.4516 63.2202 27.4275 54.9764 27.4189V33.9278C57.6624 33.935 59.5159 35.5254 60.3111 37.6307H42.1959C42.0515 38.4244 41.9771 39.2368 41.9771 40.0592C41.9771 46.6697 46.7383 52.6995 54.9592 52.6995C54.965 52.6995 54.9707 52.6995 54.9764 52.6995V46.1891Z" fill="#1D1C1C"/>
<path d="M54.959 52.6966C55.2379 52.6966 55.5125 52.688 55.7842 52.6751C57.4547 52.5908 58.9707 52.2547 60.3223 51.7126C61.6739 51.1706 62.861 50.4254 63.8707 49.5244C64.8804 48.6233 65.7142 47.5678 66.3607 46.4051C66.9485 45.3481 67.3776 44.2039 67.6465 43.0097H60.0878C59.9333 43.3286 59.7531 43.6333 59.5471 43.9179C59.2654 44.3069 58.935 44.6602 58.5603 44.9648C58.1856 45.2695 57.7651 45.5269 57.3017 45.7257C56.8383 45.9245 56.3334 46.0647 55.7871 46.1347C55.5211 46.1691 55.2465 46.1891 54.9618 46.1891C53.2613 46.1891 51.884 45.5412 50.9014 44.5272L45.9872 49.4414C48.1711 51.438 51.2032 52.6966 54.959 52.6966Z" fill="url(#paint0_linear_2655_276)"/>
<path d="M54.9591 27.4174C47.9868 27.4174 43.503 31.7539 42.3016 37.1057H49.8389C50.7399 35.2622 52.5148 33.9264 54.9591 33.9264C56.907 33.9264 58.4188 34.7587 59.4071 36.0173L64.3657 31.0588C62.1517 28.8391 58.9666 27.4174 54.9591 27.4174Z" fill="url(#paint1_linear_2655_276)"/>
<defs>
<linearGradient id="paint0_linear_2655_276" x1="63.8422" y1="38.5632" x2="52.7197" y2="52.3418" gradientUnits="userSpaceOnUse">
<stop offset="0.0243" stop-color="#1D1C1C" stop-opacity="0"/>
<stop offset="0.676" stop-color="#1D1C1C"/>
</linearGradient>
<linearGradient id="paint1_linear_2655_276" x1="44.3813" y1="41.6505" x2="55.8104" y2="30.2214" gradientUnits="userSpaceOnUse">
<stop offset="0.0243" stop-color="#1D1C1C" stop-opacity="0"/>
<stop offset="0.676" stop-color="#1D1C1C"/>
</linearGradient>
</defs>
</svg>
