<?xml version="1.0" encoding="UTF-8"?>
<svg version="1.1" xmlns="http://www.w3.org/2000/svg" width="800" height="985">
<path d="M0 0 C1.13621587 -0.00583219 2.27243174 -0.01166439 3.4430784 -0.01767331 C4.68157057 -0.01389399 5.92006274 -0.01011467 7.19608498 -0.00622082 C8.53297057 -0.00924282 9.86985444 -0.01313255 11.20673525 -0.01781338 C14.87518891 -0.02809803 18.54354488 -0.02591025 22.21200657 -0.02163279 C26.17150807 -0.01916602 30.13098602 -0.02817979 34.0904789 -0.03567028 C41.85016608 -0.04842641 49.60981867 -0.05020936 57.36951457 -0.04787002 C63.68638945 -0.04608561 70.00325386 -0.04783918 76.32012749 -0.05209446 C77.21992832 -0.05268965 78.11972916 -0.05328484 79.04679669 -0.05389806 C80.87506893 -0.05510988 82.70334118 -0.05632402 84.53161342 -0.05754044 C101.68764537 -0.06842213 118.84365767 -0.06625211 135.99969073 -0.06015559 C151.64828101 -0.05500124 167.29680877 -0.06620146 182.94538669 -0.08525381 C199.04159506 -0.10469934 215.13777396 -0.11287552 231.23399413 -0.10913056 C240.25890889 -0.10722669 249.28377064 -0.10962485 258.30867577 -0.1238451 C266.00329196 -0.13584667 273.69782262 -0.13706769 281.39244018 -0.12505493 C285.30832593 -0.11922344 289.22405596 -0.11790403 293.13993073 -0.13005733 C315.31205488 -0.19418496 337.05079023 0.91473438 358.72187233 5.94197559 C359.83731422 6.1976128 360.95275612 6.45325001 362.10199928 6.7166338 C415.03239499 19.27632526 465.18333354 49.66404174 497.22187233 94.25447559 C497.69689186 94.91221973 498.17191139 95.56996387 498.66132545 96.24763966 C518.82723002 124.50381818 531.99334015 156.69501902 536.97187233 191.06697559 C537.16958229 192.42327076 537.16958229 192.42327076 537.37128639 193.80696583 C538.01079658 198.7387743 538.25035369 203.43562224 538.02655983 208.40681934 C537.21079777 218.23909107 537.21079777 218.23909107 540.65058327 227.03523731 C544.60725873 230.23232483 549.17724724 232.1321625 553.8214817 234.12361622 C557.85348073 236.02315034 561.37607218 238.57860308 564.97187233 241.19197559 C566.04054543 241.95997486 566.04054543 241.95997486 567.13080788 242.74348927 C587.14546722 257.27758729 605.08865799 274.9334301 619.22187233 295.25447559 C619.62373756 295.82230762 620.0256028 296.39013966 620.43964577 296.97517872 C637.40915167 321.16789827 648.10754389 348.49779221 654.22187233 377.25447559 C654.49088356 378.46466358 654.49088356 378.46466358 654.76532936 379.69929981 C660.63744252 407.1821889 659.03490412 438.93364348 653.22187233 466.25447559 C652.86778297 467.94322803 652.86778297 467.94322803 652.5065403 469.66609669 C642.39715489 516.47170378 620.90178259 559.38306951 589.22187233 595.25447559 C588.4871067 596.10010059 587.75234108 596.94572559 586.99530983 597.81697559 C578.32628675 607.65237632 569.16855796 617.01882454 558.87421608 625.15681934 C557.13267123 626.53415305 555.41514705 627.94252767 553.72577858 629.38338184 C503.64869755 671.99082217 438.01947212 690.25302959 373.3065052 690.45370579 C369.79962233 690.46562683 366.29285546 690.48510688 362.78602028 690.50682545 C352.82473549 690.56803548 342.86346885 690.62255818 332.90204811 690.65584278 C326.78559568 690.67681892 320.66936621 690.71212881 314.55304146 690.75660038 C312.23274039 690.77071722 309.91240001 690.77947301 307.59205818 690.78265476 C304.34765739 690.78757943 301.10384766 690.81077291 297.85956764 690.83797169 C296.91181969 690.83496555 295.96407173 690.83195942 294.98760414 690.82886219 C285.86758587 690.94203851 278.60587803 692.94115763 271.94062233 699.32869434 C262.31295013 710.11606343 262.29583577 729.56270586 260.14667702 743.35896778 C259.85245024 745.23231694 259.55794221 747.10562195 259.26317787 748.9788866 C258.63280544 752.98887811 258.00439699 756.99917048 257.37756538 761.00971699 C256.37881581 767.39976354 255.37558561 773.78910203 254.37183571 780.17836475 C252.77706247 790.33314357 251.18527146 800.48838724 249.59474778 810.64383245 C246.76631284 828.70287134 243.93332428 846.76119586 241.0985024 864.81923318 C240.26851331 870.10699676 239.43915466 875.3948576 238.61136055 880.68296528 C236.93983912 891.36063412 235.26200582 902.03723666 233.5691092 912.71153951 C232.63766575 918.59400906 231.7228921 924.4788461 230.81774783 930.36541724 C230.20493021 934.33559252 229.58175062 938.30409813 228.95638132 942.27231359 C228.6642867 944.14034307 228.37653919 946.00905843 228.09353781 947.87848711 C224.57498105 971.08699151 224.57498105 971.08699151 216.22187233 979.25447559 C210.08462088 983.24855987 205.1475775 985.37494284 197.7647953 985.40164661 C197.10634107 985.4053233 196.44788684 985.40899999 195.76947945 985.41278809 C193.55869694 985.42381857 191.34796144 985.4276677 189.13715553 985.43147755 C187.55365284 985.43774274 185.97015161 985.44438959 184.38665199 985.45139027 C179.18199626 985.47242851 173.97734025 985.48279324 168.77265358 985.49275684 C166.98019012 985.49680465 165.18772682 985.50092158 163.39526367 985.50510693 C154.97295423 985.52415902 146.55065356 985.53838934 138.12832671 985.5467189 C128.41091686 985.5564882 118.69373498 985.58279961 108.97640544 985.62321979 C101.46290435 985.65339867 93.94946854 985.6681895 86.43590802 985.67149991 C81.94975463 985.67384862 77.46384479 985.68278545 72.9777565 985.70796108 C68.75468165 985.73127753 64.53201007 985.73546079 60.30888748 985.7251997 C58.76256403 985.72470507 57.21622049 985.73100391 55.66995811 985.74475574 C46.38491313 985.82268375 39.32119152 985.64308828 31.97968483 979.32478809 C25.6418481 971.77396826 24.74494924 965.94930928 25.22187233 956.25447559 C25.84756491 950.7783109 26.71532096 945.34678899 27.59272194 939.90681934 C27.84797225 938.28458217 28.10248352 936.66222856 28.35631752 935.03976917 C29.04291799 930.66515444 29.73994933 926.2922613 30.43909717 921.91963673 C31.17045861 917.33489878 31.89256055 912.74870223 32.61580849 908.16267872 C33.83000607 900.47215969 35.05050268 892.78266252 36.27533913 885.09383106 C37.84809374 875.22077489 39.41058447 865.34612321 40.96980381 855.47092152 C42.31140738 846.97435579 43.65745497 838.47849506 45.00434613 829.98276615 C45.43697659 827.25283177 45.86904058 824.52280815 46.30104828 821.79277515 C46.97891182 817.51104312 47.65953638 813.22975861 48.34232712 808.94880962 C48.59273813 807.37634512 48.84228208 805.80374226 49.09090614 804.23099422 C49.42973852 802.08869366 49.77172243 799.94691998 50.11455727 797.80525684 C50.30536841 796.60554249 50.49617956 795.40582813 50.69277287 794.1697588 C51.22187233 791.25447559 51.22187233 791.25447559 52.22187233 788.25447559 C50.84915672 788.26000635 50.84915672 788.26000635 49.44870949 788.26564884 C27.17259707 788.35401858 4.89651491 788.42019437 -17.37973595 788.46172428 C-28.15240846 788.48234209 -38.9249639 788.51044786 -49.69756126 788.55623341 C-59.08788189 788.59612497 -68.47811773 788.62191409 -77.86852074 788.63082957 C-82.83985962 788.63604037 -87.81095594 788.64827152 -92.78221703 788.67739582 C-97.4640374 788.70460149 -102.14551592 788.71291016 -106.82740784 788.70690632 C-108.54305251 788.70800425 -110.25870895 788.71592744 -111.97428513 788.73129749 C-129.41804389 788.87987608 -129.41804389 788.87987608 -136.80156517 782.50838184 C-137.2475808 781.95021778 -137.69359642 781.39205372 -138.15312767 780.81697559 C-138.61461205 780.26138966 -139.07609642 779.70580372 -139.55156517 779.13338184 C-147.02195778 767.68988234 -142.10167992 749.73087536 -140.03227806 737.08357716 C-139.73226666 735.19188017 -139.43335723 733.30000816 -139.13544178 731.40797997 C-138.3189174 726.24238275 -137.48712873 721.0793456 -136.65278816 715.91660047 C-135.75163668 710.32249565 -134.8651623 704.72606345 -133.97698021 699.12988758 C-132.42992687 689.39444221 -130.87415674 679.66042285 -129.31258202 669.92729664 C-126.90660066 654.92974211 -124.51691463 639.92961169 -122.13083713 624.92888068 C-121.27088755 619.52284236 -120.4106059 614.11685687 -119.55030998 608.71087366 C-119.33283821 607.34430978 -119.11537303 605.97774485 -118.89791439 604.61117888 C-117.34634783 594.86099554 -115.79270379 585.1111451 -114.23746652 575.36154661 C-105.92265989 523.23686663 -97.6894127 471.09949697 -89.47848275 418.95836526 C-86.61429939 400.77025605 -83.74572856 382.58284435 -80.87368858 364.39597416 C-78.95174122 352.22523174 -77.03074989 340.05433837 -75.11015892 327.88338184 C-74.95183721 326.88010615 -74.95183721 326.88010615 -74.79031709 325.85656226 C-68.58109063 286.50801332 -62.41436839 247.15301401 -56.28338983 207.79219884 C-54.60903205 197.04320667 -52.9315561 186.29470538 -51.25128746 175.54663563 C-51.14236501 174.84985859 -51.03344255 174.15308154 -50.92121942 173.43519004 C-49.9414775 167.16792979 -48.96155607 160.90069764 -47.98103583 154.63355911 C-45.45478518 138.48660725 -42.9383924 122.33820195 -40.43963152 106.1869722 C-38.89466839 96.20626099 -37.33781765 86.22745106 -35.77153581 76.25006336 C-34.87122723 70.51221412 -33.97653918 64.77363162 -33.09666061 59.03261089 C-32.29149571 53.77948254 -31.47095247 48.52899648 -30.63817871 43.28017628 C-30.34033537 41.3852437 -30.04815207 39.48941077 -29.76228154 37.59263504 C-26.24436092 14.30077386 -26.24436092 14.30077386 -16.77812767 6.25447559 C-15.97375267 5.53260059 -15.16937767 4.81072559 -14.34062767 4.06697559 C-9.83681432 0.88135152 -5.44804328 0.00482817 0 0 Z " fill="#002F87" transform="translate(142.7781276702881,-0.25447559356689453)"/>
<path d="M0 0 C18.73004478 9.76184537 35.6939192 21.41670635 51 36 C51.61746094 36.58491211 52.23492188 37.16982422 52.87109375 37.77246094 C63.35835858 47.76906451 72.66504262 58.14406311 81 70 C81.40621582 70.57218262 81.81243164 71.14436523 82.23095703 71.73388672 C99.1920752 95.92386086 109.88718228 123.25042177 116 152 C116.17934082 152.80679199 116.35868164 153.61358398 116.54345703 154.44482422 C122.41557019 181.9277133 120.81303179 213.67916788 115 241 C114.76394043 242.12583496 114.52788086 243.25166992 114.28466797 244.41162109 C104.17528256 291.21722819 82.67991026 334.12859392 51 370 C50.26523437 370.845625 49.53046875 371.69125 48.7734375 372.5625 C40.10441442 382.39790073 30.94668564 391.76434895 20.65234375 399.90234375 C18.9107989 401.27967745 17.19327472 402.68805208 15.50390625 404.12890625 C-34.57317478 446.73634658 -100.20240021 464.998554 -164.91536713 465.19923019 C-168.42225 465.21115123 -171.92901686 465.23063128 -175.43585205 465.25234985 C-185.39713684 465.31355989 -195.35840348 465.36808259 -205.31982422 465.40136719 C-211.43627665 465.42234332 -217.55250612 465.45765322 -223.66883087 465.50212479 C-225.98913194 465.51624163 -228.30947232 465.52499742 -230.62981415 465.52817917 C-233.87421494 465.53310384 -237.11802467 465.55629731 -240.36230469 465.58349609 C-241.31005264 465.58048996 -242.2578006 465.57748383 -243.23426819 465.5743866 C-252.35428646 465.68756292 -259.6159943 467.68668204 -266.28125 474.07421875 C-275.9089222 484.86158783 -275.92603656 504.30823026 -278.07519531 518.10449219 C-278.36942209 519.97784135 -278.66393012 521.85114636 -278.95869446 523.72441101 C-279.58906689 527.73440252 -280.21747534 531.74469489 -280.84430695 535.75524139 C-281.84305652 542.14528795 -282.84628672 548.53462644 -283.85003662 554.92388916 C-285.44480986 565.07866798 -287.03660087 575.23391165 -288.62712455 585.38935685 C-291.45555949 603.44839575 -294.28854804 621.50672027 -297.12336993 639.56475759 C-297.95335902 644.85252116 -298.78271767 650.14038201 -299.61051178 655.42848969 C-301.2820332 666.10615852 -302.9598665 676.78276106 -304.65276313 687.45706391 C-305.58420658 693.33953347 -306.49898023 699.2243705 -307.4041245 705.11094165 C-308.01694212 709.08111693 -308.64012171 713.04962253 -309.26549101 717.017838 C-309.55758563 718.88586747 -309.84533314 720.75458283 -310.12833452 722.62401152 C-313.64689128 745.83251592 -313.64689128 745.83251592 -322 754 C-328.13725145 757.99408428 -333.07429483 760.12046725 -340.45707703 760.14717102 C-341.11553126 760.15084771 -341.77398549 760.1545244 -342.45239288 760.1583125 C-344.66317539 760.16934297 -346.87391089 760.1731921 -349.0847168 760.17700195 C-350.66821949 760.18326715 -352.25172072 760.189914 -353.83522034 760.19691467 C-359.03987607 760.21795292 -364.24453208 760.22831765 -369.44921875 760.23828125 C-371.24168221 760.24232906 -373.03414551 760.24644599 -374.82660866 760.25063133 C-383.2489181 760.26968342 -391.67121877 760.28391375 -400.09354562 760.2922433 C-409.81095547 760.30201261 -419.52813735 760.32832401 -429.24546689 760.36874419 C-436.75896798 760.39892307 -444.27240379 760.41371391 -451.78596431 760.41702431 C-456.2721177 760.41937302 -460.75802754 760.42830986 -465.24411583 760.45348549 C-469.46719068 760.47680194 -473.68986226 760.4809852 -477.91298485 760.47072411 C-479.4593083 760.47022948 -481.00565184 760.47652832 -482.55191422 760.49028015 C-491.8369592 760.56820816 -498.90068081 760.38861268 -506.2421875 754.0703125 C-512.58066899 746.51872451 -513.47292978 740.69529093 -513 731 C-512.38427124 725.58738019 -511.52769696 720.21934167 -510.66088867 714.84277344 C-510.40888532 713.24000609 -510.15761922 711.63712268 -509.9070282 710.03413391 C-509.22857844 705.70829573 -508.53967569 701.38418272 -507.8486383 697.06033993 C-507.12360204 692.51323992 -506.40776442 687.96469133 -505.69075012 683.4163208 C-504.48498292 675.77614993 -503.27284578 668.13701217 -502.05639648 660.49853516 C-500.65563419 651.70248778 -499.26277851 642.90521919 -497.87468547 634.10716414 C-496.3900158 624.69702711 -494.90060068 615.28764629 -493.40923905 605.8785677 C-492.98304696 603.18815043 -492.5576031 600.49761567 -492.13228416 597.80706024 C-491.45976835 593.55476965 -490.7839646 589.30301315 -490.10576057 585.05162621 C-489.85926187 583.5035771 -489.6137505 581.95537036 -489.36937714 580.40698433 C-487.99725634 571.71827972 -486.45252073 563.09991561 -484.69184017 554.48044014 C-483.68331701 549.40686298 -482.85902832 544.31186132 -482.06225586 539.20141602 C-481.88695658 538.09372549 -481.7116573 536.98603497 -481.53104591 535.84477806 C-480.94354188 532.12744425 -480.36046412 528.40943003 -479.77734375 524.69140625 C-479.34672063 521.95868876 -478.91514112 519.22612249 -478.48362732 516.49354553 C-477.39028818 509.56590129 -476.30046058 502.63770856 -475.21173447 495.70933801 C-473.77258408 486.55140931 -472.33073224 477.39390629 -470.88892484 468.2363956 C-470.25911593 464.23605546 -469.62942774 460.23569632 -468.99973977 456.23533714 C-467.53219122 446.91212086 -466.0644442 437.58893585 -464.5965271 428.26577759 C-464.43276065 427.22561756 -464.26899421 426.18545754 -464.10026515 425.11377752 C-463.26712183 419.82208814 -462.4339188 414.53040817 -461.60061073 409.23874474 C-459.89656233 398.41687808 -458.19406578 387.5947703 -456.49438477 376.7722168 C-454.98133836 367.13811009 -453.46554467 357.50444012 -451.94655079 347.87126929 C-451.1514827 342.82843959 -450.35774343 337.78540955 -449.56741524 332.74183464 C-448.83110362 328.04312395 -448.09113363 323.34500365 -447.34843254 318.64729881 C-447.07902992 316.93919106 -446.81092573 315.23087788 -446.54429626 313.52233505 C-441.64042389 282.11631709 -441.64042389 282.11631709 -430.70703125 271.83203125 C-422.3803491 266.19680192 -413.17568941 266.57238532 -403.48803711 266.61523438 C-401.92960718 266.61112272 -400.37118033 266.60565834 -398.8127594 266.59895325 C-395.46854235 266.58726987 -392.12449017 266.58472941 -388.78025627 266.58930969 C-383.46747946 266.59616481 -378.15491581 266.58016841 -372.84217834 266.56091309 C-361.54063038 266.5231282 -350.23910138 266.51029889 -338.9375 266.5 C-326.78342081 266.48888707 -314.62944168 266.47310644 -302.47542959 266.42928743 C-298.07162947 266.41411009 -293.6679999 266.40494308 -289.26417351 266.41069031 C-270.29802217 266.43411107 -251.76704816 266.15036848 -233 263 C-231.71687424 262.78560272 -230.43374847 262.57120544 -229.11174011 262.35031128 C-226.32786858 261.85672485 -223.57299335 261.29736145 -220.8125 260.6875 C-219.82950928 260.47440186 -218.84651855 260.26130371 -217.83374023 260.04174805 C-165.81424538 248.4869716 -120.31658806 222.71839878 -82 186 C-81.17886719 185.22011719 -80.35773438 184.44023437 -79.51171875 183.63671875 C-73.85045108 178.13189371 -68.89822436 172.18511417 -64 166 C-63.11392703 164.90442531 -62.22718515 163.80939135 -61.33984375 162.71484375 C-23.7715329 116.06868828 -4.31017541 59.37003818 0 0 Z " fill="#006FDF" transform="translate(681,225)"/>
<path d="M0 0 C0.93095448 -0.00384115 1.86190896 -0.00768229 2.82107419 -0.01163983 C4.34262284 -0.01034011 4.34262284 -0.01034011 5.89490986 -0.00901413 C6.97931286 -0.01198525 8.06371585 -0.01495637 9.18097955 -0.01801753 C12.82222847 -0.02670292 16.46344449 -0.02821272 20.10470295 -0.02970505 C22.71346831 -0.03433377 25.322233 -0.0393585 27.93099689 -0.04475021 C35.02932591 -0.05832699 42.12764927 -0.06435926 49.2259891 -0.06876087 C53.66908019 -0.07152842 58.11216912 -0.07576709 62.55525875 -0.08026505 C74.88336742 -0.09246444 87.21147436 -0.1027575 99.53958893 -0.10614014 C100.32866013 -0.1063597 101.11773134 -0.10657927 101.93071379 -0.10680549 C102.72159236 -0.10702377 103.51247093 -0.10724204 104.32731551 -0.10746694 C105.92970638 -0.10791039 107.53209724 -0.10835695 109.13448811 -0.10880661 C109.9293159 -0.10902804 110.7241437 -0.10924947 111.54305718 -0.10947761 C124.37095588 -0.11341053 137.19879725 -0.13081519 150.02667388 -0.15416613 C163.23228488 -0.17800781 176.43786732 -0.19034803 189.64350015 -0.19150805 C197.04318377 -0.19241848 204.44279299 -0.19800763 211.84245586 -0.21632767 C218.15583723 -0.23190368 224.46912131 -0.23674865 230.78251829 -0.22858956 C233.99185412 -0.22474167 237.20095872 -0.22702463 240.41027737 -0.23964691 C261.86142763 -0.31896029 283.26204534 0.94170744 304.19381428 5.94392776 C305.31022297 6.20254593 306.42663166 6.46116409 307.57687092 6.72761917 C327.80487258 11.52630165 347.89678981 18.27348771 366.25631428 28.13142776 C369.74788994 89.16934313 339.36098036 154.72149295 299.60348225 199.62117386 C299.15891682 200.11955765 298.71435139 200.61794144 298.25631428 201.13142776 C297.57206379 201.90027298 297.57206379 201.90027298 296.87399006 202.68465042 C287.33883558 213.34787008 277.46618752 223.22138658 266.25631428 232.13142776 C265.11020896 233.07744066 263.96575312 234.02545449 262.82272053 234.97517776 C215.93000855 273.67268022 154.21710443 295.56764323 93.5004549 295.38679886 C91.91798442 295.38955962 90.33551532 295.39324601 88.7530489 295.39776993 C85.3877089 295.40578337 82.02243492 295.40807586 78.65708637 295.40582275 C73.3264612 295.40295363 67.99596465 295.41747012 62.66537189 295.43480301 C47.52220236 295.48150294 32.37904502 295.50578506 17.23580647 295.51228714 C8.83995723 295.51604384 0.44425719 295.53410795 -7.95152807 295.5673815 C-13.24258849 295.58750191 -18.53326182 295.59001402 -23.82434464 295.57910132 C-27.11794222 295.57648392 -30.41131649 295.59054554 -33.70485592 295.60918236 C-35.22291656 295.61447711 -36.74101902 295.61305439 -38.25906277 295.60414696 C-48.53252934 295.54875443 -58.3195069 296.13876689 -66.11868572 303.63142776 C-67.02747478 304.48220901 -67.02747478 304.48220901 -67.95462322 305.35017776 C-69.88723349 307.27434868 -71.81554037 309.20278379 -73.74368572 311.13142776 C-72.23833109 296.8429383 -70.01678012 282.69009322 -67.74368572 268.50642776 C-67.34416955 265.99606618 -66.94500812 263.48564811 -66.54617596 260.97517776 C-65.60078283 255.02853785 -64.6526095 249.08234863 -63.70279694 243.13641357 C-61.73251993 230.80217312 -59.76824169 218.46697839 -57.80618572 206.13142776 C-57.59888836 204.8291423 -57.391591 203.52685684 -57.17801189 202.18510818 C-53.85696363 181.31566003 -50.62770135 160.43301582 -47.43406582 139.54373169 C-43.79230498 115.72721186 -40.01279647 91.93499175 -36.14212322 68.15462112 C-35.94697124 66.95324005 -35.75181927 65.75185898 -35.55075359 64.51407242 C-35.16764821 62.16052806 -34.78247801 59.80731877 -34.39511395 57.45447159 C-33.44087597 51.62022306 -32.54411764 45.78515304 -31.74270916 39.92781448 C-31.57806164 38.75887146 -31.41341412 37.58992844 -31.24377728 36.3855629 C-30.93761145 34.19248529 -30.64510696 31.99743289 -30.36981487 29.80026627 C-28.9583153 19.81755928 -25.72970898 11.9260657 -17.72806072 5.53377151 C-12.07330878 1.53759839 -6.85650128 0.01066772 0 0 Z " fill="#001C64" transform="translate(313.7436857223511,196.86857223510742)"/>
</svg>
