<svg version="1.1" id="Layer_1" xmlns="http://www.w3.org/2000/svg" xmlns:xlink="http://www.w3.org/1999/xlink" x="0px" y="0px"
	 width="100%" viewBox="0 0 1920 1257" enable-background="new 0 0 1920 1257" xml:space="preserve">
<path fill="#FFF48D" opacity="1.000000" stroke="none" 
	d="
M1.000001,1221.000000 
	C1.000000,815.833313 0.998917,410.666656 1.041210,5.500004 
	C1.041367,3.999969 1.666667,2.500000 2.499767,1.468657 
	C2.999535,11.225457 2.999535,20.513599 2.999535,30.557312 
	C4.938025,26.695950 5.958573,23.024775 8.228656,20.459234 
	C14.195403,13.715896 20.706034,7.453804 27.000000,1.000000 
	C650.034912,1.000000 1273.069824,1.000000 1896.692871,1.308969 
	C1900.005127,3.730404 1902.809937,5.747308 1905.437500,7.973672 
	C1912.766846,14.184169 1917.630371,22.095495 1921.000000,31.000000 
	C1921.000000,439.999908 1921.000000,848.999817 1921.000000,1257.999878 
	C1282.500244,1258.000000 644.000366,1258.000610 5.500565,1257.958740 
	C4.000353,1257.958618 2.500185,1257.333374 1.468656,1256.500000 
	C12.873917,1256.000000 23.810518,1256.000000 34.747120,1256.000000 
	C25.899082,1252.430542 17.964455,1247.737671 12.324067,1240.489868 
	C7.751402,1234.614258 4.716776,1227.541748 1.000001,1221.000000 
M1245.313721,588.328735 
	C1243.551025,593.591492 1241.788208,598.854248 1239.619507,605.328857 
	C1247.885376,605.529907 1254.963501,605.702026 1262.963135,605.949280 
	C1267.316406,605.933289 1271.669800,605.917358 1276.937744,605.997131 
	C1280.631348,605.967834 1284.324829,605.938538 1288.918457,606.022522 
	C1292.546875,605.220459 1296.894653,608.253235 1300.157715,603.359497 
	C1301.462769,601.306091 1302.767822,599.252747 1304.641479,596.840149 
	C1306.192627,595.179443 1307.743652,593.518738 1309.914062,591.485840 
	C1312.287354,589.663513 1314.660645,587.841187 1317.755371,585.910706 
	C1346.035889,571.271912 1377.422852,588.703491 1381.923340,610.990845 
	C1333.931396,610.990845 1286.040649,610.990845 1238.135254,610.990845 
	C1235.976929,623.916931 1235.809937,636.373230 1238.083740,648.754028 
	C1243.810791,679.937561 1259.658447,704.309448 1287.716675,719.761902 
	C1310.160522,732.122253 1334.509521,734.741272 1359.377319,730.365723 
	C1369.491455,728.586121 1379.127930,724.091431 1389.697876,720.925659 
	C1392.119751,719.516907 1394.541748,718.108215 1397.617188,716.581238 
	C1400.439575,714.444031 1403.261841,712.306824 1406.742676,709.971313 
	C1409.449707,707.410950 1412.156616,704.850525 1415.409668,702.044739 
	C1417.306763,699.701904 1419.203979,697.359070 1421.710693,694.733643 
	C1423.213013,692.498474 1424.715332,690.263306 1426.763794,687.668213 
	C1427.896484,685.499207 1429.029175,683.330139 1430.662964,680.679382 
	C1433.135864,674.393005 1435.887573,668.198181 1437.990356,661.790344 
	C1439.573364,656.967041 1438.168701,655.249023 1433.298218,655.180420 
	C1422.534302,655.028870 1411.768066,655.044922 1400.152466,654.928833 
	C1395.090820,654.666809 1390.029297,654.404785 1384.215454,654.056396 
	C1379.127808,654.221497 1379.106934,659.110352 1376.315674,662.270386 
	C1374.852539,664.107056 1373.389404,665.943726 1371.325806,668.119446 
	C1368.798584,670.022522 1366.271484,671.925598 1363.041382,673.935486 
	C1360.024536,675.310913 1357.007690,676.686340 1353.186035,678.025818 
	C1349.789185,678.698853 1346.392456,679.371887 1342.174316,679.903625 
	C1335.509155,678.637817 1328.503906,678.273376 1322.251709,675.913513 
	C1310.218262,671.371887 1302.109863,662.461975 1297.354004,649.533325 
	C1345.963745,649.533325 1393.847900,649.533325 1441.904541,649.533325 
	C1444.103271,638.509888 1444.490601,627.928101 1443.030518,617.311584 
	C1438.095337,581.428345 1420.694946,554.117798 1387.569214,538.045715 
	C1366.671265,527.906433 1344.458252,526.220520 1321.766113,529.482849 
	C1306.284546,531.708496 1291.802002,536.762024 1278.376831,546.202026 
	C1276.210938,548.064575 1274.044922,549.927124 1271.253052,552.020630 
	C1269.492310,553.657715 1267.731445,555.294739 1265.372192,557.226440 
	C1263.552612,559.440735 1261.732910,561.655029 1259.321777,564.183838 
	C1257.822510,566.382996 1256.323364,568.582092 1254.268677,571.178711 
	C1252.779663,573.779114 1251.290649,576.379578 1249.289917,579.413940 
	C1248.153198,582.238525 1247.016479,585.063110 1245.313721,588.328735 
M969.998230,580.515747 
	C971.339600,584.267761 972.687988,588.017334 974.021240,591.772278 
	C989.355530,634.960632 1004.753967,678.126526 1019.917725,721.374695 
	C1021.437744,725.709839 1023.409912,727.117798 1028.015015,726.984070 
	C1040.837280,726.611633 1053.682495,726.656677 1066.507812,726.972351 
	C1070.484741,727.070190 1071.890625,725.593323 1072.932373,722.095215 
	C1080.518311,696.622070 1088.265137,671.196777 1095.983765,645.763245 
	C1098.287964,638.171082 1100.664307,630.600891 1103.007568,623.020630 
	C1103.339600,623.019104 1103.671509,623.017578 1104.003418,623.016052 
	C1114.427124,657.597229 1124.850830,692.178467 1135.265015,726.728149 
	C1152.017578,726.728149 1168.328369,726.728149 1184.957275,726.728149 
	C1207.795654,662.530762 1230.629517,598.345947 1253.679565,533.553650 
	C1233.880981,533.553650 1215.072510,533.484680 1196.267700,533.714417 
	C1195.061768,533.729187 1193.232422,535.858276 1192.789185,537.333252 
	C1183.751953,567.403015 1174.882080,597.523071 1165.959961,627.627563 
	C1163.990601,634.272705 1161.950195,640.896790 1159.584229,648.714050 
	C1158.771973,646.252441 1158.373291,645.167175 1158.054077,644.059021 
	C1147.938843,608.936890 1137.752930,573.834717 1127.825439,538.659546 
	C1126.637207,534.449219 1124.711304,533.355957 1120.576172,533.452393 
	C1108.749390,533.728455 1096.910522,533.654968 1085.079956,533.479614 
	C1081.903320,533.432556 1080.513306,534.283142 1079.594482,537.531860 
	C1073.174927,560.232666 1066.493286,582.859314 1059.887695,605.507385 
	C1055.859253,619.319336 1051.816650,633.127136 1047.780518,646.936829 
	C1046.223511,645.413086 1045.561401,643.801025 1045.073975,642.137878 
	C1034.981323,607.705139 1024.878174,573.275452 1014.878418,538.815796 
	C1013.856689,535.294678 1012.768738,533.297852 1008.290222,533.403870 
	C992.465942,533.778198 976.627319,533.549561 960.794189,533.549561 
	C958.536316,533.549561 956.278381,533.549561 953.247498,533.549561 
	C958.965637,549.522461 964.377686,564.640259 969.998230,580.515747 
M650.502808,423.009094 
	C626.510559,401.580231 599.048279,386.034790 568.929993,375.040680 
	C522.298279,358.018555 473.831970,352.072998 424.540100,351.961578 
	C329.061584,351.745728 233.582260,351.891571 138.103287,351.926239 
	C134.622620,351.927490 131.070053,351.962708 127.673164,352.616699 
	C104.517944,357.074585 89.906891,375.048584 89.904922,398.960938 
	C89.892319,551.760620 89.898300,704.560364 89.901825,857.360046 
	C89.901855,858.692200 89.907524,860.027039 89.985695,861.356201 
	C91.471649,886.619263 110.818550,904.840698 136.145645,904.840820 
	C227.958771,904.841248 319.772095,904.733459 411.584930,904.899780 
	C443.414032,904.957458 475.063782,903.378052 506.467896,897.891296 
	C542.357544,891.620789 576.710693,880.958130 608.651428,863.085205 
	C650.423706,839.710999 682.053894,806.715820 702.906616,763.609070 
	C722.523254,723.057678 729.721741,679.696533 730.766663,635.117004 
	C731.285583,612.976562 729.600952,590.937744 725.987366,569.043396 
	C716.645386,512.440674 693.926392,462.775696 650.502808,423.009094 
M1649.406982,700.101990 
	C1657.846558,706.767517 1665.612915,714.619019 1674.857666,719.866211 
	C1698.397949,733.227295 1724.081177,735.251648 1750.322754,730.451660 
	C1773.511353,726.210022 1793.161743,715.316528 1808.111938,696.847900 
	C1828.155518,672.087036 1834.552856,643.529175 1829.726562,612.486694 
	C1825.886353,587.785400 1814.679443,566.629395 1794.892700,551.001587 
	C1764.911621,527.321960 1730.667603,522.897522 1694.835693,532.901672 
	C1619.401245,553.962891 1603.201050,648.191895 1649.406982,700.101990 
M1510.853760,686.529785 
	C1510.853760,683.749329 1510.853760,680.968872 1510.853760,678.430664 
	C1518.369019,676.425903 1522.828613,678.634094 1526.689575,685.137329 
	C1534.570679,698.411621 1543.562988,711.022827 1551.935181,724.011963 
	C1553.572266,726.551819 1555.343872,727.538330 1558.384766,727.517151 
	C1577.712524,727.382324 1597.041626,727.454651 1616.370361,727.434448 
	C1617.646729,727.433105 1618.922974,727.230286 1620.889160,727.062195 
	C1614.340942,716.976501 1608.119751,707.408447 1601.913208,697.830811 
	C1595.622681,688.123352 1589.346680,678.406433 1583.121704,668.782349 
	C1587.093262,665.748474 1590.896606,663.297058 1594.166992,660.269836 
	C1613.646606,642.238464 1620.359741,619.747437 1617.019653,593.816650 
	C1612.756592,560.722961 1584.522217,534.591309 1551.210205,533.953979 
	C1519.731812,533.351624 1488.236084,533.650146 1456.748047,533.568298 
	C1455.940918,533.566223 1455.133423,533.749573 1454.293091,533.850342 
	C1454.293091,598.394836 1454.293091,662.759888 1454.293091,727.175415 
	C1473.237427,727.175415 1491.840332,727.175415 1510.853760,727.175415 
	C1510.853760,713.778809 1510.853760,700.651794 1510.853760,686.529785 
M863.483704,412.151398 
	C856.900879,413.353424 855.570862,415.252594 855.570679,423.555328 
	C855.568176,559.846130 855.567688,696.136963 855.581909,832.427734 
	C855.582092,834.252380 855.543213,836.128052 855.926392,837.892151 
	C857.114685,843.362610 864.068848,846.081970 867.969849,842.188782 
	C869.893616,840.268738 871.017395,836.676025 871.025513,833.835938 
	C871.195496,774.188354 871.153992,714.540161 871.153992,654.892090 
	C871.153931,577.416260 871.130432,499.940430 871.205933,422.464722 
	C871.211060,417.225952 870.135498,413.208984 863.483704,412.151398 
M1919.000000,1249.386963 
	C1919.000000,1240.329956 1919.000000,1231.272949 1919.000000,1222.215820 
	C1912.710327,1238.556641 1901.493164,1249.653809 1885.100830,1255.692383 
	C1894.632080,1256.000000 1903.937866,1255.777710 1913.225098,1256.095947 
	C1917.707275,1256.249512 1919.820801,1255.036133 1919.000000,1249.386963 
z"/>
<path fill="#FFFFFF" opacity="1.000000" stroke="none" 
	d="
M1.000001,1221.468628 
	C4.716776,1227.541748 7.751402,1234.614258 12.324067,1240.489868 
	C17.964455,1247.737671 25.899082,1252.430542 34.747120,1256.000000 
	C23.810518,1256.000000 12.873917,1256.000000 1.468657,1256.000000 
	C1.000000,1244.645752 1.000000,1233.291504 1.000001,1221.468628 
z"/>
<path fill="#FFFFFF" opacity="1.000000" stroke="none" 
	d="
M1921.000000,30.531342 
	C1917.630371,22.095495 1912.766846,14.184169 1905.437500,7.973672 
	C1902.809937,5.747308 1900.005127,3.730404 1897.140625,1.308969 
	C1904.934570,1.000000 1912.869263,1.000000 1921.000000,1.000000 
	C1921.000000,10.686681 1921.000000,20.374683 1921.000000,30.531342 
z"/>
<path fill="#FFFFFF" opacity="1.000000" stroke="none" 
	d="
M26.531364,1.000000 
	C20.706034,7.453804 14.195403,13.715896 8.228656,20.459234 
	C5.958573,23.024775 4.938025,26.695950 2.999535,30.557312 
	C2.999535,20.513599 2.999535,11.225457 2.999767,1.468657 
	C10.687576,1.000000 18.375153,1.000000 26.531364,1.000000 
z"/>
<path fill="#1E1D1D" opacity="1.000000" stroke="none" 
	d="
M969.893982,580.136841 
	C964.377686,564.640259 958.965637,549.522461 953.247498,533.549561 
	C956.278381,533.549561 958.536316,533.549561 960.794189,533.549561 
	C976.627319,533.549561 992.465942,533.778198 1008.290222,533.403870 
	C1012.768738,533.297852 1013.856689,535.294678 1014.878418,538.815796 
	C1024.878174,573.275452 1034.981323,607.705139 1045.073975,642.137878 
	C1045.561401,643.801025 1046.223511,645.413086 1047.780518,646.936829 
	C1051.816650,633.127136 1055.859253,619.319336 1059.887695,605.507385 
	C1066.493286,582.859314 1073.174927,560.232666 1079.594482,537.531860 
	C1080.513306,534.283142 1081.903320,533.432556 1085.079956,533.479614 
	C1096.910522,533.654968 1108.749390,533.728455 1120.576172,533.452393 
	C1124.711304,533.355957 1126.637207,534.449219 1127.825439,538.659546 
	C1137.752930,573.834717 1147.938843,608.936890 1158.054077,644.059021 
	C1158.373291,645.167175 1158.771973,646.252441 1159.584229,648.714050 
	C1161.950195,640.896790 1163.990601,634.272705 1165.959961,627.627563 
	C1174.882080,597.523071 1183.751953,567.403015 1192.789185,537.333252 
	C1193.232422,535.858276 1195.061768,533.729187 1196.267700,533.714417 
	C1215.072510,533.484680 1233.880981,533.553650 1253.679565,533.553650 
	C1230.629517,598.345947 1207.795654,662.530762 1184.957275,726.728149 
	C1168.328369,726.728149 1152.017578,726.728149 1135.265015,726.728149 
	C1124.850830,692.178467 1114.427124,657.597229 1104.003418,623.016052 
	C1103.671509,623.017578 1103.339600,623.019104 1103.007568,623.020630 
	C1100.664307,630.600891 1098.287964,638.171082 1095.983765,645.763245 
	C1088.265137,671.196777 1080.518311,696.622070 1072.932373,722.095215 
	C1071.890625,725.593323 1070.484741,727.070190 1066.507812,726.972351 
	C1053.682495,726.656677 1040.837280,726.611633 1028.015015,726.984070 
	C1023.409912,727.117798 1021.437744,725.709839 1019.917725,721.374695 
	C1004.753967,678.126526 989.355530,634.960632 974.021240,591.772278 
	C972.687988,588.017334 971.339600,584.267761 969.893982,580.136841 
z"/>
<path fill="#252524" opacity="1.000000" stroke="none" 
	d="
M650.776855,423.234009 
	C693.926392,462.775696 716.645386,512.440674 725.987366,569.043396 
	C729.600952,590.937744 731.285583,612.976562 730.766663,635.117004 
	C729.721741,679.696533 722.523254,723.057678 702.906616,763.609070 
	C682.053894,806.715820 650.423706,839.710999 608.651428,863.085205 
	C576.710693,880.958130 542.357544,891.620789 506.467896,897.891296 
	C475.063782,903.378052 443.414032,904.957458 411.584930,904.899780 
	C319.772095,904.733459 227.958771,904.841248 136.145645,904.840820 
	C110.818550,904.840698 91.471649,886.619263 89.985695,861.356201 
	C89.907524,860.027039 89.901855,858.692200 89.901825,857.360046 
	C89.898300,704.560364 89.892319,551.760620 89.904922,398.960938 
	C89.906891,375.048584 104.517944,357.074585 127.673164,352.616699 
	C131.070053,351.962708 134.622620,351.927490 138.103287,351.926239 
	C233.582260,351.891571 329.061584,351.745728 424.540100,351.961578 
	C473.831970,352.072998 522.298279,358.018555 568.929993,375.040680 
	C599.048279,386.034790 626.510559,401.580231 650.776855,423.234009 
M105.003799,848.497498 
	C105.008553,852.495972 104.922104,856.497009 105.034058,860.492493 
	C105.485069,876.587646 118.298637,889.789368 134.517288,889.799072 
	C232.829468,889.858276 331.141693,889.851013 429.453888,889.791626 
	C438.765839,889.786011 448.154572,889.926453 457.372986,888.848083 
	C475.794830,886.692932 494.207855,884.220215 512.471252,881.007385 
	C543.168884,875.607300 572.240601,865.158386 599.444397,849.969421 
	C622.149109,837.292358 642.303101,821.373108 659.267334,801.395447 
	C673.882141,784.184570 685.489075,765.277161 694.204956,744.543945 
	C706.982544,714.149109 713.102783,682.200989 714.776245,649.472900 
	C715.569763,633.953674 714.727295,618.307617 713.865540,602.761108 
	C713.216797,591.059570 711.535278,579.401611 709.999023,567.765808 
	C707.004883,545.088013 700.020508,523.554749 690.378540,502.895905 
	C679.320068,479.201996 664.609436,458.047821 645.008545,440.583221 
	C636.608826,433.099060 628.040100,425.714325 618.934387,419.133606 
	C604.555298,408.741760 588.737610,400.779846 572.357239,393.974304 
	C552.858459,385.873169 532.653198,379.962463 511.971924,376.012177 
	C497.644806,373.275574 483.083374,371.616425 468.562256,370.087494 
	C454.852112,368.643951 441.059967,367.172150 427.300201,367.136658 
	C330.321686,366.886383 233.342194,366.986969 136.363113,367.070404 
	C132.793259,367.073486 129.123383,367.692871 125.673210,368.649353 
	C113.853027,371.926270 104.850731,384.110992 104.873306,399.594849 
	C105.091011,548.895813 105.003799,698.197144 105.003799,848.497498 
z"/>
<path fill="#1E1D1C" opacity="1.000000" stroke="none" 
	d="
M1649.157227,699.848328 
	C1603.201050,648.191895 1619.401245,553.962891 1694.835693,532.901672 
	C1730.667603,522.897522 1764.911621,527.321960 1794.892700,551.001587 
	C1814.679443,566.629395 1825.886353,587.785400 1829.726562,612.486694 
	C1834.552856,643.529175 1828.155518,672.087036 1808.111938,696.847900 
	C1793.161743,715.316528 1773.511353,726.210022 1750.322754,730.451660 
	C1724.081177,735.251648 1698.397949,733.227295 1674.857666,719.866211 
	C1665.612915,714.619019 1657.846558,706.767517 1649.157227,699.848328 
M1692.075562,597.621033 
	C1682.459351,610.450500 1679.095459,624.835815 1682.052734,640.508850 
	C1685.365723,658.067444 1694.597046,671.405029 1711.956299,677.337646 
	C1728.793335,683.091858 1744.715088,680.442505 1757.956299,668.137695 
	C1770.228149,656.733704 1774.265259,641.943848 1773.146240,625.499817 
	C1771.826294,606.104370 1759.852051,589.500549 1742.761230,583.562012 
	C1724.483887,577.211243 1706.084229,582.158997 1692.075562,597.621033 
z"/>
<path fill="#1E1D1C" opacity="1.000000" stroke="none" 
	d="
M1510.853760,687.027222 
	C1510.853760,700.651794 1510.853760,713.778809 1510.853760,727.175415 
	C1491.840332,727.175415 1473.237427,727.175415 1454.293091,727.175415 
	C1454.293091,662.759888 1454.293091,598.394836 1454.293091,533.850342 
	C1455.133423,533.749573 1455.940918,533.566223 1456.748047,533.568298 
	C1488.236084,533.650146 1519.731812,533.351624 1551.210205,533.953979 
	C1584.522217,534.591309 1612.756592,560.722961 1617.019653,593.816650 
	C1620.359741,619.747437 1613.646606,642.238464 1594.166992,660.269836 
	C1590.896606,663.297058 1587.093262,665.748474 1583.121704,668.782349 
	C1589.346680,678.406433 1595.622681,688.123352 1601.913208,697.830811 
	C1608.119751,707.408447 1614.340942,716.976501 1620.889160,727.062195 
	C1618.922974,727.230286 1617.646729,727.433105 1616.370361,727.434448 
	C1597.041626,727.454651 1577.712524,727.382324 1558.384766,727.517151 
	C1555.343872,727.538330 1553.572266,726.551819 1551.935181,724.011963 
	C1543.562988,711.022827 1534.570679,698.411621 1526.689575,685.137329 
	C1522.828613,678.634094 1518.369019,676.425903 1510.853760,678.430664 
	C1510.853760,680.968872 1510.853760,683.749329 1510.853760,687.027222 
M1550.393311,584.047241 
	C1546.988403,582.379456 1543.666626,579.517456 1540.162476,579.273254 
	C1530.594482,578.606445 1520.949341,579.043823 1511.255615,579.043823 
	C1511.255615,596.947205 1511.255615,614.870422 1511.255615,633.016479 
	C1519.635254,633.016479 1527.770020,633.243042 1535.886841,632.958557 
	C1545.816162,632.610535 1552.794312,627.389832 1556.996826,618.584412 
	C1562.534180,606.982361 1560.114014,594.020752 1550.393311,584.047241 
z"/>
<path fill="#1E1D1C" opacity="1.000000" stroke="none" 
	d="
M1388.981689,720.832031 
	C1379.127930,724.091431 1369.491455,728.586121 1359.377319,730.365723 
	C1334.509521,734.741272 1310.160522,732.122253 1287.716675,719.761902 
	C1259.658447,704.309448 1243.810791,679.937561 1238.083740,648.754028 
	C1235.809937,636.373230 1235.976929,623.916931 1238.135254,610.990845 
	C1286.040649,610.990845 1333.931396,610.990845 1381.923340,610.990845 
	C1377.422852,588.703491 1346.035889,571.271912 1317.104614,585.797241 
	C1304.392578,573.369568 1292.320801,561.065674 1280.299683,548.712341 
	C1279.659668,548.054626 1279.447876,546.980225 1279.036743,546.099792 
	C1291.802002,536.762024 1306.284546,531.708496 1321.766113,529.482849 
	C1344.458252,526.220520 1366.671265,527.906433 1387.569214,538.045715 
	C1420.694946,554.117798 1438.095337,581.428345 1443.030518,617.311584 
	C1444.490601,627.928101 1444.103271,638.509888 1441.904541,649.533325 
	C1393.847900,649.533325 1345.963745,649.533325 1297.354004,649.533325 
	C1302.109863,662.461975 1310.218262,671.371887 1322.251709,675.913513 
	C1328.503906,678.273376 1335.509155,678.637817 1342.637329,680.313904 
	C1343.752197,681.660950 1344.231812,682.808533 1345.081787,683.502686 
	C1356.332397,692.690918 1367.703735,701.732727 1378.885376,711.003418 
	C1382.489624,713.991638 1385.629395,717.539978 1388.981689,720.832031 
z"/>
<path fill="#1D1C1C" opacity="1.000000" stroke="none" 
	d="
M863.875549,412.157593 
	C870.135498,413.208984 871.211060,417.225952 871.205933,422.464722 
	C871.130432,499.940430 871.153931,577.416260 871.153992,654.892090 
	C871.153992,714.540161 871.195496,774.188354 871.025513,833.835938 
	C871.017395,836.676025 869.893616,840.268738 867.969849,842.188782 
	C864.068848,846.081970 857.114685,843.362610 855.926392,837.892151 
	C855.543213,836.128052 855.582092,834.252380 855.581909,832.427734 
	C855.567688,696.136963 855.568176,559.846130 855.570679,423.555328 
	C855.570862,415.252594 856.900879,413.353424 863.875549,412.157593 
z"/>
<path fill="#484532" opacity="1.000000" stroke="none" 
	d="
M1353.990967,678.061768 
	C1357.007690,676.686340 1360.024536,675.310913 1363.699951,674.059265 
	C1374.285278,682.374023 1384.287476,690.476196 1394.103638,698.797668 
	C1398.297119,702.352539 1402.102539,706.365051 1406.084229,710.169678 
	C1403.261841,712.306824 1400.439575,714.444031 1397.272461,716.293884 
	C1396.302734,714.899902 1395.928345,713.488403 1395.012573,712.734985 
	C1387.756592,706.765076 1380.289795,701.048523 1373.102051,694.999451 
	C1366.591431,689.520203 1360.350708,683.720337 1353.990967,678.061768 
z"/>
<path fill="#615D3E" opacity="1.000000" stroke="none" 
	d="
M1406.413452,710.070435 
	C1402.102539,706.365051 1398.297119,702.352539 1394.103638,698.797668 
	C1384.287476,690.476196 1374.285278,682.374023 1364.051392,674.005859 
	C1366.271484,671.925598 1368.798584,670.022522 1371.819214,668.235962 
	C1378.828735,673.686218 1385.289551,679.089539 1391.875610,684.335327 
	C1399.480591,690.392700 1407.196167,696.311279 1414.863647,702.290161 
	C1412.156616,704.850525 1409.449707,707.410950 1406.413452,710.070435 
z"/>
<path fill="#BBB36B" opacity="1.000000" stroke="none" 
	d="
M1401.002686,654.992615 
	C1411.768066,655.044922 1422.534302,655.028870 1433.298218,655.180420 
	C1438.168701,655.249023 1439.573364,656.967041 1437.990356,661.790344 
	C1435.887573,668.198181 1433.135864,674.393005 1430.225098,680.616028 
	C1423.473267,675.338989 1417.056274,670.243469 1410.885376,664.865723 
	C1407.383057,661.813477 1404.283569,658.298950 1401.002686,654.992615 
z"/>
<path fill="#312F26" opacity="1.000000" stroke="none" 
	d="
M1353.588501,678.043823 
	C1360.350708,683.720337 1366.591431,689.520203 1373.102051,694.999451 
	C1380.289795,701.048523 1387.756592,706.765076 1395.012573,712.734985 
	C1395.928345,713.488403 1396.302734,714.899902 1396.945801,716.353027 
	C1394.541748,718.108215 1392.119751,719.516907 1389.339844,720.878845 
	C1385.629395,717.539978 1382.489624,713.991638 1378.885376,711.003418 
	C1367.703735,701.732727 1356.332397,692.690918 1345.081787,683.502686 
	C1344.231812,682.808533 1343.752197,681.660950 1343.047974,680.384583 
	C1346.392456,679.371887 1349.789185,678.698853 1353.588501,678.043823 
z"/>
<path fill="#79744A" opacity="1.000000" stroke="none" 
	d="
M1415.136719,702.167480 
	C1407.196167,696.311279 1399.480591,690.392700 1391.875610,684.335327 
	C1385.289551,679.089539 1378.828735,673.686218 1372.119385,668.066467 
	C1373.389404,665.943726 1374.852539,664.107056 1376.966797,662.131226 
	C1378.402588,662.217407 1379.360474,662.228149 1379.945679,662.700500 
	C1387.653564,668.921936 1395.231689,675.306335 1403.002808,681.446655 
	C1408.917114,686.119812 1415.059937,690.503723 1421.101074,695.016296 
	C1419.203979,697.359070 1417.306763,699.701904 1415.136719,702.167480 
z"/>
<path fill="#615D3E" opacity="1.000000" stroke="none" 
	d="
M1259.913208,563.869385 
	C1261.732910,561.655029 1263.552612,559.440735 1265.732666,557.423218 
	C1266.381226,558.206421 1266.541870,558.917358 1266.975830,559.361145 
	C1279.324707,571.990356 1291.701050,584.592651 1304.072876,597.199341 
	C1302.767822,599.252747 1301.462769,601.306091 1299.682373,603.613647 
	C1286.109009,590.535034 1273.011108,577.202209 1259.913208,563.869385 
z"/>
<path fill="#8E8855" opacity="1.000000" stroke="none" 
	d="
M1421.405884,694.875000 
	C1415.059937,690.503723 1408.917114,686.119812 1403.002808,681.446655 
	C1395.231689,675.306335 1387.653564,668.921936 1379.945679,662.700500 
	C1379.360474,662.228149 1378.402588,662.217407 1377.244385,661.963013 
	C1379.106934,659.110352 1379.127808,654.221497 1384.657104,654.429626 
	C1385.894165,655.846191 1386.527588,657.084412 1387.510742,657.901794 
	C1394.903442,664.047974 1402.270874,670.231506 1409.837402,676.159241 
	C1415.141602,680.314636 1420.746826,684.085571 1426.217651,688.028137 
	C1424.715332,690.263306 1423.213013,692.498474 1421.405884,694.875000 
z"/>
<path fill="#312F26" opacity="1.000000" stroke="none" 
	d="
M1278.706787,546.150879 
	C1279.447876,546.980225 1279.659668,548.054626 1280.299683,548.712341 
	C1292.320801,561.065674 1304.392578,573.369568 1316.743896,585.851318 
	C1314.660645,587.841187 1312.287354,589.663513 1309.472168,591.301880 
	C1307.265137,589.152283 1305.546143,587.142700 1303.726929,585.228210 
	C1293.124023,574.069641 1282.497559,562.933350 1271.879028,551.789612 
	C1274.044922,549.927124 1276.210938,548.064575 1278.706787,546.150879 
z"/>
<path fill="#A49D5F" opacity="1.000000" stroke="none" 
	d="
M1426.490723,687.848145 
	C1420.746826,684.085571 1415.141602,680.314636 1409.837402,676.159241 
	C1402.270874,670.231506 1394.903442,664.047974 1387.510742,657.901794 
	C1386.527588,657.084412 1385.894165,655.846191 1385.033203,654.472778 
	C1390.029297,654.404785 1395.090820,654.666809 1400.577637,654.960693 
	C1404.283569,658.298950 1407.383057,661.813477 1410.885376,664.865723 
	C1417.056274,670.243469 1423.473267,675.338989 1429.974365,680.856873 
	C1429.029175,683.330139 1427.896484,685.499207 1426.490723,687.848145 
z"/>
<path fill="#484532" opacity="1.000000" stroke="none" 
	d="
M1271.566040,551.905151 
	C1282.497559,562.933350 1293.124023,574.069641 1303.726929,585.228210 
	C1305.546143,587.142700 1307.265137,589.152283 1309.162598,591.488037 
	C1307.743652,593.518738 1306.192627,595.179443 1304.357178,597.019775 
	C1291.701050,584.592651 1279.324707,571.990356 1266.975830,559.361145 
	C1266.541870,558.917358 1266.381226,558.206421 1266.031982,557.275879 
	C1267.731445,555.294739 1269.492310,553.657715 1271.566040,551.905151 
z"/>
<path fill="#FFFFFF" opacity="1.000000" stroke="none" 
	d="
M1919.000000,1249.868042 
	C1919.820801,1255.036133 1917.707275,1256.249512 1913.225098,1256.095947 
	C1903.937866,1255.777710 1894.632080,1256.000000 1885.100830,1255.692383 
	C1901.493164,1249.653809 1912.710327,1238.556641 1919.000000,1222.215820 
	C1919.000000,1231.272949 1919.000000,1240.329956 1919.000000,1249.868042 
z"/>
<path fill="#79744A" opacity="1.000000" stroke="none" 
	d="
M1259.617432,564.026611 
	C1273.011108,577.202209 1286.109009,590.535034 1299.538208,603.917969 
	C1296.894653,608.253235 1292.546875,605.220459 1288.408936,605.632446 
	C1276.874390,593.755371 1265.849243,582.268311 1254.824097,570.781250 
	C1256.323364,568.582092 1257.822510,566.382996 1259.617432,564.026611 
z"/>
<path fill="#8E8855" opacity="1.000000" stroke="none" 
	d="
M1254.546387,570.979980 
	C1265.849243,582.268311 1276.874390,593.755371 1287.958984,605.575867 
	C1284.324829,605.938538 1280.631348,605.967834 1276.420166,605.617188 
	C1268.351685,597.080505 1260.830322,588.895935 1253.207764,580.806763 
	C1252.369873,579.917603 1250.951050,579.575745 1249.801758,578.980042 
	C1251.290649,576.379578 1252.779663,573.779114 1254.546387,570.979980 
z"/>
<path fill="#A49D5F" opacity="1.000000" stroke="none" 
	d="
M1249.545898,579.197021 
	C1250.951050,579.575745 1252.369873,579.917603 1253.207764,580.806763 
	C1260.830322,588.895935 1268.351685,597.080505 1275.962891,605.569336 
	C1271.669800,605.917358 1267.316406,605.933289 1262.439453,605.582581 
	C1256.570435,599.439819 1251.225220,593.663757 1245.879883,587.887695 
	C1247.016479,585.063110 1248.153198,582.238525 1249.545898,579.197021 
z"/>
<path fill="#BBB36B" opacity="1.000000" stroke="none" 
	d="
M1245.596802,588.108215 
	C1251.225220,593.663757 1256.570435,599.439819 1261.978760,605.545044 
	C1254.963501,605.702026 1247.885376,605.529907 1239.619507,605.328857 
	C1241.788208,598.854248 1243.551025,593.591492 1245.596802,588.108215 
z"/>
<path fill="#FFFFFF" opacity="1.000000" stroke="none" 
	d="
M105.003799,847.997925 
	C105.003799,698.197144 105.091011,548.895813 104.873306,399.594849 
	C104.850731,384.110992 113.853027,371.926270 125.673210,368.649353 
	C129.123383,367.692871 132.793259,367.073486 136.363113,367.070404 
	C233.342194,366.986969 330.321686,366.886383 427.300201,367.136658 
	C441.059967,367.172150 454.852112,368.643951 468.562256,370.087494 
	C483.083374,371.616425 497.644806,373.275574 511.971924,376.012177 
	C532.653198,379.962463 552.858459,385.873169 572.357239,393.974304 
	C588.737610,400.779846 604.555298,408.741760 618.934387,419.133606 
	C628.040100,425.714325 636.608826,433.099060 645.008545,440.583221 
	C664.609436,458.047821 679.320068,479.201996 690.378540,502.895905 
	C700.020508,523.554749 707.004883,545.088013 709.999023,567.765808 
	C711.535278,579.401611 713.216797,591.059570 713.865540,602.761108 
	C714.727295,618.307617 715.569763,633.953674 714.776245,649.472900 
	C713.102783,682.200989 706.982544,714.149109 694.204956,744.543945 
	C685.489075,765.277161 673.882141,784.184570 659.267334,801.395447 
	C642.303101,821.373108 622.149109,837.292358 599.444397,849.969421 
	C572.240601,865.158386 543.168884,875.607300 512.471252,881.007385 
	C494.207855,884.220215 475.794830,886.692932 457.372986,888.848083 
	C448.154572,889.926453 438.765839,889.786011 429.453888,889.791626 
	C331.141693,889.851013 232.829468,889.858276 134.517288,889.799072 
	C118.298637,889.789368 105.485069,876.587646 105.034058,860.492493 
	C104.922104,856.497009 105.008553,852.495972 105.003799,847.997925 
M638.472656,503.989227 
	C628.980469,488.638977 617.571655,475.046326 603.872559,463.123077 
	C588.335571,449.600189 570.898438,439.612640 552.133362,431.546967 
	C519.664062,417.590942 485.425903,412.111908 450.465027,411.676971 
	C398.812714,411.034424 347.144165,411.776520 295.488068,411.312286 
	C278.805359,411.162354 263.936005,425.517151 263.979614,442.762146 
	C264.313782,574.911438 264.163147,707.061951 264.163147,839.212097 
	C264.163147,841.005005 264.163147,842.797852 264.163147,845.166260 
	C266.404083,845.166260 268.181763,845.166260 269.959473,845.166260 
	C327.285645,845.166260 384.613251,845.393433 441.937012,845.020691 
	C458.069000,844.915833 474.240601,843.541321 490.302490,841.869568 
	C510.738434,839.742554 530.591492,834.592041 549.635681,826.902405 
	C577.847595,815.511108 602.931885,799.628540 622.792725,775.931396 
	C635.429871,760.853210 645.467407,744.388306 652.823730,726.301880 
	C663.626160,699.742493 668.498413,671.839355 669.841187,643.332764 
	C670.824951,622.448059 669.581360,601.689331 666.274231,580.947388 
	C661.924866,553.669189 652.993469,528.235291 638.472656,503.989227 
M210.000412,727.677368 
	C209.675552,724.906860 209.542007,722.097900 208.994843,719.372009 
	C205.425430,701.590454 189.406693,689.003052 169.801300,693.748596 
	C155.628845,697.179138 146.007370,709.847351 145.878769,724.472229 
	C145.703018,744.459290 145.827103,764.449097 145.843231,784.437683 
	C145.845520,787.262817 145.475266,790.202087 146.105225,792.894897 
	C151.575394,816.278076 163.667404,834.535828 186.627274,844.098267 
	C194.021042,847.177673 201.572708,849.530823 210.000412,847.790710 
	C210.000412,807.896240 210.000412,768.267151 210.000412,727.677368 
M141.945938,597.440430 
	C131.641144,616.310791 135.138474,636.367310 149.164612,651.515930 
	C163.403305,666.894104 186.917938,669.627319 205.608124,658.789551 
	C232.845871,642.995361 237.087143,603.194336 209.818207,582.762390 
	C188.697815,566.937439 156.879059,570.903381 141.945938,597.440430 
z"/>
<path fill="#FEF38D" opacity="1.000000" stroke="none" 
	d="
M1692.302734,597.345276 
	C1706.084229,582.158997 1724.483887,577.211243 1742.761230,583.562012 
	C1759.852051,589.500549 1771.826294,606.104370 1773.146240,625.499817 
	C1774.265259,641.943848 1770.228149,656.733704 1757.956299,668.137695 
	C1744.715088,680.442505 1728.793335,683.091858 1711.956299,677.337646 
	C1694.597046,671.405029 1685.365723,658.067444 1682.052734,640.508850 
	C1679.095459,624.835815 1682.459351,610.450500 1692.302734,597.345276 
z"/>
<path fill="#FEF38D" opacity="1.000000" stroke="none" 
	d="
M1550.659180,584.290161 
	C1560.114014,594.020752 1562.534180,606.982361 1556.996826,618.584412 
	C1552.794312,627.389832 1545.816162,632.610535 1535.886841,632.958557 
	C1527.770020,633.243042 1519.635254,633.016479 1511.255615,633.016479 
	C1511.255615,614.870422 1511.255615,596.947205 1511.255615,579.043823 
	C1520.949341,579.043823 1530.594482,578.606445 1540.162476,579.273254 
	C1543.666626,579.517456 1546.988403,582.379456 1550.659180,584.290161 
z"/>
<path fill="#CC0066" opacity="1.000000" stroke="none" 
	d="
M638.740173,504.243835 
	C652.993469,528.235291 661.924866,553.669189 666.274231,580.947388 
	C669.581360,601.689331 670.824951,622.448059 669.841187,643.332764 
	C668.498413,671.839355 663.626160,699.742493 652.823730,726.301880 
	C645.467407,744.388306 635.429871,760.853210 622.792725,775.931396 
	C602.931885,799.628540 577.847595,815.511108 549.635681,826.902405 
	C530.591492,834.592041 510.738434,839.742554 490.302490,841.869568 
	C474.240601,843.541321 458.069000,844.915833 441.937012,845.020691 
	C384.613251,845.393433 327.285645,845.166260 269.959473,845.166260 
	C268.181763,845.166260 266.404083,845.166260 264.163147,845.166260 
	C264.163147,842.797852 264.163147,841.005005 264.163147,839.212097 
	C264.163147,707.061951 264.313782,574.911438 263.979614,442.762146 
	C263.936005,425.517151 278.805359,411.162354 295.488068,411.312286 
	C347.144165,411.776520 398.812714,411.034424 450.465027,411.676971 
	C485.425903,412.111908 519.664062,417.590942 552.133362,431.546967 
	C570.898438,439.612640 588.335571,449.600189 603.872559,463.123077 
	C617.571655,475.046326 628.980469,488.638977 638.740173,504.243835 
M310.509369,663.528320 
	C318.997772,663.528076 327.488434,663.651550 335.974060,663.497742 
	C347.873260,663.282104 358.946350,659.668030 366.028778,650.041077 
	C379.979950,631.077637 380.897095,609.886475 371.950500,588.706543 
	C366.170074,575.022095 354.784363,567.404541 339.611267,567.036865 
	C324.404358,566.668335 309.181610,566.955933 293.812866,566.955933 
	C293.812866,598.650696 293.812866,630.840454 293.812866,663.527954 
	C299.268280,663.527954 304.391510,663.527954 310.509369,663.528320 
M411.002563,641.343262 
	C411.002563,634.918457 411.002563,628.493652 411.002563,621.718140 
	C426.643951,621.718140 441.579834,621.718140 456.669800,621.718140 
	C456.669800,615.971008 456.669800,610.599243 456.669800,604.751953 
	C441.281342,604.751953 426.220490,604.751953 411.327026,604.751953 
	C411.327026,597.841492 411.327026,591.416321 411.327026,584.407349 
	C428.034760,584.407349 444.426544,584.407349 460.627075,584.407349 
	C460.627075,577.904480 460.627075,572.006348 460.627075,566.246582 
	C437.134033,566.246582 414.035095,566.246582 390.884033,566.246582 
	C390.884033,598.690857 390.884033,630.884583 390.884033,663.189087 
	C415.035767,663.189087 438.773804,663.189087 462.519501,663.189087 
	C462.519501,657.097107 462.519501,651.350342 462.519501,645.160278 
	C460.407623,645.160278 458.611542,645.160278 456.815491,645.160278 
	C442.989746,645.160156 429.163940,645.182373 415.338379,645.134644 
	C413.394440,645.127930 410.605713,646.067139 411.002563,641.343262 
M497.067627,660.814819 
	C498.765045,656.197327 500.755432,651.661011 502.064545,646.935913 
	C503.062378,643.334412 504.643066,641.927246 508.537842,642.070129 
	C517.192200,642.387695 525.877441,642.427673 534.527161,642.051819 
	C538.417358,641.882751 539.735352,643.543091 540.640381,646.790894 
	C541.942932,651.465759 543.434326,656.099121 545.116333,660.649902 
	C545.577393,661.897461 546.969727,663.656555 547.997192,663.699951 
	C554.570862,663.977173 561.161987,663.841309 567.976501,663.841309 
	C567.783630,662.776184 567.763733,662.289490 567.606384,661.852173 
	C562.749268,648.352112 557.891846,634.852112 553.007202,621.362000 
	C546.861267,604.388733 540.617310,587.450317 534.595276,570.433350 
	C533.412537,567.091125 531.712402,565.815369 528.133606,566.077454 
	C523.492126,566.417236 518.803711,566.266724 514.142090,566.119019 
	C511.567841,566.037415 510.620972,566.960754 509.702606,569.498413 
	C499.751617,596.995178 489.552612,624.402100 479.458984,651.847473 
	C478.064087,655.640259 476.872894,659.507935 475.421631,663.835144 
	C482.072388,663.835144 487.898193,663.949890 493.711884,663.735779 
	C494.839996,663.694214 495.920868,662.370605 497.067627,660.814819 
M602.175232,622.500000 
	C602.175232,603.900024 602.175232,585.300110 602.175232,566.489563 
	C594.980713,566.489563 588.276611,566.489563 581.475830,566.489563 
	C581.475830,599.016907 581.475830,631.207764 581.475830,663.618652 
	C603.686951,663.618652 625.576233,663.618652 647.718567,663.618652 
	C647.718567,657.540527 647.718567,651.690735 647.718567,645.342957 
	C632.506165,645.342957 617.594727,645.342957 602.175293,645.342957 
	C602.175293,637.735596 602.175293,630.617737 602.175232,622.500000 
z"/>
<path fill="#232323" opacity="1.000000" stroke="none" 
	d="
M210.000412,728.157715 
	C210.000412,768.267151 210.000412,807.896240 210.000412,847.790710 
	C201.572708,849.530823 194.021042,847.177673 186.627274,844.098267 
	C163.667404,834.535828 151.575394,816.278076 146.105225,792.894897 
	C145.475266,790.202087 145.845520,787.262817 145.843231,784.437683 
	C145.827103,764.449097 145.703018,744.459290 145.878769,724.472229 
	C146.007370,709.847351 155.628845,697.179138 169.801300,693.748596 
	C189.406693,689.003052 205.425430,701.590454 208.994843,719.372009 
	C209.542007,722.097900 209.675552,724.906860 210.000412,728.157715 
z"/>
<path fill="#232323" opacity="1.000000" stroke="none" 
	d="
M142.003891,597.065918 
	C156.879059,570.903381 188.697815,566.937439 209.818207,582.762390 
	C237.087143,603.194336 232.845871,642.995361 205.608124,658.789551 
	C186.917938,669.627319 163.403305,666.894104 149.164612,651.515930 
	C135.138474,636.367310 131.641144,616.310791 142.003891,597.065918 
z"/>
<path fill="#FFFDFE" opacity="1.000000" stroke="none" 
	d="
M310.012024,663.528137 
	C304.391510,663.527954 299.268280,663.527954 293.812866,663.527954 
	C293.812866,630.840454 293.812866,598.650696 293.812866,566.955933 
	C309.181610,566.955933 324.404358,566.668335 339.611267,567.036865 
	C354.784363,567.404541 366.170074,575.022095 371.950500,588.706543 
	C380.897095,609.886475 379.979950,631.077637 366.028778,650.041077 
	C358.946350,659.668030 347.873260,663.282104 335.974060,663.497742 
	C327.488434,663.651550 318.997772,663.528076 310.012024,663.528137 
M355.196503,626.453735 
	C354.995972,618.386169 355.728180,610.155334 354.351990,602.293579 
	C352.735535,593.059021 346.344666,586.734253 336.839264,585.520142 
	C329.544800,584.588440 322.035980,585.334778 314.513245,585.334778 
	C314.513245,605.438049 314.513245,625.444885 314.513245,645.823669 
	C320.319702,645.823669 325.788361,646.028625 331.236786,645.783447 
	C344.859314,645.170471 350.765015,640.481567 355.196503,626.453735 
z"/>
<path fill="#FFFDFE" opacity="1.000000" stroke="none" 
	d="
M411.003357,641.827881 
	C410.605713,646.067139 413.394440,645.127930 415.338379,645.134644 
	C429.163940,645.182373 442.989746,645.160156 456.815491,645.160278 
	C458.611542,645.160278 460.407623,645.160278 462.519501,645.160278 
	C462.519501,651.350342 462.519501,657.097107 462.519501,663.189087 
	C438.773804,663.189087 415.035767,663.189087 390.884033,663.189087 
	C390.884033,630.884583 390.884033,598.690857 390.884033,566.246582 
	C414.035095,566.246582 437.134033,566.246582 460.627075,566.246582 
	C460.627075,572.006348 460.627075,577.904480 460.627075,584.407349 
	C444.426544,584.407349 428.034760,584.407349 411.327026,584.407349 
	C411.327026,591.416321 411.327026,597.841492 411.327026,604.751953 
	C426.220490,604.751953 441.281342,604.751953 456.669800,604.751953 
	C456.669800,610.599243 456.669800,615.971008 456.669800,621.718140 
	C441.579834,621.718140 426.643951,621.718140 411.002563,621.718140 
	C411.002563,628.493652 411.002563,634.918457 411.003357,641.827881 
z"/>
<path fill="#FFFDFE" opacity="1.000000" stroke="none" 
	d="
M497.045593,661.226562 
	C495.920868,662.370605 494.839996,663.694214 493.711884,663.735779 
	C487.898193,663.949890 482.072388,663.835144 475.421631,663.835144 
	C476.872894,659.507935 478.064087,655.640259 479.458984,651.847473 
	C489.552612,624.402100 499.751617,596.995178 509.702606,569.498413 
	C510.620972,566.960754 511.567841,566.037415 514.142090,566.119019 
	C518.803711,566.266724 523.492126,566.417236 528.133606,566.077454 
	C531.712402,565.815369 533.412537,567.091125 534.595276,570.433350 
	C540.617310,587.450317 546.861267,604.388733 553.007202,621.362000 
	C557.891846,634.852112 562.749268,648.352112 567.606384,661.852173 
	C567.763733,662.289490 567.783630,662.776184 567.976501,663.841309 
	C561.161987,663.841309 554.570862,663.977173 547.997192,663.699951 
	C546.969727,663.656555 545.577393,661.897461 545.116333,660.649902 
	C543.434326,656.099121 541.942932,651.465759 540.640381,646.790894 
	C539.735352,643.543091 538.417358,641.882751 534.527161,642.051819 
	C525.877441,642.427673 517.192200,642.387695 508.537842,642.070129 
	C504.643066,641.927246 503.062378,643.334412 502.064545,646.935913 
	C500.755432,651.661011 498.765045,656.197327 497.045593,661.226562 
M514.028259,613.509888 
	C512.658997,617.538635 511.289673,621.567322 509.883698,625.703979 
	C517.956482,625.703979 525.521118,625.703979 533.681702,625.703979 
	C529.839050,614.200928 526.147644,603.150635 521.981750,590.679871 
	C519.042419,599.053589 516.639282,605.899780 514.028259,613.509888 
z"/>
<path fill="#FEFBFD" opacity="1.000000" stroke="none" 
	d="
M602.175293,622.999939 
	C602.175293,630.617737 602.175293,637.735596 602.175293,645.342957 
	C617.594727,645.342957 632.506165,645.342957 647.718567,645.342957 
	C647.718567,651.690735 647.718567,657.540527 647.718567,663.618652 
	C625.576233,663.618652 603.686951,663.618652 581.475830,663.618652 
	C581.475830,631.207764 581.475830,599.016907 581.475830,566.489563 
	C588.276611,566.489563 594.980713,566.489563 602.175232,566.489563 
	C602.175232,585.300110 602.175232,603.900024 602.175293,622.999939 
z"/>
<path fill="#CD0368" opacity="1.000000" stroke="none" 
	d="
M355.115204,626.863525 
	C350.765015,640.481567 344.859314,645.170471 331.236786,645.783447 
	C325.788361,646.028625 320.319702,645.823669 314.513245,645.823669 
	C314.513245,625.444885 314.513245,605.438049 314.513245,585.334778 
	C322.035980,585.334778 329.544800,584.588440 336.839264,585.520142 
	C346.344666,586.734253 352.735535,593.059021 354.351990,602.293579 
	C355.728180,610.155334 354.995972,618.386169 355.115204,626.863525 
z"/>
<path fill="#CD0368" opacity="1.000000" stroke="none" 
	d="
M514.132202,613.127930 
	C516.639282,605.899780 519.042419,599.053589 521.981750,590.679871 
	C526.147644,603.150635 529.839050,614.200928 533.681702,625.703979 
	C525.521118,625.703979 517.956482,625.703979 509.883698,625.703979 
	C511.289673,621.567322 512.658997,617.538635 514.132202,613.127930 
z"/>
</svg>